<svg xmlns="http://www.w3.org/2000/svg" xmlns:xlink="http://www.w3.org/1999/xlink" width="1080" zoomAndPan="magnify" viewBox="0 0 810 52.499999" height="70" preserveAspectRatio="xMidYMid meet" version="1.0"><defs><clipPath id="ef8ebb7236"><path d="M 4 0 L 803.949219 0 L 803.949219 52 L 4 52 Z M 4 0 " clip-rule="nonzero"/></clipPath></defs><g clip-path="url(#ef8ebb7236)"><path fill="#3434cb" d="M 381.59375 3.0625 C 380.738281 3.0625 379.890625 3.0625 379.035156 3.0625 C 378.984375 1.8125 380.0625 1.265625 380.804688 0.761719 C 381.644531 0.195312 382.789062 0.214844 382.867188 1.789062 C 381.984375 1.753906 381.566406 2.179688 381.59375 3.0625 Z M 381.59375 3.0625 C 381.558594 3.941406 381.984375 4.371094 382.867188 4.335938 C 382.867188 3.910156 382.867188 3.480469 382.867188 3.0625 C 382.449219 3.0625 382.019531 3.0625 381.59375 3.0625 Z M 600.039062 15.191406 C 599.890625 15.046875 599.722656 14.773438 599.617188 14.789062 C 599.320312 14.855469 599.046875 15.046875 598.761719 15.191406 C 598.910156 15.335938 599.046875 15.472656 599.214844 15.644531 C 599.480469 15.5 599.753906 15.34375 600.039062 15.191406 Z M 384.148438 4.335938 C 386.058594 4.226562 385.234375 2.761719 385.425781 1.789062 C 385.527344 1.882812 385.722656 1.890625 385.980469 1.761719 C 386.238281 1.632812 386.40625 1.292969 386.5625 1.019531 C 386.585938 0.964844 386.3125 0.761719 386.167969 0.617188 C 385.921875 0.8125 385.570312 0.964844 385.449219 1.230469 C 385.320312 1.496094 385.320312 1.695312 385.425781 1.789062 C 384.578125 1.789062 383.722656 1.789062 382.875 1.789062 C 382.875 2.214844 382.875 2.644531 382.875 3.0625 C 383.757812 3.027344 384.183594 3.457031 384.148438 4.335938 Z M 382.875 5.621094 C 383.757812 5.652344 384.183594 5.226562 384.148438 4.34375 C 383.722656 4.34375 383.292969 4.34375 382.875 4.34375 C 382.875 4.765625 382.875 5.191406 382.875 5.621094 Z M 379.882812 7.972656 C 380.15625 6.269531 382.960938 7.785156 382.875 5.621094 C 381.601562 5.621094 380.316406 5.621094 379.042969 5.621094 C 379.34375 6.390625 378.300781 7.648438 379.882812 7.972656 Z M 366.265625 6.253906 C 366.589844 6.464844 366.929688 6.875 367.230469 6.851562 C 367.777344 6.792969 368.292969 6.464844 368.820312 6.253906 C 368.496094 6.039062 368.179688 5.824219 367.703125 5.507812 C 367.273438 5.730469 366.769531 5.996094 366.265625 6.253906 Z M 605.441406 16.695312 C 606.015625 17.457031 606.878906 17.320312 607.566406 16.601562 C 605.160156 15.292969 609.148438 13.539062 606.417969 11.597656 C 605.863281 12.460938 605.324219 13.566406 604.535156 14.464844 C 603.296875 15.902344 605 16.097656 605.441406 16.695312 Z M 375.203125 6.894531 C 375.109375 6.996094 375.101562 7.195312 375.238281 7.457031 C 375.363281 7.714844 375.707031 7.886719 375.980469 8.039062 C 376.03125 8.066406 376.238281 7.792969 376.382812 7.648438 C 376.1875 7.398438 376.03125 7.046875 375.765625 6.929688 C 375.503906 6.800781 375.3125 6.808594 375.210938 6.902344 C 375.808594 4.457031 377.785156 6.117188 379.042969 5.636719 C 379.042969 4.78125 379.042969 3.933594 379.042969 3.078125 C 378.1875 3.078125 377.339844 3.078125 376.484375 3.078125 C 376.375 4.988281 374.902344 4.164062 373.929688 4.355469 C 374.125 5.304688 373.304688 6.773438 375.203125 6.894531 Z M 375.921875 3.070312 C 376.484375 3.257812 376.65625 3.070312 376.496094 2.464844 C 376.347656 1.925781 376.339844 1.335938 376.136719 0.828125 C 375.972656 0.4375 375.527344 0.523438 375.339844 1.042969 C 375.058594 1.804688 375.109375 2.558594 375.921875 3.070312 Z M 370.027344 3.617188 C 368.976562 2.574219 367.691406 3.191406 366.539062 3.097656 C 366.023438 3.054688 365.476562 3.394531 364.9375 3.566406 C 366.65625 3.636719 368.367188 5.210938 370.027344 3.617188 Z M 373.929688 4.335938 C 373.808594 4.003906 373.738281 3.644531 373.558594 3.351562 C 373.347656 3.019531 372.960938 3.097656 372.808594 3.59375 C 372.757812 3.761719 373.160156 4.089844 373.355469 4.335938 C 373.550781 4.335938 373.738281 4.335938 373.929688 4.335938 Z M 339.441406 5.628906 C 340.988281 5.902344 341.355469 5.472656 340.902344 3.875 C 340.742188 3.300781 340.734375 2.675781 340.714844 2.078125 C 340.691406 1.1875 340.585938 0.488281 339.40625 0.488281 C 338.183594 0.488281 338.292969 1.292969 338.125 2.113281 C 337.808594 3.625 336.5 2.890625 335.601562 3.0625 C 335.601562 3.488281 335.601562 3.917969 335.601562 4.335938 C 337.234375 3.710938 338.089844 5.386719 339.441406 5.628906 Z M 347.105469 3.636719 C 347.105469 3.445312 347.105469 3.257812 347.105469 3.0625 C 346.769531 3.183594 346.410156 3.25 346.121094 3.429688 C 345.789062 3.644531 345.863281 4.027344 346.359375 4.183594 C 346.53125 4.234375 346.847656 3.832031 347.105469 3.636719 Z M 363.492188 6.902344 C 365.570312 6.945312 364.851562 5.40625 364.980469 4.34375 C 363.773438 4.34375 362.578125 4.34375 361.371094 4.34375 C 360.5 4.34375 359.789062 4.175781 359.867188 3.070312 C 359.667969 3.070312 359.472656 3.035156 359.285156 3.078125 C 358.625 3.207031 358.507812 4.695312 357.667969 3.953125 C 357.25 3.574219 357.410156 2.539062 357.308594 1.796875 C 356.710938 1.796875 356.09375 1.882812 355.53125 1.761719 C 355.195312 1.695312 354.90625 1.316406 354.648438 1.035156 C 354.023438 0.351562 353.152344 0.195312 352.621094 0.8125 C 351.742188 1.847656 353.988281 1.984375 353.476562 3.070312 C 355.179688 4.34375 356.882812 5.628906 358.582031 6.902344 C 360.234375 6.894531 361.867188 6.867188 363.492188 6.902344 Z M 629.160156 14.976562 C 627.671875 15.542969 625.878906 13.316406 624.484375 15.558594 C 626.117188 15.96875 627.671875 16.054688 629.160156 14.976562 Z M 350.9375 4.335938 C 350.972656 3.457031 350.542969 3.027344 349.664062 3.0625 C 349.628906 3.941406 350.054688 4.371094 350.9375 4.335938 Z M 357.855469 8.015625 C 358.027344 8.066406 358.351562 7.664062 358.601562 7.46875 C 358.601562 7.277344 358.601562 7.089844 358.601562 6.894531 C 358.265625 7.015625 357.90625 7.082031 357.617188 7.261719 C 357.285156 7.476562 357.359375 7.859375 357.855469 8.015625 Z M 350.191406 6.730469 C 350.363281 6.78125 350.6875 6.378906 350.9375 6.183594 C 350.9375 5.996094 350.9375 5.808594 350.9375 5.609375 C 350.601562 5.730469 350.242188 5.800781 349.953125 5.980469 C 349.621094 6.191406 349.695312 6.578125 350.191406 6.730469 Z M 353.492188 3.0625 C 352.640625 3.488281 351.792969 3.917969 350.9375 4.335938 C 350.9375 4.765625 350.9375 5.191406 350.9375 5.609375 C 353.023438 6.003906 353.878906 5.148438 353.492188 3.0625 Z M 318.324219 3.078125 C 319.015625 2.960938 319.878906 3.320312 320.128906 2.300781 C 320.152344 2.207031 319.527344 1.957031 319.039062 1.695312 C 318.65625 1.914062 318.058594 2.09375 317.765625 2.496094 C 317.40625 2.976562 317.707031 3.191406 318.324219 3.078125 Z M 348.6875 1.8125 C 347.832031 1.71875 347.011719 1.863281 347.105469 3.0625 C 347.960938 3.0625 348.808594 3.0625 349.664062 3.0625 C 349.808594 2.285156 349.328125 1.882812 348.6875 1.8125 Z M 344.101562 5.363281 C 344.300781 5.328125 344.402344 4.714844 344.546875 4.363281 C 344.597656 3.738281 344.460938 3.183594 343.710938 3.308594 C 343.511719 3.34375 343.339844 3.953125 343.28125 4.320312 C 343.179688 4.925781 343.359375 5.492188 344.101562 5.363281 Z M 364.988281 1.144531 C 364.664062 0.933594 364.347656 0.71875 363.871094 0.402344 C 363.441406 0.625 362.9375 0.882812 362.433594 1.144531 C 362.757812 1.359375 363.097656 1.769531 363.398438 1.746094 C 363.945312 1.683594 364.460938 1.359375 364.988281 1.144531 Z M 358.910156 0.53125 C 358.054688 0.4375 357.230469 0.582031 357.324219 1.777344 C 358.179688 1.777344 359.027344 1.777344 359.882812 1.777344 C 360.019531 1.007812 359.550781 0.605469 358.910156 0.53125 Z M 360.894531 2.632812 C 361.0625 1.875 360.5 1.746094 359.882812 1.789062 C 359.882812 2.214844 359.882812 2.644531 359.882812 3.0625 C 360.234375 2.925781 360.839844 2.839844 360.894531 2.632812 Z M 344.964844 7.929688 C 345.265625 7.859375 345.539062 7.671875 345.820312 7.527344 C 345.675781 7.382812 345.539062 7.246094 345.367188 7.074219 C 345.101562 7.21875 344.820312 7.371094 344.546875 7.527344 C 344.691406 7.671875 344.863281 7.953125 344.964844 7.929688 Z M 395.644531 1.789062 C 395.527344 1.453125 395.457031 1.09375 395.277344 0.804688 C 395.0625 0.46875 394.679688 0.546875 394.523438 1.042969 C 394.472656 1.214844 394.875 1.539062 395.070312 1.789062 C 395.269531 1.789062 395.457031 1.789062 395.644531 1.789062 Z M 472.105469 3.882812 C 471.957031 3.617188 471.804688 3.335938 471.652344 3.0625 C 471.503906 3.207031 471.230469 3.378906 471.25 3.480469 C 471.316406 3.78125 471.503906 4.054688 471.652344 4.335938 C 471.796875 4.199219 471.941406 4.054688 472.105469 3.882812 Z M 569.375 11.359375 C 569.226562 11.214844 569.058594 10.941406 568.953125 10.957031 C 568.65625 11.023438 568.382812 11.214844 568.097656 11.359375 C 568.246094 11.503906 568.382812 11.640625 568.550781 11.8125 C 568.816406 11.667969 569.101562 11.511719 569.375 11.359375 Z M 583.667969 14.976562 C 583.734375 15.277344 583.921875 15.550781 584.066406 15.832031 C 584.214844 15.6875 584.351562 15.550781 584.523438 15.378906 C 584.375 15.113281 584.222656 14.832031 584.066406 14.558594 C 583.921875 14.695312 583.640625 14.875 583.667969 14.976562 Z M 468.222656 6.039062 C 468.246094 5.9375 467.964844 5.757812 467.820312 5.621094 C 467.664062 5.894531 467.511719 6.175781 467.367188 6.441406 C 467.535156 6.613281 467.683594 6.757812 467.820312 6.894531 C 467.964844 6.613281 468.152344 6.339844 468.222656 6.039062 Z M 572.734375 13.027344 C 573.4375 12.726562 573.933594 11.964844 574.53125 11.394531 C 574.15625 11.144531 573.847656 10.792969 573.503906 10.761719 C 572.667969 10.683594 571.878906 10.792969 571.921875 11.984375 C 571.941406 12.589844 572.109375 13.292969 572.734375 13.027344 Z M 440.378906 5.609375 C 440.730469 5.464844 441.347656 5.371094 441.378906 5.167969 C 441.507812 4.421875 440.945312 4.242188 440.335938 4.34375 C 439.96875 4.40625 439.363281 4.574219 439.328125 4.773438 C 439.199219 5.535156 439.753906 5.671875 440.378906 5.609375 Z M 455.449219 3.480469 C 455.476562 3.378906 455.195312 3.207031 455.046875 3.0625 C 454.894531 3.335938 454.742188 3.617188 454.59375 3.882812 C 454.765625 4.054688 454.910156 4.199219 455.046875 4.335938 C 455.1875 4.054688 455.382812 3.78125 455.449219 3.480469 Z M 445.886719 5.378906 C 446.1875 5.3125 446.460938 5.125 446.742188 4.976562 C 446.597656 4.832031 446.460938 4.695312 446.289062 4.523438 C 446.023438 4.671875 445.742188 4.824219 445.46875 4.976562 C 445.605469 5.113281 445.785156 5.398438 445.886719 5.378906 Z M 520.988281 9.433594 C 521.277344 9.160156 522.269531 10.058594 522.082031 8.863281 C 522.039062 8.597656 521.515625 8.203125 521.242188 8.210938 C 520.714844 8.238281 520.199219 8.519531 519.679688 8.699219 C 519.875 9.296875 520.300781 9.535156 520.988281 9.433594 Z M 486.34375 4.976562 C 486.019531 4.765625 485.703125 4.550781 485.226562 4.234375 C 484.796875 4.457031 484.292969 4.714844 483.789062 4.976562 C 484.113281 5.191406 484.457031 5.601562 484.753906 5.578125 C 485.300781 5.507812 485.816406 5.191406 486.34375 4.976562 Z M 504.222656 8.167969 C 504.128906 8.269531 504.121094 8.46875 504.246094 8.722656 C 504.375 8.980469 504.71875 9.152344 504.992188 9.304688 C 505.035156 9.332031 505.25 9.058594 505.394531 8.914062 C 505.199219 8.664062 505.042969 8.3125 504.777344 8.195312 C 504.523438 8.066406 504.324219 8.066406 504.222656 8.167969 C 504.109375 7.835938 504.042969 7.476562 503.863281 7.183594 C 503.648438 6.851562 503.265625 6.929688 503.109375 7.425781 C 503.058594 7.59375 503.460938 7.921875 503.65625 8.167969 C 503.847656 8.167969 504.035156 8.167969 504.222656 8.167969 Z M 544.867188 8.585938 C 544.894531 8.484375 544.613281 8.3125 544.464844 8.167969 C 544.3125 8.441406 544.15625 8.722656 544.011719 8.988281 C 544.183594 9.160156 544.328125 9.304688 544.464844 9.441406 C 544.613281 9.160156 544.800781 8.886719 544.867188 8.585938 Z M 548.75 10.273438 C 548.605469 10.007812 548.453125 9.726562 548.296875 9.453125 C 548.152344 9.597656 547.878906 9.769531 547.894531 9.871094 C 547.964844 10.171875 548.152344 10.445312 548.296875 10.726562 C 548.441406 10.582031 548.582031 10.445312 548.75 10.273438 Z M 488.664062 6.039062 C 488.6875 5.9375 488.40625 5.757812 488.261719 5.621094 C 488.109375 5.894531 487.953125 6.175781 487.808594 6.441406 C 487.980469 6.613281 488.125 6.757812 488.261719 6.894531 C 488.398438 6.613281 488.59375 6.339844 488.664062 6.039062 Z M 395.628906 2.386719 C 395.746094 3.078125 395.390625 3.941406 396.40625 4.191406 C 396.5 4.21875 396.75 3.59375 397.015625 3.105469 C 396.792969 2.71875 396.613281 2.121094 396.210938 1.832031 C 395.730469 1.472656 395.527344 1.769531 395.628906 2.386719 Z M 583.914062 13.035156 C 585.429688 13.421875 587.070312 13.695312 588.746094 12.582031 C 587.183594 11.914062 585.8125 11.214844 584.375 10.769531 C 583.65625 10.546875 582.460938 10.476562 582.28125 11.375 C 582.195312 11.828125 583.230469 12.863281 583.914062 13.035156 Z M 400.769531 3.625 C 400.957031 3.0625 400.769531 2.890625 400.160156 3.054688 C 399.621094 3.199219 399.03125 3.207031 398.527344 3.414062 C 398.132812 3.574219 398.21875 4.019531 398.742188 4.207031 C 399.503906 4.492188 400.246094 4.4375 400.769531 3.625 Z M 408.441406 3.0625 C 408.792969 2.917969 409.40625 2.824219 409.441406 2.617188 C 409.570312 1.875 409.003906 1.695312 408.398438 1.796875 C 408.03125 1.855469 407.421875 2.027344 407.390625 2.222656 C 407.269531 2.976562 407.824219 3.113281 408.441406 3.0625 Z M 401.394531 3.078125 C 402.597656 2.867188 403.394531 3.191406 403.351562 4.679688 C 403.34375 5.0625 403.839844 6.167969 404.378906 5.097656 C 404.976562 3.898438 404.128906 2.136719 405.753906 1.25 C 405.507812 1 405.257812 0.753906 404.847656 0.332031 C 403.523438 1.007812 402.070312 1.625 400.785156 2.480469 C 400.359375 2.78125 400.742188 3.191406 401.394531 3.078125 Z M 388.425781 4.113281 C 388.949219 4.277344 389.53125 4.226562 389.871094 4.25 C 390.683594 3.839844 390.710938 3.457031 390.09375 3.292969 C 389.574219 3.148438 388.949219 3.15625 388.425781 3.292969 C 387.808594 3.457031 387.808594 3.925781 388.425781 4.113281 Z M 541.847656 10.691406 C 541.855469 10.699219 542.214844 10.203125 542.558594 9.757812 C 541.054688 9.742188 539.410156 8.253906 538.726562 10.792969 C 538.675781 10.984375 538.632812 11.273438 538.734375 11.382812 C 540.121094 12.898438 540.523438 9.734375 541.847656 10.691406 Z M 392.910156 3.882812 C 392.761719 3.617188 392.609375 3.335938 392.453125 3.0625 C 392.308594 3.207031 392.035156 3.378906 392.054688 3.480469 C 392.121094 3.78125 392.308594 4.054688 392.453125 4.335938 C 392.589844 4.199219 392.738281 4.054688 392.910156 3.882812 Z M 387.980469 6.253906 C 387.835938 6.105469 387.664062 5.832031 387.5625 5.851562 C 387.261719 5.917969 386.988281 6.105469 386.707031 6.253906 C 386.851562 6.398438 386.988281 6.535156 387.160156 6.707031 C 387.425781 6.558594 387.707031 6.40625 387.980469 6.253906 Z M 435.007812 2.207031 C 435.035156 2.105469 434.75 1.933594 434.605469 1.789062 C 434.453125 2.0625 434.296875 2.34375 434.152344 2.609375 C 434.324219 2.78125 434.46875 2.925781 434.605469 3.0625 C 434.75 2.78125 434.941406 2.507812 435.007812 2.207031 Z M 429.277344 5.378906 C 429.578125 5.3125 429.851562 5.125 430.132812 4.976562 C 429.988281 4.832031 429.851562 4.695312 429.679688 4.523438 C 429.414062 4.671875 429.132812 4.824219 428.859375 4.976562 C 429.003906 5.113281 429.175781 5.398438 429.277344 5.378906 Z M 437.617188 3.882812 C 437.472656 3.617188 437.316406 3.335938 437.164062 3.0625 C 437.019531 3.207031 436.746094 3.378906 436.761719 3.480469 C 436.828125 3.78125 437.019531 4.054688 437.164062 4.335938 C 437.308594 4.199219 437.445312 4.054688 437.617188 3.882812 Z M 428.617188 2.207031 C 428.644531 2.105469 428.363281 1.933594 428.214844 1.789062 C 428.0625 2.0625 427.910156 2.34375 427.761719 2.609375 C 427.933594 2.78125 428.078125 2.925781 428.214844 3.0625 C 428.363281 2.78125 428.550781 2.507812 428.617188 2.207031 Z M 414.171875 5.621094 C 414.324219 5.347656 414.480469 5.0625 414.625 4.796875 C 414.453125 4.628906 414.308594 4.480469 414.171875 4.34375 C 414.027344 4.628906 413.839844 4.902344 413.769531 5.199219 C 413.746094 5.304688 414.027344 5.472656 414.171875 5.621094 Z M 417.953125 4.292969 C 418.140625 4.277344 418.292969 3.789062 418.449219 3.53125 C 418.019531 2.789062 417.328125 3.0625 416.761719 3.097656 C 416.585938 3.105469 416.242188 3.703125 416.320312 3.882812 C 416.652344 4.617188 417.386719 4.335938 417.953125 4.292969 Z M 709.90625 37.097656 C 709.8125 37.371094 709.890625 37.507812 710.078125 37.539062 C 710.136719 37.34375 710.171875 37.207031 710.265625 36.960938 C 710.136719 36.984375 710.027344 37.042969 709.90625 37.097656 Z M 675.339844 27.703125 C 675.351562 27.703125 675.351562 27.703125 675.339844 27.703125 C 675.273438 27.558594 675.257812 27.464844 675.203125 27.34375 C 674.828125 27.355469 674.28125 27.046875 674.167969 27.609375 C 674.539062 27.808594 674.929688 27.910156 675.339844 27.703125 Z M 717.699219 34.976562 C 718.007812 35.136719 718.375 35.292969 718.800781 35.445312 C 718.691406 35.292969 718.578125 35.136719 718.476562 34.984375 C 718.175781 34.976562 717.851562 34.941406 717.699219 34.976562 Z M 662.632812 22.222656 C 662.613281 22.230469 662.605469 22.230469 662.589844 22.238281 C 662.605469 22.324219 662.605469 22.417969 662.632812 22.503906 C 662.632812 22.597656 662.632812 22.410156 662.632812 22.222656 Z M 660.921875 17.371094 C 660.160156 17.199219 660.03125 17.765625 660.074219 18.382812 C 660.5 18.382812 660.929688 18.382812 661.347656 18.382812 C 661.210938 18.03125 661.125 17.421875 660.921875 17.371094 Z M 612.808594 20.9375 C 612.808594 20.511719 612.808594 20.082031 612.808594 19.664062 C 612.378906 19.664062 611.953125 19.664062 611.535156 19.664062 C 611.535156 20.09375 611.535156 20.519531 611.535156 20.9375 C 611.960938 20.9375 612.378906 20.9375 612.808594 20.9375 Z M 663.90625 28.601562 C 664.332031 28.601562 664.761719 28.601562 665.179688 28.601562 C 665.179688 27.746094 665.179688 26.902344 665.179688 26.046875 C 664.753906 26.046875 664.324219 26.046875 663.90625 26.046875 C 663.90625 26.902344 663.90625 27.753906 663.90625 28.601562 Z M 333.164062 5.738281 C 333.34375 7.859375 335.515625 7.160156 336.394531 6.570312 C 337.585938 5.773438 335.027344 5.429688 335.609375 4.335938 C 334.984375 4.378906 334.421875 4.25 334.601562 3.488281 C 334.652344 3.277344 335.257812 3.199219 335.609375 3.0625 C 335.4375 2.035156 336.902344 1.695312 336.773438 1.144531 C 336.550781 0.238281 335.285156 0.25 334.675781 0.566406 C 333.238281 1.300781 331.167969 1.050781 330.503906 3.0625 C 332.847656 2.539062 332.992188 3.761719 333.164062 5.738281 Z M 644.746094 17.105469 C 644.667969 15.542969 643.523438 15.515625 642.683594 16.082031 C 641.941406 16.585938 640.855469 17.132812 640.914062 18.382812 C 641.769531 18.382812 642.617188 18.382812 643.472656 18.382812 C 643.4375 17.5 643.855469 17.082031 644.746094 17.105469 Z M 287.222656 2.316406 C 287.171875 2.488281 287.574219 2.8125 287.769531 3.0625 C 287.957031 3.0625 288.144531 3.0625 288.34375 3.0625 C 288.222656 2.730469 288.15625 2.371094 287.976562 2.078125 C 287.761719 1.738281 287.375 1.820312 287.222656 2.316406 Z M 184.4375 8.433594 C 183.675781 8.261719 183.546875 8.828125 183.589844 9.441406 C 184.015625 9.441406 184.445312 9.441406 184.863281 9.441406 C 184.726562 9.09375 184.648438 8.484375 184.4375 8.433594 Z M 308.75 4.320312 C 309.128906 4.25 309.742188 4.113281 309.785156 3.910156 C 309.964844 3.121094 309.375 3.027344 308.75 3.054688 C 308.332031 3.070312 307.914062 3.054688 307.503906 3.054688 C 307.503906 3.480469 307.503906 3.910156 307.503906 4.328125 C 307.921875 4.335938 308.347656 4.394531 308.75 4.320312 Z M 632.8125 19.929688 C 632.054688 19.757812 631.925781 20.324219 631.96875 20.9375 C 632.394531 20.9375 632.824219 20.9375 633.242188 20.9375 C 633.105469 20.589844 633.027344 19.980469 632.8125 19.929688 Z M 617.941406 16.386719 C 618.066406 16.644531 618.410156 16.816406 618.683594 16.96875 C 618.734375 16.996094 618.941406 16.722656 619.085938 16.578125 C 618.890625 16.328125 618.734375 15.984375 618.46875 15.859375 C 618.203125 15.730469 618.007812 15.730469 617.914062 15.832031 C 618.050781 15.0625 617.582031 14.660156 616.949219 14.582031 C 616.09375 14.488281 615.269531 14.636719 615.367188 15.832031 C 616.210938 15.832031 617.066406 15.832031 617.914062 15.832031 C 617.8125 15.933594 617.8125 16.132812 617.941406 16.386719 Z M 293.183594 9.015625 C 293.355469 8.253906 292.789062 8.125 292.175781 8.167969 C 292.175781 8.597656 292.175781 9.023438 292.175781 9.441406 C 292.527344 9.304688 293.140625 9.230469 293.183594 9.015625 Z M 298.5625 8.167969 C 298.554688 8.152344 298.554688 8.144531 298.546875 8.125 C 298.460938 8.144531 298.367188 8.167969 298.28125 8.167969 C 298.179688 8.167969 298.375 8.167969 298.5625 8.167969 Z M 409.699219 20.929688 C 409.691406 20.9375 409.691406 20.9375 409.699219 20.929688 C 409.691406 20.9375 409.699219 20.9375 409.699219 20.929688 C 409.699219 20.9375 409.699219 20.9375 409.699219 20.929688 Z M 629.351562 25.085938 C 629.367188 25.085938 629.382812 25.09375 629.402344 25.09375 C 629.382812 25.085938 629.367188 25.085938 629.351562 25.085938 Z M 455.699219 21.8125 C 455.605469 22.160156 455.757812 22.316406 456.109375 22.214844 C 456.09375 22.015625 456.050781 21.863281 456.058594 21.640625 C 455.894531 21.683594 455.828125 21.75 455.699219 21.8125 Z M 293.464844 28.578125 C 293.535156 28.953125 293.671875 29.570312 293.875 29.613281 C 294.664062 29.792969 294.757812 29.203125 294.730469 28.578125 C 294.714844 28.15625 294.730469 27.738281 294.730469 27.328125 C 294.304688 27.328125 293.875 27.328125 293.457031 27.328125 C 293.449219 27.746094 293.398438 28.175781 293.464844 28.578125 Z M 713.730469 32.425781 C 713.722656 32.433594 713.722656 32.433594 713.730469 32.425781 C 713.722656 32.433594 713.722656 32.433594 713.730469 32.425781 C 713.730469 32.433594 713.730469 32.433594 713.730469 32.425781 Z M 753.324219 31.800781 C 753.597656 31.957031 753.878906 32.109375 754.144531 32.253906 C 754.316406 32.082031 754.460938 31.9375 754.597656 31.800781 C 754.316406 31.65625 754.042969 31.46875 753.742188 31.398438 C 753.640625 31.375 753.46875 31.65625 753.324219 31.800781 Z M 801.761719 49.78125 C 801.617188 49.925781 801.402344 50.199219 801.359375 50.175781 C 801.085938 50.027344 800.742188 49.859375 800.613281 49.601562 C 800.488281 49.335938 800.488281 49.148438 800.589844 49.046875 C 799.792969 48.910156 799.390625 49.386719 799.347656 50.054688 C 799.28125 50.996094 798.957031 52.003906 797.980469 51.550781 C 793.941406 49.644531 789.265625 50.355469 785.3125 48.378906 C 783.839844 47.640625 782.652344 47.324219 781.402344 48.480469 C 780.992188 48.867188 780.660156 49.113281 780.503906 48.738281 C 779.453125 46.09375 776.375 47.136719 774.828125 45.582031 C 773.226562 43.972656 772.226562 43.074219 772.472656 46.410156 C 772.542969 47.285156 772.355469 48.121094 771.207031 47.136719 C 770.140625 46.230469 768.488281 46.265625 767.675781 44.898438 C 767.214844 44.117188 766.476562 43.878906 765.539062 43.921875 C 764.050781 43.988281 762.84375 43.980469 764.613281 45.734375 C 764.886719 46 764.808594 47.042969 764.511719 47.378906 C 763.808594 48.148438 763.535156 47.085938 763.238281 46.777344 C 761.988281 45.503906 760.867188 44.265625 759.191406 46.308594 C 758.917969 46.640625 757.832031 46.222656 757.429688 46.539062 C 755.410156 48.15625 756.828125 42.039062 753.878906 45.078125 C 752.828125 46.152344 750.953125 44.785156 749.578125 43.554688 C 748.40625 42.511719 746.265625 40.894531 745.625 44.445312 C 745.453125 45.402344 744.136719 45.617188 743.648438 45.023438 C 740.980469 41.808594 736.679688 43.632812 733.582031 41.578125 C 732.085938 40.585938 730.1875 42.363281 729.433594 43.210938 C 727.378906 45.503906 725.480469 42.144531 723.53125 43.578125 C 722.726562 44.167969 722.078125 42.585938 721.425781 41.9375 C 721.027344 41.535156 721.957031 40.117188 720.46875 40.5 C 720.1875 40.570312 720.238281 41.613281 719.980469 42.144531 C 719.648438 42.84375 718.871094 42.511719 718.324219 42.707031 C 716.945312 43.195312 715.679688 40.40625 714.3125 42.621094 C 713.351562 40.757812 710.726562 40.832031 709.914062 38.832031 C 709.804688 38.558594 709.898438 38.140625 710.078125 37.566406 C 710.1875 37.582031 710.273438 37.636719 710.453125 37.550781 C 710.710938 37.421875 710.882812 37.078125 711.035156 36.804688 C 711.0625 36.753906 710.785156 36.546875 710.265625 36.984375 C 710.394531 36.601562 710.042969 36.753906 709.914062 37.011719 C 709.890625 37.0625 709.921875 37.078125 709.90625 37.121094 C 708.453125 37.761719 707.75 40.183594 706.167969 38.328125 C 705.792969 37.882812 704.988281 37.320312 704.886719 38.175781 C 704.464844 41.742188 702.363281 40.210938 700.960938 39.371094 C 699.703125 38.628906 698.203125 38.480469 697.402344 38.945312 C 695.03125 40.304688 693.175781 39.851562 690.679688 39.0625 C 688.640625 38.414062 686.195312 38.292969 684.5625 36.949219 C 683.140625 35.789062 680.988281 37.265625 680.125 35.257812 C 678.773438 35.96875 677.394531 37.242188 676.144531 35.113281 C 675.546875 35.640625 674.972656 36.222656 674.332031 36.695312 C 673.964844 36.96875 673.546875 38.089844 673.023438 37.042969 C 671.65625 34.300781 669.644531 36.292969 667.996094 36.351562 C 665.855469 36.429688 664.667969 36.070312 665.15625 33.605469 C 665.214844 33.296875 664.828125 32.914062 664.660156 32.554688 C 664.410156 32.800781 663.929688 33.074219 663.949219 33.296875 C 664.128906 35.453125 662.410156 35.34375 661.449219 34.90625 C 659.664062 34.09375 657.679688 34.726562 655.96875 33.742188 C 655.121094 33.253906 653.640625 31.195312 653.539062 34.417969 C 653.511719 35.300781 652.605469 34.589844 652.289062 34.1875 C 651.800781 33.554688 651.136719 33.613281 650.570312 33.734375 C 646.449219 34.632812 645.285156 34.410156 642.207031 31.921875 C 640.734375 30.730469 639.691406 32.417969 638.835938 32.835938 C 636.585938 33.957031 636.226562 34.351562 635.925781 32.75 C 635.363281 29.714844 634.355469 32.589844 633.789062 32.367188 C 631.410156 31.425781 629.699219 32.441406 627.546875 33.332031 C 626.039062 33.949219 622.902344 32.84375 621.710938 31.460938 C 619.539062 28.917969 617.179688 30.253906 615.382812 30.757812 C 613.183594 31.367188 612.859375 31.074219 612.789062 29.066406 C 612.738281 27.652344 613.414062 26.113281 612.019531 24.515625 C 611.472656 25.207031 610.445312 26.328125 610.53125 26.429688 C 613.0625 29.175781 610.328125 30.296875 608.957031 31.835938 C 608.308594 32.554688 607.359375 32.835938 606.820312 32.101562 C 605.125 29.765625 604.007812 32.398438 602.613281 32.433594 C 602.492188 30.816406 601.507812 31.023438 600.449219 31.40625 C 599.96875 31.578125 599.816406 32.683594 599.148438 32.066406 C 598.824219 31.765625 598.695312 30.691406 598.953125 30.441406 C 600.429688 28.988281 600.070312 28.765625 598.171875 28.484375 C 597.207031 28.335938 596.660156 26.34375 596.078125 29.023438 C 595.742188 30.578125 594.28125 32.21875 591.859375 30.183594 C 590.484375 29.03125 587.882812 30.40625 586.136719 28.6875 C 585.667969 28.226562 584.289062 28.515625 583.316406 29.296875 C 581.398438 30.828125 580.84375 29.613281 580.914062 27.738281 C 580.9375 27.105469 580.914062 26.488281 580.296875 26.089844 C 580.152344 26.207031 579.960938 26.308594 579.859375 26.472656 C 579.167969 27.492188 580.289062 28.996094 578.96875 29.859375 C 578.535156 28.199219 575.738281 29.320312 575.675781 26.847656 C 575.652344 25.695312 573.367188 25.867188 573.445312 26.625 C 573.71875 29.363281 570.664062 28.097656 570.238281 29.699219 C 568.945312 26.996094 566.328125 30.9375 564.875 28.628906 C 564.609375 28.210938 563.09375 29.167969 563.378906 27.703125 C 563.429688 27.457031 564.472656 27.457031 565.019531 27.234375 C 565.574219 27.011719 565.660156 26.566406 565.25 26.371094 C 563.480469 25.53125 561.179688 26.816406 559.648438 24.96875 C 559.050781 25.566406 558.40625 26.128906 557.859375 26.773438 C 557.203125 27.550781 556.6875 27.003906 556.699219 26.488281 C 556.714844 25.09375 556.097656 24.488281 554.824219 24.8125 C 553.847656 25.0625 554.292969 26.242188 553.867188 26.867188 C 553.679688 27.140625 553.171875 27.183594 552.8125 27.328125 C 552.675781 26.976562 552.59375 26.363281 552.386719 26.320312 C 551.625 26.148438 551.496094 26.710938 551.539062 27.328125 C 549.425781 27.753906 551.09375 24.589844 548.898438 24.660156 C 547.613281 24.695312 545.886719 22.632812 546.417969 25.949219 C 546.585938 27.0625 545.84375 27.472656 544.902344 27.3125 C 543.277344 27.027344 544.175781 26.378906 544.757812 25.804688 C 544.902344 25.660156 545.148438 25.472656 545.132812 25.34375 C 544.988281 24.351562 545.585938 23.238281 544.628906 22.308594 C 543.125 23.214844 541.566406 24.386719 540.453125 25.429688 C 539.351562 26.464844 539.488281 27.796875 538 25.941406 C 536.714844 24.34375 536.109375 24.695312 536.179688 26.679688 C 536.179688 26.796875 535.449219 27.132812 535.355469 27.046875 C 534.75 26.488281 533.773438 25.875 533.730469 25.222656 C 533.457031 21.074219 531.765625 25.984375 531.105469 24.769531 C 530.941406 23.992188 531.59375 22.847656 530.652344 22.496094 C 529.78125 22.171875 527.882812 22.230469 527.820312 22.460938 C 527.015625 25.746094 524.375 25.386719 522.65625 24.402344 C 520.558594 23.195312 518.773438 24.199219 517.027344 23.957031 C 514.160156 23.554688 511.21875 24 508.4375 23.144531 C 507.847656 22.964844 507.335938 21.5625 506.882812 23.144531 C 506.753906 23.597656 507.105469 24.394531 507.488281 24.71875 C 507.953125 25.105469 509.398438 24.335938 509.070312 25.625 C 508.839844 26.53125 507.59375 25.96875 506.804688 26.027344 C 506.464844 26.054688 505.777344 25.738281 505.777344 25.601562 C 506.042969 20.425781 502.152344 22.683594 499.792969 22.230469 C 499.585938 22.1875 499.371094 22.222656 499.160156 22.222656 C 498.558594 21.125 501.089844 20.9375 499.953125 19.914062 C 499.011719 19.074219 498.132812 19.957031 497.457031 20.734375 C 497.082031 21.167969 496.414062 21.453125 496.601562 22.222656 C 494.683594 23.316406 494.683594 23.316406 492.769531 22.222656 C 492.632812 21.871094 492.546875 21.253906 492.339844 21.210938 C 491.582031 21.042969 491.453125 21.605469 491.496094 22.222656 C 490.304688 22.015625 488.921875 22.769531 487.917969 21.800781 C 485.78125 19.734375 485.414062 21.210938 484.824219 23.058594 C 484.53125 23.984375 483.328125 23.34375 482.554688 23.496094 C 480.75 21.726562 478.765625 20.851562 476.328125 22.214844 C 476.183594 22.289062 472.601562 22.1875 472.351562 22.230469 C 470.597656 22.503906 469.101562 20.84375 467.03125 22.09375 C 465.246094 23.171875 462.660156 22.015625 460.941406 21.382812 C 457.929688 20.273438 458.28125 21.71875 458.289062 23.511719 C 458.289062 23.933594 458.289062 24.351562 458.289062 24.769531 C 457.050781 24.496094 456.28125 23.746094 456.160156 22.203125 C 456.210938 22.1875 456.230469 22.230469 456.296875 22.195312 C 456.554688 22.066406 456.726562 21.726562 456.878906 21.453125 C 456.90625 21.402344 456.632812 21.195312 456.117188 21.632812 C 456.246094 21.246094 455.894531 21.402344 455.765625 21.65625 C 455.734375 21.726562 455.777344 21.742188 455.757812 21.800781 C 454.628906 22.316406 454.648438 23.085938 454.40625 23.785156 C 454.167969 24.496094 453.449219 25.054688 452.925781 25.660156 C 452.816406 25.796875 452.515625 25.976562 452.507812 25.96875 C 450.445312 23.566406 450.128906 26.679688 448.949219 27.054688 C 448.71875 27.121094 448.113281 26.773438 448.121094 26.6875 C 448.359375 25.128906 446.597656 24.164062 447.015625 22.214844 C 447.121094 22.222656 447.195312 22.273438 447.367188 22.195312 C 447.625 22.066406 447.796875 21.726562 447.949219 21.453125 C 447.976562 21.402344 447.703125 21.195312 447.1875 21.632812 C 447.316406 21.246094 446.964844 21.402344 446.835938 21.65625 C 446.804688 21.71875 446.847656 21.734375 446.828125 21.785156 C 444.425781 22.769531 446.511719 25.335938 444.886719 26.089844 C 444.375 26.328125 443.921875 27.226562 443.554688 27.15625 C 442.878906 27.039062 442.996094 26.199219 442.972656 25.582031 C 442.9375 24.847656 443.289062 23.746094 442.226562 23.675781 C 441.609375 23.632812 441.917969 25.070312 441.671875 25.191406 C 439.960938 26.027344 438.539062 27.722656 436.351562 27.292969 C 435.992188 27.226562 435.476562 26.976562 435.382812 26.6875 C 435.171875 26.070312 437.90625 25.523438 435.546875 24.8125 C 434.09375 24.378906 434.238281 26.507812 433.949219 26.59375 C 432.527344 26.984375 430.78125 26.199219 430.355469 25.121094 C 429.824219 23.785156 429.21875 22.863281 427.644531 22.375 C 428.035156 22.214844 428.089844 21.109375 428.414062 20.683594 C 429.3125 19.519531 427.953125 19.691406 427.402344 19.691406 C 426.523438 19.699219 425.265625 19.183594 425.113281 20.757812 C 425.019531 21.691406 425.410156 22.273438 427.164062 22.214844 C 424.855469 24.242188 424.839844 24.308594 422.417969 23.914062 C 422.03125 23.855469 421.628906 23.351562 421.535156 23.898438 C 420.910156 27.414062 419.140625 26.40625 417.140625 25.148438 C 416.105469 24.496094 415.960938 25.855469 415.371094 26.234375 C 413.429688 27.480469 413.4375 27.542969 411.015625 25.34375 C 410.304688 24.695312 409.554688 24.445312 408.84375 25.097656 C 406.457031 27.257812 404.300781 25.875 401.828125 24.769531 C 401.734375 24.769531 401.921875 24.769531 402.113281 24.769531 C 401.992188 24.4375 401.921875 24.078125 401.742188 23.785156 C 401.53125 23.453125 401.144531 23.53125 400.992188 24.027344 C 400.941406 24.199219 401.34375 24.523438 401.828125 24.769531 C 402.113281 24.984375 402.207031 25.308594 402.101562 25.386719 C 399.675781 27.277344 396.21875 24.523438 393.953125 27.183594 C 392.96875 25.34375 390.753906 26.722656 389.648438 25.625 C 387.964844 23.957031 386.03125 25.105469 384.253906 24.789062 C 383.046875 24.574219 383.046875 25.507812 382.925781 26.378906 C 382.839844 27.039062 381.953125 27.714844 381.675781 27.277344 C 380.472656 25.308594 376.914062 27.585938 376.503906 24.25 C 376.390625 23.324219 375.015625 23.101562 374.535156 23.71875 C 373.679688 24.8125 372.261719 24.53125 371.378906 25.445312 C 370.386719 26.480469 368.847656 26.480469 368.019531 25.675781 C 366.316406 24.019531 364.304688 24.625 362.65625 24.890625 C 359.753906 25.359375 357 26.5 354.128906 24.8125 C 353.699219 24.566406 353 24.726562 352.417969 25.234375 C 351.125 26.351562 348.363281 26.4375 347.234375 25.394531 C 346.8125 25.011719 347.710938 23.640625 346.308594 23.8125 C 346.09375 23.839844 346 24.882812 345.855469 25.464844 C 344.503906 25.078125 343.253906 25.386719 342.066406 26.054688 C 342.03125 24.632812 342.359375 22.648438 339.917969 23.804688 C 337.722656 24.839844 333.871094 26.046875 331.085938 26.054688 C 328.328125 26.0625 325.429688 25.53125 322.847656 26.199219 C 320.074219 26.910156 317.578125 28.320312 314.832031 26.335938 C 314.703125 26.242188 313.996094 26.59375 314.003906 26.703125 C 314.105469 27.96875 313.761719 28.832031 312.308594 28.585938 C 311.207031 28.398438 311.609375 27.300781 311.292969 26.636719 C 310.855469 25.730469 310.308594 26.34375 310.164062 26.902344 C 309.921875 27.796875 310.101562 29.527344 308.683594 27.714844 C 307.460938 26.140625 306.003906 25.875 304.253906 26.046875 C 303.6875 26.097656 297.640625 27.746094 297.246094 28.097656 C 295.980469 29.21875 295.886719 26.710938 294.800781 27.335938 C 294.664062 26.984375 294.578125 26.371094 294.371094 26.328125 C 293.613281 26.15625 293.484375 26.722656 293.527344 27.335938 C 292.140625 27.148438 290.53125 27.917969 289.4375 26.4375 C 289.113281 25.992188 288.582031 26.019531 288.574219 26.585938 C 288.503906 29.570312 285.898438 27.257812 284.640625 28.441406 C 283.648438 29.371094 281.125 28.390625 279.558594 29.851562 C 279.105469 30.269531 278.445312 29.65625 278.191406 29.023438 C 277.976562 28.472656 277.78125 27.917969 277.574219 27.363281 C 276.984375 27.738281 276.933594 28.3125 276.871094 28.945312 C 276.847656 29.261719 276.453125 29.542969 276.222656 29.84375 C 274.015625 26.910156 273.375 31.851562 272.246094 30.816406 C 269.628906 28.421875 265.96875 31.511719 263.460938 28.730469 C 262.699219 27.882812 261.65625 29.203125 260.902344 29.910156 C 260.320312 30.457031 259.917969 31.1875 258.886719 31.203125 C 257.25 31.226562 257.191406 28.140625 255.15625 29.347656 C 254.113281 29.960938 253.445312 32 251.972656 29.894531 C 249.261719 32.050781 245.867188 29.277344 243.128906 31.117188 C 241.785156 32.015625 240.519531 29.363281 240.210938 30.40625 C 239.554688 32.621094 239.058594 32.675781 237.808594 31.007812 C 236.988281 29.910156 236.457031 30.109375 235.492188 30.964844 C 234.738281 31.621094 233.515625 31.929688 232.464844 32.015625 C 231.335938 32.109375 231.308594 28.671875 229.324219 30.878906 C 227.988281 32.367188 226.84375 28.980469 225.203125 30.894531 C 224.550781 31.648438 222.40625 31.144531 220.941406 31.152344 C 219.949219 31.160156 219.402344 31.484375 219.402344 32.578125 C 219.402344 32.929688 219.070312 33.28125 218.878906 33.625 C 215.433594 30.390625 213.089844 33.855469 210.285156 34.921875 C 209.171875 35.351562 208.070312 35.164062 207.761719 33.203125 C 207.566406 32 205.863281 31.765625 205.382812 33.710938 C 205.484375 33.613281 205.675781 33.605469 205.9375 33.734375 C 206.195312 33.863281 206.351562 34.214844 206.554688 34.453125 C 206.410156 34.597656 206.195312 34.871094 206.152344 34.847656 C 205.878906 34.691406 205.527344 34.53125 205.410156 34.265625 C 205.28125 34 205.28125 33.804688 205.375 33.699219 C 202.765625 32.605469 200.21875 33.066406 197.539062 33.632812 C 194.726562 34.222656 191.621094 32.949219 188.933594 34.324219 C 187.839844 34.878906 187.703125 34.300781 187.070312 33.984375 C 186.070312 33.476562 185.027344 33.390625 184.941406 35.007812 C 184.871094 36.179688 184.359375 36.558594 183.605469 35.53125 C 181.964844 33.316406 180.484375 33.667969 179.910156 36.050781 C 179.191406 39.039062 178.335938 36.394531 177.703125 36.222656 C 175.453125 35.625 176.566406 38.824219 175.171875 38.507812 C 174.078125 38.257812 173.667969 36.515625 172.308594 36.292969 C 171.964844 36.230469 171.265625 36.4375 171.230469 36.617188 C 170.664062 39.457031 169.542969 39.457031 167.613281 37.601562 C 167.046875 37.054688 166.113281 37.78125 165.480469 38.4375 C 164.804688 39.140625 164.0625 38.953125 163.328125 38.3125 C 160.023438 35.417969 159.84375 35.453125 156.835938 38.824219 C 155.226562 38.746094 153.488281 39.304688 152.300781 37.515625 C 150.964844 35.515625 149.625 36.113281 148.359375 37.695312 C 147.84375 38.328125 147.144531 39.25 146.332031 38.765625 C 144.492188 37.679688 142.804688 36.496094 140.984375 38.695312 C 139.402344 36.710938 137.949219 39.621094 136.109375 38.816406 C 136.015625 38.816406 136.203125 38.816406 136.390625 38.816406 C 136.273438 38.480469 136.203125 38.121094 136.023438 37.832031 C 135.808594 37.5 135.425781 37.574219 135.269531 38.070312 C 135.21875 38.242188 135.621094 38.566406 136.109375 38.816406 C 136.484375 39.996094 135.339844 40.457031 134.886719 40.03125 C 132.882812 38.121094 132.980469 40.558594 132.054688 41.011719 C 130.882812 41.585938 131.875 38.175781 129.695312 38.824219 C 129.078125 39.003906 128.597656 39.328125 128.734375 40.089844 C 128.839844 39.996094 129.035156 39.988281 129.292969 40.117188 C 129.550781 40.242188 129.703125 40.59375 129.90625 40.832031 C 129.761719 40.980469 129.550781 41.253906 129.507812 41.226562 C 129.230469 41.074219 128.882812 40.910156 128.761719 40.644531 C 128.632812 40.378906 128.632812 40.191406 128.734375 40.089844 C 127.710938 40.613281 127.410156 38.027344 125.75 39.679688 C 124.125 41.296875 121.527344 38.449219 119.351562 40.039062 C 118.824219 40.421875 118.335938 38.363281 117.574219 39.226562 C 116.042969 40.960938 113.84375 39.285156 112.355469 40.535156 C 110.679688 41.9375 108.730469 41.816406 107.214844 40.808594 C 104.554688 39.039062 104.152344 41.226562 103.195312 42.648438 C 103.296875 42.554688 103.488281 42.542969 103.75 42.671875 C 104.007812 42.800781 104.164062 43.152344 104.367188 43.390625 C 104.222656 43.535156 104.007812 43.8125 103.964844 43.785156 C 103.691406 43.632812 103.339844 43.46875 103.222656 43.203125 C 103.09375 42.9375 103.09375 42.742188 103.195312 42.648438 C 101.863281 42.914062 101.1875 39.839844 99.542969 41.867188 C 98.183594 43.554688 97.808594 40.875 96.585938 41.3125 C 95.308594 41.773438 93.828125 40.960938 92.539062 42.3125 C 91.683594 43.210938 90.132812 43.578125 88.835938 43.871094 C 88.160156 44.015625 87.183594 44.222656 87.21875 42.679688 C 88.21875 42.621094 89.261719 42.734375 89.132812 41.253906 C 89.109375 40.910156 88.835938 40.585938 87.464844 41.089844 C 87.613281 40.636719 87.277344 41.011719 86.910156 41.585938 C 85.773438 42.605469 85.464844 43.09375 85.328125 43.65625 C 85.234375 44.042969 85.285156 44.605469 85.046875 44.792969 C 84.128906 45.511719 84.070312 44.539062 84.078125 44.101562 C 84.113281 42.808594 83.019531 41.835938 82.351562 41.757812 C 81.394531 41.648438 79.640625 42.289062 79.417969 42.980469 C 78.800781 44.964844 77.792969 45.476562 75.875 45.257812 C 74.902344 45.144531 73.667969 44.726562 72.867188 45.582031 C 71.480469 47.050781 71.394531 46.164062 71.242188 44.886719 C 71.1875 44.460938 71.121094 43.742188 70.109375 44.375 C 66.734375 46.503906 63.175781 44.597656 59.71875 44.367188 C 58.828125 44.308594 57.265625 43.597656 56.84375 44.015625 C 54.371094 46.453125 50.609375 44.015625 48.265625 46.488281 C 43.664062 45.804688 39.335938 48.824219 34.8125 47.660156 C 32.878906 47.164062 31.550781 49.515625 29.371094 47.898438 C 27.695312 46.648438 25.515625 48.933594 23.640625 48.867188 C 22.398438 48.8125 21.390625 47.257812 21.246094 49.824219 C 21.203125 50.523438 20.203125 50.3125 19.59375 50.320312 C 17.257812 50.335938 14.855469 49.976562 12.605469 50.429688 C 10.613281 50.832031 9.039062 48.710938 7.117188 49.953125 C 6.15625 50.566406 6.15625 49.667969 6.132812 49.199219 C 6.089844 48.191406 5.832031 47.121094 6.882812 46.324219 C 7.875 45.574219 6.824219 45.246094 6.429688 45.257812 C 4.941406 45.28125 4.371094 44.316406 4.96875 43.339844 C 5.320312 42.757812 5.902344 40.527344 7.542969 42.210938 C 8.425781 43.109375 8.441406 41.878906 8.910156 41.765625 C 12.050781 41.066406 15.078125 40.132812 18.40625 39.953125 C 22.964844 39.703125 27.480469 38.414062 32.003906 37.539062 C 32.664062 37.414062 33.03125 36.960938 32.945312 36.199219 C 32.800781 34.898438 32.261719 34.878906 31.542969 35.777344 C 31.054688 36.394531 30.441406 36.242188 29.832031 36.273438 C 27.804688 36.421875 25.914062 36.464844 26.507812 33.445312 C 26.625 32.84375 26.078125 32.296875 25.273438 32.441406 C 26.675781 28.472656 31.183594 29.636719 33.621094 27.378906 C 35.214844 30.167969 36.855469 27.722656 38.300781 27.25 C 39.765625 26.78125 40.652344 25.335938 42.535156 27.105469 C 43.902344 28.390625 45.484375 25.042969 47.632812 25.96875 C 48.042969 26.148438 48.574219 24.582031 49.617188 24.777344 C 54.457031 25.71875 58.976562 23.460938 63.765625 23.300781 C 67.664062 23.171875 71.875 22.972656 75.527344 21.066406 C 76.972656 20.3125 78.304688 23.4375 79.535156 20.964844 C 81.230469 21.699219 81.683594 19.140625 83.488281 19.585938 C 85.097656 19.980469 87.089844 19.167969 88.527344 19.785156 C 90.785156 20.75 92.007812 17.074219 94.207031 18.953125 C 95.488281 20.050781 97.507812 16.746094 98.628906 19.578125 C 98.925781 19.339844 99.226562 19.089844 99.535156 18.851562 L 104.144531 17.117188 C 108.96875 17.851562 113.5625 15.933594 118.300781 15.875 C 120.988281 15.839844 123.238281 14.085938 126.085938 14.464844 C 128.667969 14.804688 131.378906 14.984375 133.910156 13.386719 C 134.664062 12.90625 136.355469 12.789062 137.496094 13.710938 C 137.863281 14.011719 138.203125 14.984375 138.828125 14.027344 C 140.539062 11.394531 143.261719 11.691406 145.644531 12.085938 C 149.101562 12.652344 152.0625 10.835938 155.347656 10.65625 C 158.585938 10.476562 162.035156 11.855469 165.121094 9.597656 C 165.4375 9.367188 165.925781 10.46875 167.0625 10.90625 C 167.046875 11.015625 166.996094 11.109375 167.082031 11.289062 C 167.210938 11.546875 167.550781 11.71875 167.824219 11.871094 C 167.875 11.898438 168.082031 11.625 167.644531 11.109375 C 168.03125 11.238281 167.875 10.886719 167.621094 10.761719 C 167.585938 10.742188 167.578125 10.769531 167.550781 10.761719 C 167.183594 9.578125 167.859375 9.410156 168.636719 9.476562 C 170.683594 9.65625 172.898438 9.496094 174.703125 10.265625 C 176.226562 10.921875 176.839844 10.496094 177.789062 9.632812 C 178.679688 8.820312 182.273438 8.808594 183.667969 9.460938 C 183.804688 9.8125 183.886719 10.425781 184.09375 10.46875 C 184.855469 10.640625 184.984375 10.074219 184.941406 9.460938 C 186.222656 9.527344 186.78125 7.535156 188.207031 8.203125 C 191.757812 9.863281 194.898438 8.324219 198.15625 7.152344 C 200.269531 6.398438 201.125 7.953125 201.507812 9.621094 C 201.78125 10.792969 202.613281 11 203.3125 10.683594 C 204.742188 10.03125 203.261719 9.589844 203.046875 9.023438 C 202.644531 7.953125 202.585938 6.773438 204.152344 6.945312 C 207.195312 7.289062 210.421875 5.816406 213.304688 7.800781 C 215.425781 6.0625 218.308594 8.820312 220.324219 6.628906 C 221.730469 5.105469 223.164062 5.347656 224.671875 6.40625 C 224.84375 6.527344 225.03125 6.859375 225.117188 6.824219 C 227.203125 6.089844 229.402344 5.882812 231.515625 5.421875 C 233.480469 4.996094 234.679688 7.527344 236.996094 5.832031 C 238.339844 4.851562 241.214844 4.0625 243.402344 5.621094 C 246.011719 3.351562 248.816406 6.59375 251.179688 5.507812 C 253.769531 4.3125 256.335938 4.59375 258.945312 4.269531 C 260.441406 4.078125 261.332031 5.089844 262.863281 5.738281 C 262.820312 5.851562 262.785156 5.96875 262.886719 6.175781 C 263.015625 6.433594 263.359375 6.601562 263.632812 6.75 C 263.683594 6.773438 263.886719 6.5 263.453125 5.988281 C 263.835938 6.117188 263.683594 5.765625 263.425781 5.636719 C 263.410156 5.628906 263.410156 5.644531 263.390625 5.636719 C 263.058594 4.242188 264.015625 3.507812 264.675781 3.328125 C 265.640625 3.0625 265.085938 4.679688 265.554688 5.046875 C 267.054688 6.21875 269.269531 5.902344 270.441406 4.105469 C 271.023438 3.214844 271.527344 3.191406 272.332031 3.046875 C 274.101562 2.710938 275.835938 6.21875 277.589844 3.070312 C 279.660156 3.308594 281.570312 2.933594 283.417969 1.863281 C 283.9375 1.566406 285.152344 1.378906 285.683594 2.292969 C 286.144531 3.085938 285.90625 3.890625 285.136719 4.429688 C 284.648438 4.773438 284.519531 5.089844 284.9375 5.3125 C 285.273438 5.492188 285.757812 5.714844 286.058594 5.59375 C 287.214844 5.132812 288.207031 4.4375 288.429688 3.070312 C 289.710938 3.15625 290.15625 1.546875 291.671875 1.710938 C 293.613281 1.925781 293.902344 2.265625 292.386719 3.574219 C 292.609375 3.832031 292.808594 4.257812 293.074219 4.3125 C 293.664062 4.421875 294.605469 4.457031 294.671875 3.796875 C 295.046875 0.0859375 297.761719 2.328125 299.386719 1.941406 C 299.8125 1.839844 299.992188 2.523438 299.574219 2.753906 C 299.238281 2.933594 298.8125 2.933594 298.453125 3.078125 C 298.09375 3.226562 297.769531 3.445312 297.425781 3.636719 C 297.699219 3.875 297.972656 4.3125 298.246094 4.3125 C 300.050781 4.3125 301.875 4.695312 303.335938 2.925781 C 304.601562 1.386719 306.253906 0.503906 307.578125 3.070312 C 307.230469 3.207031 306.613281 3.292969 306.570312 3.5 C 306.398438 4.257812 306.964844 4.386719 307.578125 4.34375 C 307.152344 5.199219 306.722656 6.046875 306.304688 6.902344 C 305.5 6.476562 304.714844 5.996094 303.875 5.652344 C 303.601562 5.542969 303.070312 5.707031 302.847656 5.925781 C 302.140625 6.65625 303.234375 6.722656 303.371094 7.160156 C 303.480469 7.5 303.621094 7.84375 303.746094 8.175781 C 303.132812 8.175781 302.113281 8.40625 301.960938 8.144531 C 300.839844 6.203125 299.855469 7.921875 298.625 8.132812 C 298.511719 7.816406 298.445312 7.46875 298.273438 7.195312 C 298.058594 6.859375 297.675781 6.9375 297.519531 7.433594 C 297.46875 7.605469 297.871094 7.929688 298.359375 8.175781 C 298.554688 9.757812 297.367188 9.800781 296.578125 9.1875 C 295.714844 8.511719 295.964844 6.980469 294.816406 6.203125 C 294.066406 5.695312 293.414062 5.363281 292.671875 5.875 C 291.839844 6.457031 292.40625 7.40625 292.25 8.175781 C 291.902344 8.3125 291.285156 8.398438 291.242188 8.605469 C 291.070312 9.367188 291.636719 9.496094 292.25 9.453125 C 292.398438 10.230469 291.917969 10.65625 291.285156 10.699219 C 290.078125 10.792969 288.777344 10.984375 287.992188 9.65625 C 285.375 10.804688 286.53125 5.679688 283.742188 7.097656 C 284.347656 8.671875 284.828125 10.273438 284.589844 12 C 283.003906 11.761719 282.664062 7.277344 279.917969 10.667969 C 279.585938 11.078125 278.257812 10.554688 277.472656 10.761719 C 275.984375 11.152344 275.539062 9.195312 274.210938 9.453125 C 272.871094 9.714844 272.46875 11.324219 271.363281 11.691406 C 270.378906 12.027344 268.976562 12.769531 268.507812 10.707031 C 268.542969 10.707031 268.542969 10.726562 268.574219 10.71875 C 269.277344 10.667969 270.371094 10.957031 270.320312 9.964844 C 270.285156 9.375 269.292969 8.835938 268.351562 9.496094 C 268.113281 8.46875 267.824219 8.929688 268.003906 9.511719 C 268.035156 9.605469 268.011719 9.734375 267.976562 9.871094 C 267.199219 10.625 266.625 10.582031 266.15625 10.742188 C 263.640625 11.605469 261.195312 12.734375 258.636719 10.769531 C 258.371094 10.5625 257.617188 11.230469 257.753906 11.984375 C 257.859375 11.890625 258.054688 11.878906 258.3125 12.007812 C 258.570312 12.136719 258.722656 12.488281 258.925781 12.726562 C 258.78125 12.871094 258.570312 13.148438 258.527344 13.121094 C 258.25 12.96875 257.902344 12.804688 257.78125 12.546875 C 257.652344 12.28125 257.652344 12.085938 257.753906 11.992188 C 257.121094 11.992188 256.242188 11.71875 255.898438 12.035156 C 254.007812 13.761719 252.539062 14.71875 252.667969 10.90625 C 252.71875 9.289062 251.640625 9.433594 250.578125 9.425781 C 248.835938 9.417969 247.867188 10.460938 247.59375 11.984375 C 247.304688 13.566406 246.183594 13.683594 245.457031 12.96875 C 244.003906 11.53125 243.042969 11.839844 241.828125 13.15625 C 241.539062 13.472656 240.589844 13.523438 240.160156 12.890625 C 239.015625 11.179688 238.605469 12.925781 237.902344 13.335938 C 237.390625 13.632812 237.261719 14.054688 237.664062 14.207031 C 238.425781 14.496094 238.332031 16.089844 239.964844 15.292969 C 240.957031 14.816406 242.417969 14.917969 243.695312 14.644531 C 245.515625 14.25 247.492188 14.660156 249.390625 14.515625 C 253.460938 14.207031 257.695312 15.558594 261.597656 13.300781 C 262.074219 13.027344 263.023438 13.007812 263.453125 13.300781 C 268.5 16.757812 273.230469 12.898438 278.078125 12.597656 C 279.652344 12.496094 280.953125 11.589844 282.484375 12.957031 C 283.261719 13.652344 284.484375 13.609375 284.605469 11.992188 C 285.8125 12.230469 287.230469 11.382812 288.222656 12.460938 C 289.464844 13.824219 291.386719 13.703125 292.292969 13.148438 C 295.261719 11.324219 298.375 12.316406 301.402344 11.976562 C 305.476562 11.511719 309.453125 10.085938 313.636719 10.71875 C 315.621094 11.015625 317.679688 10.050781 319.621094 11.734375 C 321.101562 13.019531 322.230469 10.433594 324.070312 10.597656 C 327.867188 10.949219 331.71875 10.699219 335.539062 10.699219 C 336.816406 10.699219 338.089844 10.667969 339.363281 10.707031 C 340.441406 10.742188 340.792969 10.230469 340.835938 9.210938 C 340.851562 8.792969 341.390625 7.59375 341.757812 8.585938 C 343.351562 12.820312 346.738281 9.84375 349.132812 10.667969 C 354.519531 7.910156 360.25 10.023438 365.800781 9.511719 C 367.625 11.554688 369.371094 9.246094 371.15625 9.230469 C 376.519531 9.152344 382.054688 10.734375 387.28125 8.289062 C 388.957031 9.949219 391.128906 9.109375 393.0625 9.476562 C 394.753906 9.800781 395.636719 8.382812 397.003906 8.144531 C 396.910156 8.039062 396.902344 7.84375 397.03125 7.578125 C 397.160156 7.320312 397.511719 7.167969 397.75 6.960938 C 397.894531 7.109375 398.167969 7.320312 398.144531 7.363281 C 397.988281 7.636719 397.828125 7.988281 397.5625 8.109375 C 397.296875 8.238281 397.109375 8.238281 397.003906 8.132812 C 397.152344 8.492188 397.210938 9.074219 397.46875 9.179688 C 400.433594 10.425781 403.367188 8.238281 406.550781 9.261719 C 409.492188 10.222656 412.410156 8.433594 415.136719 7.167969 C 415.761719 6.878906 416.4375 6.65625 416.859375 6.953125 C 418.140625 7.886719 418.816406 10 421.109375 8.175781 C 422.785156 6.851562 423.957031 9.296875 425.609375 9.511719 C 427.011719 9.699219 427.652344 7.722656 428.6875 8.605469 C 429.960938 9.683594 430.816406 9.648438 431.808594 8.433594 C 433.125 6.835938 433.820312 9.683594 435.394531 8.851562 C 436.777344 8.117188 438.636719 9.570312 440.472656 8.238281 C 441.773438 7.296875 443.734375 9.597656 445.777344 8.226562 C 446.804688 7.542969 448.820312 8.511719 450.113281 7.996094 C 451.523438 7.441406 452.335938 10.691406 453.636719 8.304688 C 457.726562 10.589844 462.199219 8.648438 466.382812 9.453125 C 468.929688 9.9375 471.164062 7.535156 473.300781 8.585938 C 475.800781 9.820312 478.238281 9.433594 480.613281 9.28125 C 483.625 9.09375 486.925781 10.726562 489.691406 8.152344 C 489.980469 7.878906 490.851562 7.964844 491.382812 8.5625 C 492.066406 9.332031 492.835938 10.074219 493.703125 10.632812 C 495.371094 11.710938 497.789062 11.359375 499.140625 9.792969 C 499.449219 9.441406 499.117188 8.304688 499.773438 8.238281 C 500.355469 8.175781 500.519531 9.015625 500.46875 9.648438 C 500.296875 11.683594 500.433594 11.804688 502.582031 10.847656 C 504.617188 9.9375 507.351562 10.777344 509.636719 9.425781 C 510.835938 8.714844 511.859375 10.015625 512.902344 10.613281 C 513.398438 10.90625 513.410156 10.761719 514.632812 8.648438 C 515.109375 7.816406 516.511719 7.722656 516.675781 8.460938 C 517.179688 10.691406 518.925781 11.726562 520.34375 13.164062 C 520.988281 11.839844 521.578125 10.597656 522.175781 9.359375 C 524.613281 12.128906 524.613281 12.128906 531.003906 11.410156 C 530.234375 9.792969 528.820312 10.957031 527.753906 10.667969 C 526.792969 10.410156 525.65625 10.992188 524.382812 9.734375 C 528.445312 9.125 532.046875 8.425781 534.613281 12.230469 C 536.230469 14.625 537.390625 11.941406 538.777344 11.914062 C 538.632812 12.703125 539.128906 12.976562 539.753906 13.199219 C 540.90625 13.617188 541.6875 11.625 542.15625 12.257812 C 543.558594 14.128906 544.105469 11.546875 545.054688 11.933594 C 545.953125 12.292969 546.757812 12.933594 547.671875 13.15625 C 548.742188 13.402344 549.597656 11.273438 551.128906 13.078125 C 551.683594 13.726562 553.523438 13.328125 555.390625 13.523438 C 555.398438 13.609375 555.347656 13.652344 555.398438 13.761719 C 555.527344 14.019531 555.867188 14.191406 556.140625 14.34375 C 556.191406 14.371094 556.398438 14.097656 555.960938 13.582031 C 556.191406 13.660156 556.203125 13.566406 556.132812 13.445312 C 558.75 11.289062 559.9375 11.445312 561.71875 14.070312 C 562.007812 14.496094 561.804688 15.710938 562.324219 15.617188 C 563.316406 15.4375 563.035156 14.335938 563.027344 13.558594 C 563.019531 12.90625 563.0625 12.222656 563.703125 11.964844 C 564.480469 11.648438 564.019531 11.933594 564.046875 12.394531 C 564.277344 16.378906 566.910156 13.070312 568.097656 13.832031 C 569.714844 14.867188 571.117188 15.667969 573.1875 14.558594 C 574.652344 13.769531 575.898438 15.011719 576.917969 16.175781 C 577.199219 16.5 577.59375 17.5 578.234375 16.523438 C 580.578125 12.96875 581.734375 16.191406 583.1875 17.398438 C 584.933594 18.84375 585.558594 18.75 585.949219 16.0625 C 586.257812 13.949219 587.523438 14.601562 588.644531 14.480469 C 589.6875 14.378906 590.046875 15.320312 590.601562 15.875 C 592.640625 17.902344 595.121094 18.449219 597.882812 18.328125 C 599.292969 18.269531 600.882812 17.84375 601.867188 19.441406 C 602.972656 18.441406 604.273438 18.320312 605.734375 18.261719 C 609.738281 18.109375 609.949219 17.78125 610.328125 13.496094 C 610.363281 13.105469 610.480469 12.71875 610.574219 12.25 C 611.660156 11.761719 611.859375 12.925781 612.328125 13.359375 C 613.441406 14.394531 611.636719 14.464844 611.609375 15.132812 C 611.558594 16.609375 611.59375 18.097656 611.59375 19.585938 C 610.6875 19.75 609.445312 19.039062 609.0625 20.511719 C 608.96875 20.863281 609.035156 21.375 609.234375 21.65625 C 609.925781 22.640625 610.089844 21.425781 610.523438 21.28125 C 610.882812 21.160156 611.234375 21 611.59375 20.863281 C 611.730469 21.210938 611.816406 21.828125 612.019531 21.871094 C 612.78125 22.042969 612.910156 21.476562 612.867188 20.863281 C 613.21875 20.726562 613.835938 20.640625 613.878906 20.433594 C 614.046875 19.671875 613.484375 19.542969 612.867188 19.585938 C 612.609375 18.542969 615.167969 17.652344 613.046875 16.335938 C 612.894531 16.242188 614.578125 15.917969 615.425781 15.753906 C 616 17.9375 617.648438 18.082031 619.566406 18.441406 C 620.984375 18.707031 622.15625 20.605469 623.578125 18.46875 C 625.628906 19.183594 627.632812 19.734375 628.664062 16.839844 C 629.691406 18.5 629.933594 20.484375 632.035156 20.871094 C 632.171875 21.222656 632.257812 21.835938 632.464844 21.878906 C 633.226562 22.050781 633.351562 21.484375 633.308594 20.871094 C 633.933594 20.871094 634.601562 21.023438 635.15625 20.828125 C 635.824219 20.597656 635.859375 20.039062 635.226562 19.585938 C 634.59375 19.132812 634.824219 18.246094 635.261719 18.390625 C 637.859375 19.238281 636.3125 15.371094 638.449219 15.710938 C 639.195312 15.832031 639.605469 16.097656 639.683594 16.730469 C 639.777344 17.585938 639.792969 18.398438 640.984375 18.304688 C 639.441406 19.828125 640.539062 21.621094 640.351562 23.28125 C 640.128906 25.285156 641.386719 26.703125 641.273438 28.773438 C 643.589844 26.464844 643.507812 26.507812 642.394531 24.128906 C 641.914062 23.109375 642.199219 22.195312 643.703125 22.101562 C 644.796875 22.035156 645.226562 21.085938 643.925781 20.9375 C 639.855469 20.492188 644.796875 18.980469 643.53125 18.304688 C 644.414062 18.339844 644.839844 17.910156 644.804688 17.03125 C 645.609375 16.882812 645.882812 17.390625 646.089844 18.03125 C 646.261719 18.585938 645.925781 20.101562 647.199219 19.039062 C 649.902344 16.789062 652.480469 17.757812 655.070312 19.058594 C 655.515625 19.28125 655.898438 19.648438 655.960938 19.261719 C 656.542969 15.25 658.960938 19.511719 660.140625 18.3125 C 660.277344 18.664062 660.363281 19.28125 660.570312 19.320312 C 661.332031 19.492188 661.460938 18.929688 661.417969 18.3125 C 663.734375 18.878906 662.402344 20.664062 662.648438 22.160156 C 662.332031 22.273438 661.980469 22.339844 661.707031 22.511719 C 661.375 22.726562 661.449219 23.109375 661.945312 23.265625 C 662.117188 23.316406 662.441406 22.914062 662.691406 22.4375 C 665.632812 21.367188 662.621094 18.246094 664.691406 17.089844 C 665.832031 18.382812 664.933594 19.9375 665.273438 21.316406 C 665.417969 21.898438 665.875 22.351562 666.472656 21.570312 C 666.601562 21.402344 672.417969 19.894531 672.613281 19.9375 C 673.09375 20.03125 673.152344 21.332031 673.957031 20.441406 C 675.164062 19.117188 676.976562 18.9375 677.753906 20.144531 C 679.207031 22.410156 676.292969 21.800781 675.519531 22.675781 C 673.734375 24.71875 673.664062 24.710938 671.648438 22.785156 C 671.082031 22.246094 670.628906 22.171875 670.390625 22.871094 C 670.191406 23.445312 670.328125 24.128906 670.355469 24.769531 C 670.390625 25.550781 669.96875 25.875 669.269531 25.976562 C 668.566406 26.078125 668.089844 25.78125 667.796875 25.164062 C 667.550781 24.640625 668.285156 23.273438 666.804688 23.863281 C 666.480469 23.992188 666.574219 25 666.292969 25.507812 C 666.136719 25.769531 665.609375 25.824219 665.238281 25.976562 C 665.101562 25.625 665.019531 25.011719 664.8125 24.96875 C 664.050781 24.796875 663.921875 25.359375 663.964844 25.976562 C 661.742188 24.460938 659.601562 23.796875 657.695312 26.472656 C 657.40625 26.882812 656.875 27.585938 656.414062 26.679688 C 656.105469 26.078125 654.695312 26.105469 655.421875 24.917969 C 655.652344 24.539062 656.882812 23.964844 655.804688 23.683594 C 653.804688 23.152344 652.574219 22.316406 652.316406 20.144531 C 652.238281 19.476562 651.238281 19.40625 650.726562 19.628906 C 649.289062 20.273438 650.65625 20.699219 650.914062 21.253906 C 651.46875 22.488281 652.066406 23.71875 652.410156 25.019531 C 652.554688 25.566406 651.972656 26.121094 651.1875 25.984375 C 651.050781 25.632812 650.964844 25.019531 650.757812 24.976562 C 649.996094 24.804688 649.871094 25.371094 649.914062 25.984375 C 648.648438 25.882812 648.289062 27.070312 648.707031 27.566406 C 649.585938 28.621094 652.136719 29.601562 652.230469 29.167969 C 652.890625 26.171875 653.863281 27.234375 655.566406 28.285156 C 656.6875 28.980469 658.816406 29.167969 659.699219 28.15625 C 661.570312 25.992188 662.5625 28.5 663.957031 28.535156 C 664.09375 28.886719 664.179688 29.5 664.386719 29.542969 C 665.144531 29.714844 665.273438 29.148438 665.230469 28.535156 C 667.148438 29.773438 669.046875 26.207031 670.960938 28.515625 C 671.183594 28.210938 671.5625 27.910156 671.59375 27.585938 C 671.894531 24.429688 672.886719 26.804688 674.222656 27.535156 C 674.203125 27.628906 674.160156 27.6875 674.167969 27.851562 C 674.222656 28.550781 673.921875 29.644531 674.921875 29.59375 C 675.511719 29.5625 676.050781 28.570312 675.394531 27.628906 C 676.417969 27.386719 675.957031 27.097656 675.375 27.277344 C 675.339844 27.285156 675.300781 27.269531 675.257812 27.269531 C 674.511719 25.335938 676.804688 26.371094 677.324219 24.855469 C 677.496094 24.351562 678.15625 22.726562 679.523438 24.230469 C 680.839844 25.6875 681.167969 27.039062 679.796875 28.507812 C 679.421875 28.910156 677.832031 28.046875 678.421875 29.464844 C 678.753906 30.269531 679.566406 31.296875 680.851562 31.082031 C 681.664062 30.945312 684.570312 25.941406 684.238281 25.214844 C 683.902344 24.496094 683.003906 24.96875 682.585938 24.667969 C 681.421875 23.820312 680.148438 22.933594 680.566406 21.136719 C 680.652344 20.75 680.679688 20.332031 680.851562 19.980469 C 681.089844 19.5 681.449219 19.570312 681.730469 20.125 C 683.519531 23.625 685.777344 21.203125 687.863281 20.578125 C 688.222656 20.46875 688.417969 19.871094 688.777344 19.742188 C 689.582031 19.449219 690.515625 19.433594 690.753906 20.46875 C 690.941406 21.273438 690.824219 22.160156 689.582031 22.171875 C 688.675781 22.179688 687.882812 22.351562 688.90625 23.4375 C 689.601562 20.914062 691.523438 27.5 692.183594 22.972656 C 692.363281 21.777344 694.160156 19.964844 695.46875 21.007812 C 697.453125 22.582031 699.375 19.699219 701.222656 21.621094 C 702.78125 23.25 705.390625 21.230469 707.109375 22.605469 C 707.957031 23.28125 708.160156 22.984375 708.980469 22.625 C 710.863281 21.800781 713.035156 21.640625 714.894531 22.734375 C 715.894531 23.324219 716.433594 23.488281 717.578125 22.941406 C 720.171875 21.699219 718.269531 24.222656 718.886719 24.71875 C 716.980469 24.832031 717.800781 26.300781 717.613281 27.277344 C 716.382812 27.507812 715.3125 28.292969 715.421875 29.433594 C 715.5 30.234375 716.851562 29.6875 717.613281 29.835938 C 717.339844 30.3125 717.015625 30.773438 716.816406 31.289062 C 716.339844 32.496094 715.578125 33.792969 717.757812 34.933594 C 717.722656 34.941406 717.671875 34.949219 717.664062 34.964844 C 717.414062 35.660156 717.921875 36.113281 718.503906 36.191406 C 719.015625 36.257812 719.5625 35.984375 718.863281 35.402344 C 719.855469 35.085938 719.417969 34.890625 718.800781 34.941406 C 718.722656 34.949219 718.628906 34.941406 718.535156 34.941406 C 717.628906 33.597656 717.234375 32.390625 719.101562 32.367188 C 720.253906 32.347656 721.523438 32.835938 723.15625 31.417969 C 720.941406 31.167969 719.058594 31.023438 717.613281 29.84375 C 717.613281 28.988281 717.613281 28.140625 717.613281 27.285156 C 719.519531 27.175781 718.699219 25.703125 718.886719 24.726562 C 721.015625 22.933594 723.574219 23.417969 726.003906 23.488281 C 728.40625 23.546875 731.109375 22.613281 732.90625 25.300781 C 733.769531 26.59375 735.574219 26.378906 736.351562 25.910156 C 738.730469 24.453125 740.800781 26.53125 743.015625 26.035156 C 744.070312 25.796875 744.308594 26.53125 744.480469 27.5 C 744.742188 28.988281 745.761719 28.875 746.761719 28.140625 C 748.851562 26.601562 751.054688 27.039062 753.195312 27.851562 C 753.589844 27.996094 756.128906 29.03125 753.152344 29.9375 C 751.066406 30.578125 752.699219 32.914062 752.039062 34.265625 C 751.550781 35.265625 749.816406 35.769531 752.527344 36.351562 C 755.332031 36.960938 758.054688 37.617188 760.953125 37.550781 C 762.328125 37.515625 763.792969 37.042969 765.128906 38.277344 C 765.855469 38.945312 767.417969 37.148438 768.28125 38.789062 C 769.910156 37.378906 771.140625 40.824219 773.105469 39.027344 C 774.492188 37.753906 775.691406 40.457031 777.546875 40.148438 C 780.402344 39.679688 783.261719 40.011719 785.578125 42.210938 C 786.511719 43.09375 786.699219 41.160156 787.339844 41.519531 C 788.050781 41.921875 788.546875 42.699219 789.179688 43.261719 C 789.46875 43.527344 790.09375 43.921875 790.15625 43.863281 C 792.394531 41.476562 794.609375 44.296875 796.773438 43.863281 C 799.246094 43.367188 800.53125 46.625 803.34375 44.804688 C 802.617188 47.027344 800.792969 47.410156 800.65625 48.992188 C 800.761719 48.898438 800.949219 48.890625 801.214844 49.019531 C 801.410156 49.191406 801.5625 49.53125 801.761719 49.78125 Z M 658.484375 23.453125 C 658.988281 23.488281 659.535156 23.078125 660.058594 22.871094 C 659.464844 22.308594 658.886719 21.75 658.261719 21.152344 C 658.054688 21.28125 657.585938 21.425781 657.550781 21.640625 C 657.421875 22.4375 657.363281 23.375 658.484375 23.453125 Z M 288.34375 7.535156 C 288.488281 7.679688 288.625 7.816406 288.796875 7.988281 C 289.0625 7.84375 289.34375 7.691406 289.617188 7.535156 C 289.472656 7.390625 289.300781 7.117188 289.199219 7.132812 C 288.898438 7.203125 288.625 7.390625 288.34375 7.535156 Z M 252.761719 7.347656 C 252.90625 7.613281 253.058594 7.894531 253.214844 8.167969 C 253.359375 8.023438 253.632812 7.851562 253.617188 7.75 C 253.546875 7.449219 253.359375 7.175781 253.214844 6.894531 C 253.070312 7.03125 252.933594 7.175781 252.761719 7.347656 Z M 28.839844 31.980469 C 28.695312 31.714844 28.542969 31.433594 28.386719 31.160156 C 28.242188 31.304688 27.96875 31.476562 27.984375 31.578125 C 28.054688 31.878906 28.242188 32.152344 28.386719 32.433594 C 28.523438 32.296875 28.671875 32.152344 28.839844 31.980469 Z M 39.078125 37.097656 C 38.558594 36.050781 37.925781 35.136719 36.660156 35.019531 C 36.324219 34.984375 35.964844 35.28125 35.617188 35.417969 C 36.070312 36.507812 36.71875 37.402344 37.992188 37.515625 C 38.328125 37.550781 38.695312 37.257812 39.078125 37.097656 Z M 41.800781 35.632812 C 41.652344 35.488281 41.484375 35.214844 41.378906 35.230469 C 41.082031 35.300781 40.808594 35.488281 40.523438 35.632812 C 40.671875 35.777344 40.808594 35.914062 40.976562 36.085938 C 41.242188 35.933594 41.527344 35.777344 41.800781 35.632812 Z M 70.941406 31.578125 C 70.964844 31.476562 70.683594 31.296875 70.539062 31.160156 C 70.386719 31.433594 70.230469 31.714844 70.085938 31.980469 C 70.257812 32.152344 70.402344 32.296875 70.539062 32.433594 C 70.683594 32.152344 70.871094 31.878906 70.941406 31.578125 Z M 112.058594 25.414062 C 111.910156 25.265625 111.742188 24.992188 111.636719 25.011719 C 111.339844 25.078125 111.066406 25.265625 110.78125 25.414062 C 110.929688 25.558594 111.066406 25.695312 111.234375 25.867188 C 111.5 25.71875 111.785156 25.566406 112.058594 25.414062 Z M 116.984375 25.574219 C 116.828125 25.328125 116.675781 24.832031 116.480469 24.8125 C 115.914062 24.769531 115.179688 24.488281 114.84375 25.222656 C 114.769531 25.394531 115.121094 25.992188 115.289062 26.011719 C 115.863281 26.046875 116.554688 26.320312 116.984375 25.574219 Z M 124.835938 24.136719 C 124.691406 23.992188 124.554688 23.855469 124.382812 23.683594 C 124.117188 23.828125 123.835938 23.984375 123.5625 24.136719 C 123.707031 24.28125 123.878906 24.558594 123.980469 24.539062 C 124.269531 24.472656 124.546875 24.273438 124.835938 24.136719 Z M 129.941406 36.90625 C 129.796875 36.761719 129.660156 36.625 129.488281 36.453125 C 129.222656 36.601562 128.941406 36.753906 128.667969 36.90625 C 128.8125 37.054688 128.984375 37.328125 129.085938 37.308594 C 129.386719 37.242188 129.660156 37.042969 129.941406 36.90625 Z M 174.652344 32.417969 C 174.503906 32.066406 174.402344 31.449219 174.207031 31.417969 C 173.453125 31.289062 173.28125 31.851562 173.386719 32.460938 C 173.445312 32.828125 173.617188 33.433594 173.8125 33.46875 C 174.566406 33.589844 174.703125 33.035156 174.652344 32.417969 Z M 178.484375 19.023438 C 178.335938 18.878906 178.199219 18.742188 178.03125 18.570312 C 177.765625 18.714844 177.480469 18.867188 177.207031 19.023438 C 177.355469 19.167969 177.523438 19.441406 177.628906 19.425781 C 177.925781 19.355469 178.199219 19.167969 178.484375 19.023438 Z M 192.253906 17.960938 C 192.433594 16.644531 191.253906 17.183594 190.613281 17.132812 C 190.039062 17.089844 189.082031 16.816406 188.976562 17.535156 C 188.789062 18.859375 189.996094 18.210938 190.59375 18.390625 C 191.203125 18.3125 192.160156 18.679688 192.253906 17.960938 Z M 197.640625 17.75 C 197.316406 17.535156 197 17.320312 196.523438 17.003906 C 196.09375 17.226562 195.589844 17.484375 195.085938 17.75 C 195.410156 17.960938 195.753906 18.371094 196.050781 18.347656 C 196.597656 18.289062 197.121094 17.960938 197.640625 17.75 Z M 214.578125 15.011719 C 211.753906 13.976562 209.179688 15.558594 207.300781 13.496094 C 207.273438 13.472656 205.964844 14.320312 205.621094 14.960938 C 205.210938 15.730469 206.179688 15.585938 206.546875 15.875 C 209.359375 18.117188 211.765625 16.652344 214.578125 15.011719 Z M 217.835938 14.910156 C 217.390625 14.496094 216.980469 14.128906 216.640625 13.738281 C 215.878906 12.882812 215.640625 13.769531 215.570312 14.15625 C 215.417969 14.933594 215.511719 15.816406 216.605469 15.808594 C 216.9375 15.796875 217.296875 15.609375 217.835938 14.910156 Z M 218.09375 14.566406 C 218.308594 14.25 218.546875 13.875 218.820312 13.386719 C 218.574219 13.582031 218.222656 13.738281 218.101562 14 C 217.972656 14.277344 217.984375 14.464844 218.09375 14.566406 Z M 219.222656 13.789062 C 219.238281 13.746094 219.050781 13.660156 218.589844 14.539062 C 218.617188 14.53125 218.617188 14.550781 218.640625 14.539062 C 218.898438 14.402344 219.070312 14.0625 219.222656 13.789062 Z M 220.644531 15.832031 C 220.308594 15.953125 219.949219 16.019531 219.660156 16.199219 C 219.324219 16.414062 219.402344 16.800781 219.898438 16.953125 C 220.070312 17.003906 220.386719 16.601562 220.644531 15.832031 Z M 224.105469 15.320312 C 224.421875 14.617188 223.097656 13.1875 222.515625 12.085938 C 223.355469 13.941406 221.078125 14.222656 220.710938 15.839844 C 221.910156 15.695312 223.609375 16.421875 224.105469 15.320312 Z M 235.910156 14.191406 C 235.894531 13.71875 235.515625 12.925781 234.796875 13.804688 C 234.660156 13.96875 234.5 14.242188 234.355469 14.242188 C 232.933594 14.242188 232.667969 12.359375 231.632812 12.25 C 230.308594 12.113281 231.378906 15.183594 229.023438 14.617188 C 228.109375 14.394531 226.9375 14.191406 224.78125 15.832031 C 229.050781 15.832031 232.191406 15.867188 235.328125 15.765625 C 235.558594 15.753906 235.9375 14.730469 235.910156 14.191406 Z M 237.246094 7.535156 C 237.390625 7.679688 237.527344 7.816406 237.699219 7.988281 C 237.964844 7.84375 238.246094 7.691406 238.519531 7.535156 C 238.375 7.390625 238.203125 7.117188 238.101562 7.132812 C 237.800781 7.203125 237.527344 7.390625 237.246094 7.535156 Z M 270.277344 27.78125 C 270.105469 27.609375 269.960938 27.464844 269.824219 27.328125 C 269.679688 27.609375 269.492188 27.882812 269.421875 28.183594 C 269.398438 28.285156 269.679688 28.464844 269.824219 28.601562 C 269.96875 28.328125 270.125 28.046875 270.277344 27.78125 Z M 390.300781 23.078125 C 390.230469 22.777344 390.042969 22.503906 389.898438 22.222656 C 389.753906 22.367188 389.613281 22.503906 389.445312 22.675781 C 389.589844 22.941406 389.742188 23.222656 389.898438 23.496094 C 390.042969 23.351562 390.324219 23.179688 390.300781 23.078125 Z M 393.085938 17.75 C 392.941406 17.601562 392.769531 17.328125 392.667969 17.347656 C 392.371094 17.414062 392.09375 17.601562 391.8125 17.75 C 391.957031 17.894531 392.09375 18.03125 392.265625 18.203125 C 392.539062 18.054688 392.8125 17.902344 393.085938 17.75 Z M 398.203125 24.136719 C 397.921875 23.992188 397.648438 23.804688 397.347656 23.734375 C 397.246094 23.710938 397.074219 23.992188 396.929688 24.136719 C 397.203125 24.292969 397.484375 24.445312 397.75 24.589844 C 397.921875 24.421875 398.058594 24.273438 398.203125 24.136719 Z M 403.410156 20.785156 C 403.09375 20.3125 402.882812 19.988281 402.667969 19.664062 C 402.453125 20.195312 402.128906 20.707031 402.070312 21.253906 C 402.035156 21.554688 402.453125 21.898438 402.667969 22.222656 C 402.933594 21.71875 403.1875 21.210938 403.410156 20.785156 Z M 409.707031 21.304688 C 409.722656 21.382812 409.671875 21.410156 409.714844 21.503906 C 409.84375 21.761719 410.1875 21.929688 410.460938 22.085938 C 410.511719 22.101562 410.597656 21.886719 409.707031 21.304688 Z M 410.871094 21.683594 C 410.671875 21.433594 410.519531 21.085938 410.253906 20.964844 C 409.988281 20.835938 409.792969 20.835938 409.691406 20.9375 C 409.570312 20.613281 409.511719 20.253906 409.320312 19.964844 C 409.109375 19.628906 408.722656 19.707031 408.570312 20.203125 C 408.535156 20.324219 408.75 20.527344 409.484375 20.949219 C 409.554688 20.949219 409.613281 20.949219 409.679688 20.949219 C 409.664062 20.972656 409.699219 21.03125 409.691406 21.066406 C 410.007812 21.238281 410.390625 21.433594 410.871094 21.683594 Z M 413.289062 18.808594 C 413.316406 18.707031 413.035156 18.527344 412.890625 18.390625 C 412.734375 18.664062 412.582031 18.945312 412.4375 19.210938 C 412.605469 19.382812 412.753906 19.527344 412.890625 19.664062 C 413.035156 19.382812 413.222656 19.109375 413.289062 18.808594 Z M 419.730469 21.769531 C 419.585938 21.503906 419.433594 21.222656 419.277344 20.949219 C 419.132812 21.09375 418.859375 21.265625 418.875 21.367188 C 418.945312 21.664062 419.132812 21.941406 419.277344 22.222656 C 419.421875 22.078125 419.5625 21.941406 419.730469 21.769531 Z M 432.691406 22.195312 C 432.542969 21.84375 432.441406 21.230469 432.246094 21.195312 C 431.5 21.066406 431.320312 21.632812 431.425781 22.238281 C 431.484375 22.605469 431.65625 23.214844 431.851562 23.25 C 432.605469 23.375 432.742188 22.820312 432.691406 22.195312 Z M 452.945312 23.042969 C 452.800781 22.777344 452.644531 22.496094 452.492188 22.222656 C 452.347656 22.367188 452.070312 22.539062 452.089844 22.640625 C 452.15625 22.941406 452.347656 23.214844 452.492188 23.496094 C 452.636719 23.351562 452.773438 23.214844 452.945312 23.042969 Z M 505.503906 20.304688 C 505.359375 20.160156 505.222656 20.023438 505.050781 19.851562 C 504.785156 19.996094 504.503906 20.152344 504.230469 20.304688 C 504.375 20.453125 504.546875 20.726562 504.648438 20.707031 C 504.949219 20.640625 505.222656 20.441406 505.503906 20.304688 Z M 512.988281 21.402344 C 512.820312 21.230469 512.671875 21.085938 512.535156 20.949219 C 512.390625 21.230469 512.203125 21.503906 512.132812 21.800781 C 512.109375 21.90625 512.390625 22.078125 512.535156 22.222656 C 512.679688 21.941406 512.835938 21.664062 512.988281 21.402344 Z M 532.148438 14.105469 C 532.003906 13.839844 531.851562 13.558594 531.695312 13.285156 C 531.550781 13.429688 531.277344 13.601562 531.292969 13.703125 C 531.363281 14 531.550781 14.277344 531.695312 14.558594 C 531.832031 14.414062 531.976562 14.277344 532.148438 14.105469 Z M 550.214844 15.191406 C 550.070312 15.046875 549.898438 14.773438 549.792969 14.789062 C 549.496094 14.855469 549.222656 15.046875 548.941406 15.191406 C 549.085938 15.335938 549.222656 15.472656 549.394531 15.644531 C 549.65625 15.5 549.941406 15.34375 550.214844 15.191406 Z M 559.160156 15.191406 C 559.015625 15.046875 558.878906 14.910156 558.707031 14.738281 C 558.441406 14.882812 558.160156 15.035156 557.886719 15.191406 C 558.03125 15.335938 558.203125 15.609375 558.304688 15.59375 C 558.597656 15.523438 558.871094 15.335938 559.160156 15.191406 Z M 576.789062 23.941406 C 576.753906 23.746094 576.140625 23.640625 575.789062 23.496094 C 575.164062 23.445312 574.609375 23.582031 574.738281 24.324219 C 574.769531 24.523438 575.378906 24.695312 575.746094 24.753906 C 576.351562 24.863281 576.917969 24.683594 576.789062 23.941406 Z M 588.300781 26.472656 C 588.328125 26.371094 588.046875 26.199219 587.898438 26.054688 C 587.746094 26.328125 587.59375 26.609375 587.445312 26.875 C 587.617188 27.046875 587.761719 27.191406 587.898438 27.328125 C 588.046875 27.046875 588.234375 26.773438 588.300781 26.472656 Z M 597.242188 22.640625 C 597.265625 22.539062 596.984375 22.367188 596.839844 22.222656 C 596.683594 22.496094 596.53125 22.777344 596.386719 23.042969 C 596.554688 23.214844 596.703125 23.359375 596.839844 23.496094 C 596.984375 23.214844 597.171875 22.941406 597.242188 22.640625 Z M 606.417969 27.96875 C 606.273438 27.824219 606.101562 27.550781 606 27.566406 C 605.699219 27.636719 605.425781 27.824219 605.144531 27.96875 C 605.289062 28.113281 605.425781 28.25 605.597656 28.421875 C 605.871094 28.269531 606.144531 28.125 606.417969 27.96875 Z M 615.125 26.472656 C 615.152344 26.371094 614.867188 26.199219 614.722656 26.054688 C 614.570312 26.328125 614.414062 26.609375 614.269531 26.875 C 614.441406 27.046875 614.585938 27.191406 614.722656 27.328125 C 614.867188 27.046875 615.058594 26.773438 615.125 26.472656 Z M 616.460938 23.042969 C 616.316406 22.777344 616.160156 22.496094 616.007812 22.222656 C 615.859375 22.367188 615.585938 22.539062 615.605469 22.640625 C 615.671875 22.941406 615.859375 23.214844 616.007812 23.496094 C 616.144531 23.351562 616.289062 23.214844 616.460938 23.042969 Z M 618.8125 22.222656 C 618.941406 22.222656 619.070312 22.222656 619.195312 22.222656 C 619.078125 21.886719 619.007812 21.527344 618.828125 21.238281 C 618.617188 20.90625 618.230469 20.980469 618.078125 21.476562 C 618.042969 21.582031 618.230469 21.777344 618.8125 22.222656 Z M 619.179688 22.898438 C 619.265625 23.574219 618.976562 24.386719 619.949219 24.617188 C 620.035156 24.632812 620.15625 24.136719 619.179688 22.898438 Z M 620.566406 23.53125 C 620.34375 23.144531 620.164062 22.546875 619.761719 22.257812 C 619.375 21.980469 619.171875 22.117188 619.15625 22.488281 C 619.511719 22.761719 619.957031 23.085938 620.566406 23.53125 Z M 621.992188 21.359375 C 622.0625 21.65625 622.25 21.929688 622.394531 22.214844 C 622.542969 22.066406 622.816406 21.898438 622.796875 21.792969 C 622.730469 21.496094 622.542969 21.222656 622.394531 20.9375 C 622.25 21.085938 621.96875 21.253906 621.992188 21.359375 Z M 623.027344 25.414062 C 622.746094 25.265625 622.472656 25.078125 622.171875 25.011719 C 622.070312 24.984375 621.898438 25.265625 621.753906 25.414062 C 622.027344 25.566406 622.3125 25.71875 622.574219 25.867188 C 622.746094 25.695312 622.882812 25.558594 623.027344 25.414062 Z M 635.757812 25.753906 C 635.441406 24.738281 634.40625 23.34375 633.4375 23.640625 C 631.949219 24.09375 630.746094 24.703125 629.417969 23.503906 C 629.417969 23.984375 629.308594 24.710938 629.351562 25.085938 C 628.800781 24.941406 628.289062 24.796875 627.640625 24.625 C 627.9375 24.335938 629.382812 23.488281 629.273438 22.921875 C 629.058594 21.785156 627.628906 22.257812 626.691406 22.246094 C 625.5625 22.230469 625.476562 23.128906 625.621094 23.914062 C 625.699219 24.324219 626.023438 24.652344 629.359375 25.09375 C 629.375 25.207031 629.402344 25.292969 629.453125 25.316406 C 631.214844 26.097656 633.046875 26.773438 634.910156 27.277344 C 635.390625 27.40625 635.78125 26.832031 629.410156 25.105469 C 630.871094 25.285156 632.867188 25.496094 635.757812 25.753906 Z M 638.460938 23.648438 C 638.238281 23.222656 637.980469 22.71875 637.714844 22.214844 C 637.5 22.539062 637.089844 22.878906 637.117188 23.179688 C 637.175781 23.726562 637.5 24.242188 637.714844 24.769531 C 637.929688 24.453125 638.144531 24.128906 638.460938 23.648438 Z M 648.535156 24.085938 C 648.570312 23.523438 648.84375 22.828125 648.097656 22.402344 C 647.851562 22.554688 647.355469 22.710938 647.335938 22.898438 C 647.296875 23.460938 647.011719 24.199219 647.75 24.53125 C 647.929688 24.617188 648.527344 24.265625 648.535156 24.085938 Z M 667.738281 31.800781 C 667.59375 31.65625 667.457031 31.519531 667.285156 31.347656 C 667.019531 31.492188 666.738281 31.648438 666.464844 31.800781 C 666.609375 31.945312 666.78125 32.21875 666.882812 32.203125 C 667.183594 32.125 667.457031 31.9375 667.738281 31.800781 Z M 694.550781 29.5625 C 694.390625 28.429688 693.449219 28.695312 692.652344 28.585938 C 691.113281 28.355469 690.53125 29.585938 688.675781 31.167969 C 690.703125 31.167969 691.695312 31.109375 692.679688 31.1875 C 693.902344 31.269531 694.757812 30.988281 694.550781 29.5625 Z M 707.296875 28.234375 C 707.332031 27.988281 706.871094 27.671875 706.636719 27.386719 C 706.449219 27.730469 706.296875 28.105469 706.058594 28.40625 C 704.320312 30.542969 703.800781 30.476562 702.214844 28.140625 C 701.695312 27.371094 700.96875 26.738281 700.164062 25.855469 C 699.101562 28.535156 700 29.878906 701.96875 31.246094 C 703.542969 32.339844 705.492188 30.773438 706.742188 32.410156 C 707.988281 31.167969 707.117188 29.621094 707.296875 28.234375 Z M 710.660156 32.382812 C 709.914062 32.195312 709.078125 31.980469 708.007812 31.734375 C 709 32.203125 709.863281 32.332031 710.660156 32.382812 Z M 711.8125 24.769531 C 711.957031 24.625 712.234375 24.453125 712.214844 24.351562 C 712.148438 24.050781 711.957031 23.777344 711.8125 23.496094 C 711.667969 23.640625 711.394531 23.8125 711.410156 23.914062 C 711.480469 24.214844 711.667969 24.488281 711.8125 24.769531 Z M 714.5 33.570312 C 714.515625 33.582031 714.550781 33.546875 714.226562 33.417969 C 714.3125 33.46875 714.40625 33.53125 714.5 33.570312 Z M 714.902344 33.179688 C 714.703125 32.929688 714.550781 32.578125 714.285156 32.460938 C 714.019531 32.332031 713.824219 32.332031 713.730469 32.433594 C 713.566406 31.226562 714.113281 29.9375 713.105469 28.527344 C 712.078125 29.824219 710.914062 30.902344 713.4375 32.425781 C 713.53125 32.433594 713.625 32.425781 713.722656 32.433594 C 713.695312 32.460938 713.738281 32.546875 713.730469 32.589844 C 714.070312 32.777344 714.429688 32.972656 714.902344 33.179688 Z M 724.179688 27.746094 C 724.25 28.046875 724.4375 28.320312 724.582031 28.601562 C 724.730469 28.457031 725.003906 28.285156 724.984375 28.183594 C 724.917969 27.882812 724.730469 27.609375 724.582031 27.328125 C 724.4375 27.472656 724.164062 27.644531 724.179688 27.746094 Z M 725.328125 32.28125 C 725.011719 31.808594 724.796875 31.484375 724.582031 31.160156 C 724.371094 31.691406 724.042969 32.203125 723.984375 32.75 C 723.949219 33.050781 724.371094 33.390625 724.582031 33.71875 C 724.839844 33.210938 725.105469 32.707031 725.328125 32.28125 Z M 736.472656 32.855469 C 734.984375 33.417969 733.1875 31.195312 731.792969 33.433594 C 733.417969 33.855469 734.976562 33.941406 736.472656 32.855469 Z M 748.3125 32.160156 C 747.910156 31.820312 747.933594 30.585938 747.148438 31.621094 C 746.371094 32.640625 745.359375 32.460938 744.367188 32.417969 C 743.152344 32.375 743.023438 33.1875 743.128906 34.027344 C 743.265625 35.15625 744.195312 34.957031 745 35 C 747.054688 35.101562 747.703125 33.691406 748.3125 32.160156 Z M 750.875 30.039062 C 750.65625 29.613281 750.398438 29.105469 750.132812 28.601562 C 749.917969 28.925781 749.507812 29.269531 749.535156 29.570312 C 749.59375 30.117188 749.917969 30.628906 750.132812 31.160156 C 750.347656 30.835938 750.558594 30.511719 750.875 30.039062 Z M 775.058594 43.015625 C 775.074219 43.09375 775.023438 43.117188 775.066406 43.210938 C 775.195312 43.46875 775.535156 43.640625 775.808594 43.792969 C 775.851562 43.8125 775.9375 43.605469 775.058594 43.015625 Z M 776.210938 43.398438 C 776.015625 43.152344 775.863281 42.800781 775.597656 42.679688 C 775.332031 42.554688 775.132812 42.554688 775.03125 42.65625 C 774.910156 42.332031 774.851562 41.972656 774.664062 41.679688 C 774.449219 41.347656 774.066406 41.425781 773.910156 41.921875 C 773.878906 42.039062 774.089844 42.246094 774.828125 42.664062 C 774.894531 42.664062 774.953125 42.664062 775.023438 42.664062 C 775.007812 42.691406 775.039062 42.75 775.03125 42.785156 C 775.347656 42.945312 775.734375 43.152344 776.210938 43.398438 Z M 775.039062 42.648438 C 775.039062 42.648438 775.039062 42.65625 775.039062 42.648438 C 775.039062 42.65625 775.039062 42.65625 775.039062 42.648438 C 775.039062 42.65625 775.039062 42.648438 775.039062 42.648438 Z M 446.761719 21.792969 C 446.675781 22.066406 446.761719 22.195312 446.957031 22.222656 C 447 22.035156 447.035156 21.84375 447.121094 21.640625 C 446.964844 21.675781 446.878906 21.742188 446.761719 21.792969 Z M 250.203125 11.179688 C 250.347656 11.445312 250.503906 11.726562 250.65625 12 C 250.800781 11.855469 251.074219 11.683594 251.058594 11.582031 C 250.988281 11.28125 250.800781 11.007812 250.65625 10.726562 C 250.519531 10.863281 250.375 11.007812 250.203125 11.179688 Z M 303.671875 8.167969 C 304.484375 10.433594 306.03125 9.605469 307.339844 8.878906 C 307.820312 8.613281 308.992188 8.109375 308.410156 7.289062 C 308.101562 6.851562 306.980469 6.996094 306.226562 6.886719 C 306.117188 8.800781 304.636719 7.980469 303.671875 8.167969 Z M 268.4375 10.71875 C 268.363281 10.382812 268.3125 10 268.285156 9.503906 C 268.148438 9.675781 268.035156 9.757812 267.910156 9.878906 C 267.804688 10.289062 267.636719 10.742188 268.4375 10.71875 Z M 556.089844 13.515625 C 556.046875 13.4375 555.988281 13.351562 555.886719 13.300781 C 555.457031 13.09375 555.292969 13.273438 555.335938 13.601562 C 555.535156 13.617188 555.722656 13.617188 555.917969 13.652344 C 555.96875 13.601562 556.023438 13.566406 556.089844 13.515625 Z M 86.816406 41.59375 C 86.722656 41.75 86.621094 41.902344 86.523438 42.074219 C 86.226562 42.613281 86.5 42.722656 87.105469 42.691406 C 87.117188 42.691406 87.117188 42.691406 87.125 42.691406 C 87.132812 42.289062 87.199219 41.785156 87.378906 41.109375 C 87.148438 41.289062 87.003906 41.433594 86.816406 41.59375 Z M 167.476562 10.742188 C 167.175781 10.625 167.019531 10.707031 166.988281 10.90625 C 167.175781 10.972656 167.335938 11.078125 167.570312 11.101562 C 167.507812 10.949219 167.515625 10.863281 167.476562 10.742188 Z M 263.324219 5.636719 C 263.015625 5.5 262.855469 5.566406 262.792969 5.738281 C 262.992188 5.824219 263.160156 5.917969 263.382812 5.988281 C 263.332031 5.851562 263.351562 5.757812 263.324219 5.636719 Z M 651.136719 26.054688 C 650.707031 26.054688 650.28125 26.054688 649.859375 26.054688 C 649.996094 26.40625 650.082031 27.019531 650.289062 27.0625 C 651.050781 27.234375 651.179688 26.667969 651.136719 26.054688 Z M 428.4375 25.011719 C 428.140625 25.078125 427.867188 25.265625 427.582031 25.414062 C 427.730469 25.558594 427.867188 25.695312 428.035156 25.867188 C 428.300781 25.71875 428.585938 25.566406 428.859375 25.414062 C 428.722656 25.265625 428.542969 24.992188 428.4375 25.011719 Z M 302.394531 27.96875 C 302.542969 28.113281 302.710938 28.390625 302.816406 28.371094 C 303.113281 28.304688 303.386719 28.113281 303.671875 27.96875 C 303.523438 27.824219 303.386719 27.6875 303.21875 27.515625 C 302.953125 27.660156 302.667969 27.816406 302.394531 27.96875 Z M 476.527344 24.8125 C 475.996094 24.839844 475.484375 25.121094 474.960938 25.300781 C 475.175781 25.898438 475.59375 26.140625 476.277344 26.035156 C 476.570312 25.753906 477.5625 26.660156 477.375 25.464844 C 477.320312 25.191406 476.808594 24.804688 476.527344 24.8125 Z M 160.835938 38.40625 C 160.8125 38.507812 161.09375 38.6875 161.238281 38.824219 C 161.394531 38.550781 161.546875 38.269531 161.691406 38.003906 C 161.519531 37.832031 161.375 37.6875 161.238281 37.550781 C 161.09375 37.832031 160.90625 38.105469 160.835938 38.40625 Z M 471.035156 26.046875 C 470.410156 25.992188 469.855469 26.128906 469.984375 26.882812 C 470.015625 27.082031 470.625 27.25 470.992188 27.3125 C 471.597656 27.414062 472.164062 27.242188 472.035156 26.488281 C 472.011719 26.292969 471.386719 26.199219 471.035156 26.046875 Z M 462.105469 26.652344 C 462.140625 26.859375 462.617188 26.996094 462.765625 27.082031 C 463.414062 26.480469 464.003906 25.941406 464.601562 25.394531 C 464.074219 25.191406 463.523438 24.777344 463.019531 24.820312 C 461.917969 24.917969 461.976562 25.855469 462.105469 26.652344 Z M 458.339844 24.777344 C 458.265625 25.753906 457.195312 25.984375 457.085938 26.660156 C 457.007812 27.121094 457.804688 27.386719 458.425781 27.335938 C 459.53125 27.242188 459.539062 26.472656 459.511719 25.660156 C 459.273438 25.09375 458.359375 24.582031 458.339844 24.777344 Z M 157.953125 38.816406 C 157.5625 38.847656 156.859375 38.710938 156.816406 38.839844 C 156.570312 39.523438 157.074219 39.988281 157.65625 40.0625 C 158.167969 40.132812 158.714844 39.859375 159.261719 39.730469 C 159.007812 38.960938 158.578125 38.753906 157.953125 38.816406 Z M 23.09375 35.007812 C 24.050781 34.898438 25.214844 35.238281 25.207031 33.570312 C 25.375 31.785156 23.8125 31.570312 22.648438 31.210938 C 21.605469 30.886719 21.355469 31.785156 21.355469 32.683594 C 21.355469 33.886719 21.117188 35.230469 23.09375 35.007812 Z M 313.679688 6.160156 C 314.105469 6.6875 312.285156 6.953125 312.984375 7.851562 C 313.429688 8.425781 314.542969 9.28125 314.660156 9.179688 C 317.046875 7.175781 320.761719 8.238281 322.832031 5.609375 C 320.648438 5.714844 319.015625 4.730469 317.722656 3.054688 C 317.304688 3.054688 316.671875 3.234375 316.507812 3.027344 C 314.917969 1.085938 313.421875 3.035156 311.941406 3.199219 C 311.164062 3.277344 311 4.574219 311.652344 5.199219 C 312.15625 5.695312 313.257812 5.636719 313.679688 6.160156 Z M 322.832031 5.621094 C 322.402344 4.738281 321.785156 3.890625 321.589844 2.960938 C 321.1875 0.992188 322.121094 0 323.90625 0.546875 C 326.148438 1.230469 328.304688 2.214844 330.492188 3.0625 C 330.757812 4.15625 332.878906 5.808594 329.636719 5.875 C 329.492188 5.875 329.355469 6.527344 329.21875 6.886719 C 329.320312 6.792969 329.511719 6.78125 329.777344 6.910156 C 330.03125 7.039062 330.1875 7.390625 330.390625 7.628906 C 330.246094 7.773438 330.03125 8.046875 329.988281 8.023438 C 329.714844 7.867188 329.363281 7.707031 329.246094 7.441406 C 329.117188 7.175781 329.117188 6.988281 329.21875 6.886719 C 327.953125 6.800781 327.492188 8.691406 326.011719 8.175781 C 325.472656 7.988281 324.480469 8.449219 324.386719 7.722656 C 324.234375 6.441406 325.464844 7.132812 326.027344 6.84375 C 326.746094 6.476562 326.59375 5.773438 325.945312 5.652344 C 324.933594 5.484375 323.875 5.621094 322.832031 5.621094 Z M 324.113281 2.421875 C 323.832031 2.273438 323.558594 2.085938 323.257812 2.019531 C 323.15625 1.992188 322.984375 2.273438 322.839844 2.421875 C 323.113281 2.574219 323.394531 2.730469 323.660156 2.875 C 323.832031 2.703125 323.96875 2.566406 324.113281 2.421875 Z M 94.171875 44.570312 C 94.496094 44.785156 94.839844 45.195312 95.136719 45.171875 C 95.6875 45.109375 96.199219 44.785156 96.730469 44.570312 C 96.40625 44.359375 96.089844 44.144531 95.609375 43.828125 C 95.179688 44.050781 94.675781 44.308594 94.171875 44.570312 Z M 141.625 40.550781 C 141.773438 40.816406 141.925781 41.097656 142.078125 41.371094 C 142.226562 41.226562 142.5 41.054688 142.480469 40.953125 C 142.414062 40.65625 142.226562 40.378906 142.078125 40.097656 C 141.933594 40.242188 141.796875 40.378906 141.625 40.550781 Z M 19.902344 34.539062 C 19.757812 34.273438 19.601562 33.992188 19.449219 33.71875 C 19.304688 33.863281 19.03125 34.035156 19.046875 34.136719 C 19.117188 34.4375 19.304688 34.710938 19.449219 34.992188 C 19.585938 34.847656 19.730469 34.710938 19.902344 34.539062 Z M 81.957031 45.230469 C 81.691406 45.101562 81.496094 45.101562 81.394531 45.203125 C 81.273438 44.878906 81.214844 44.519531 81.023438 44.230469 C 80.8125 43.894531 80.425781 43.972656 80.273438 44.46875 C 80.222656 44.640625 80.625 44.964844 80.820312 45.214844 C 81.007812 45.214844 81.195312 45.214844 81.382812 45.214844 C 81.289062 45.316406 81.28125 45.511719 81.410156 45.769531 C 81.539062 46.027344 81.878906 46.195312 82.15625 46.351562 C 82.207031 46.375 82.410156 46.101562 82.554688 45.957031 C 82.367188 45.699219 82.222656 45.359375 81.957031 45.230469 Z M 427.566406 22.382812 C 427.402344 22.332031 427.277344 22.257812 427.085938 22.222656 C 427.292969 22.402344 427.445312 22.4375 427.566406 22.382812 Z M 497.535156 23.46875 C 498.390625 23.566406 499.210938 23.417969 499.117188 22.222656 C 498.261719 22.222656 497.414062 22.222656 496.558594 22.222656 C 496.421875 23 496.890625 23.402344 497.535156 23.46875 Z M 551.925781 28.335938 C 552.6875 28.507812 552.8125 27.945312 552.769531 27.328125 C 552.34375 27.328125 551.917969 27.328125 551.496094 27.328125 C 551.632812 27.679688 551.710938 28.292969 551.925781 28.335938 Z M 601.84375 33.554688 C 602.011719 33.605469 602.339844 33.203125 602.585938 33.007812 C 602.585938 32.820312 602.585938 32.632812 602.585938 32.433594 C 602.253906 32.554688 601.894531 32.621094 601.601562 32.800781 C 601.269531 33.015625 601.355469 33.402344 601.84375 33.554688 Z M 487.910156 27.695312 C 487.578125 27.910156 487.652344 28.292969 488.148438 28.449219 C 488.320312 28.5 488.644531 28.097656 488.894531 27.902344 C 488.894531 27.714844 488.894531 27.523438 488.894531 27.328125 C 488.570312 27.449219 488.203125 27.515625 487.910156 27.695312 Z M 341.253906 27.164062 C 341.425781 27.21875 341.75 26.816406 342 26.617188 C 342 26.429688 342 26.242188 342 26.046875 C 341.664062 26.164062 341.304688 26.234375 341.015625 26.414062 C 340.671875 26.625 340.757812 27.011719 341.253906 27.164062 Z M 576.617188 30.125 C 576.320312 30.195312 576.046875 30.382812 575.761719 30.527344 C 575.910156 30.671875 576.046875 30.808594 576.214844 30.980469 C 576.480469 30.835938 576.761719 30.679688 577.039062 30.527344 C 576.902344 30.382812 576.730469 30.097656 576.617188 30.125 Z M 479.734375 24.28125 C 479.109375 24.992188 478.65625 26.097656 477.40625 26.046875 C 477.40625 26.257812 477.320312 26.53125 477.425781 26.667969 C 478.75 28.550781 480.066406 25.796875 480.835938 26.457031 C 481.957031 27.414062 483.753906 27.082031 484.429688 28.59375 C 484.875 28.148438 485.285156 27.652344 485.78125 27.269531 C 486.585938 26.644531 485.730469 26.371094 485.609375 25.898438 C 485.191406 24.230469 482.503906 25.589844 482.515625 23.488281 C 481.523438 23.511719 480.5625 23.34375 479.734375 24.28125 Z M 491.886719 23.230469 C 492.648438 23.402344 492.777344 22.835938 492.734375 22.222656 C 492.308594 22.222656 491.878906 22.222656 491.460938 22.222656 C 491.597656 22.574219 491.675781 23.1875 491.886719 23.230469 Z M 498.285156 25.027344 C 498.089844 25.0625 497.917969 25.667969 497.859375 26.035156 C 497.757812 26.644531 497.925781 27.207031 498.679688 27.082031 C 498.875 27.046875 498.980469 26.429688 499.125 26.078125 C 499.175781 25.453125 499.03125 24.898438 498.285156 25.027344 Z M 560.433594 29.242188 C 560.582031 29.390625 560.75 29.664062 560.855469 29.644531 C 561.152344 29.578125 561.425781 29.390625 561.710938 29.242188 C 561.5625 29.097656 561.425781 28.960938 561.257812 28.789062 C 560.992188 28.9375 560.707031 29.089844 560.433594 29.242188 Z M 502.46875 24.957031 C 502.222656 25.113281 501.726562 25.265625 501.707031 25.453125 C 501.664062 26.019531 501.382812 26.753906 502.117188 27.089844 C 502.289062 27.164062 502.886719 26.816406 502.90625 26.644531 C 502.9375 26.078125 503.222656 25.386719 502.46875 24.957031 Z M 488.867188 26.730469 C 488.835938 27.335938 489.015625 27.660156 489.46875 27.292969 C 490.167969 26.722656 490.691406 25.941406 491.289062 25.25 C 490.957031 25.085938 490.621094 24.933594 490.28125 24.761719 C 488.824219 24.710938 488.929688 25.710938 488.867188 26.730469 Z M 518.300781 26.046875 C 517.675781 25.992188 517.121094 26.128906 517.25 26.882812 C 517.285156 27.082031 517.890625 27.25 518.257812 27.3125 C 518.867188 27.414062 519.429688 27.242188 519.300781 26.488281 C 519.277344 26.292969 518.652344 26.199219 518.300781 26.046875 Z M 530.464844 24.8125 C 530.199219 24.855469 529.804688 25.378906 529.824219 25.652344 C 529.847656 26.183594 530.128906 26.695312 530.308594 27.21875 C 530.910156 27.003906 531.148438 26.585938 531.046875 25.898438 C 530.761719 25.617188 531.660156 24.617188 530.464844 24.8125 Z M 530.464844 24.8125 " fill-opacity="1" fill-rule="nonzero"/></g></svg>