<svg xmlns="http://www.w3.org/2000/svg" xmlns:xlink="http://www.w3.org/1999/xlink" width="1080" zoomAndPan="magnify" viewBox="0 0 810 809.999993" height="1080" preserveAspectRatio="xMidYMid meet" version="1.0"><defs><clipPath id="e51c96977e"><path d="M 5.570312 232 L 55 232 L 55 278 L 5.570312 278 Z M 5.570312 232 " clip-rule="nonzero"/></clipPath></defs><path fill="#caddff" d="M 95.992188 339.078125 C 122.304688 228.296875 74.757812 197.921875 102.457031 137.164062 C 145.078125 43.675781 309.742188 1.300781 433.988281 18.34375 C 586.160156 39.230469 733.566406 156.917969 761.914062 327.433594 C 792.113281 509.027344 676.140625 683.589844 515.339844 750.386719 C 371.746094 810.035156 179.347656 789.160156 89.789062 678.003906 C 80.082031 665.957031 28.992188 599.984375 33.445312 513.519531 C 37.128906 442.054688 75.136719 426.898438 95.992188 339.078125 " fill-opacity="1" fill-rule="nonzero"/><path fill="#000000" d="M 169.578125 599.597656 L 581.601562 599.597656 C 587.882812 599.597656 593.507812 595.832031 595.75 590.132812 L 791.078125 96.449219 C 793.011719 91.527344 792.066406 86.414062 789.257812 82.59375 C 786.554688 78.910156 778.742188 68.039062 778.742188 68.039062 L 364.894531 76.414062 C 358.617188 76.414062 352.988281 80.179688 350.738281 85.882812 L 148.121094 581.96875 C 148.121094 581.96875 154.539062 590.125 157.6875 594 C 160.417969 597.363281 164.640625 599.597656 169.578125 599.597656 " fill-opacity="1" fill-rule="nonzero"/><path fill="#ffffff" d="M 159.550781 584.890625 L 571.578125 584.890625 C 577.851562 584.890625 583.484375 581.125 585.734375 575.425781 L 779.820312 83.132812 C 783.628906 73.476562 776.296875 63.105469 765.667969 63.105469 L 353.640625 63.105469 C 347.363281 63.105469 341.738281 66.867188 339.488281 72.566406 L 145.398438 564.863281 C 141.589844 574.519531 148.921875 584.890625 159.550781 584.890625 " fill-opacity="1" fill-rule="nonzero"/><path fill="#000000" d="M 353.640625 64.542969 C 347.996094 64.542969 342.84375 67.976562 340.828125 73.097656 L 146.738281 565.390625 C 145.140625 569.445312 145.636719 573.851562 148.101562 577.472656 C 150.648438 581.21875 154.929688 583.457031 159.550781 583.457031 L 571.578125 583.457031 C 577.226562 583.457031 582.378906 580.015625 584.390625 574.898438 L 778.480469 82.605469 C 780.078125 78.550781 779.582031 74.140625 777.121094 70.519531 C 774.566406 66.777344 770.289062 64.542969 765.664062 64.542969 Z M 571.578125 586.328125 L 159.550781 586.328125 C 153.976562 586.328125 148.808594 583.625 145.722656 579.089844 C 142.710938 574.671875 142.105469 569.289062 144.0625 564.332031 L 338.148438 72.039062 C 340.597656 65.835938 346.824219 61.660156 353.640625 61.660156 L 765.664062 61.660156 C 771.246094 61.660156 776.414062 64.371094 779.496094 68.902344 C 782.507812 73.328125 783.113281 78.707031 781.160156 83.664062 L 587.074219 575.953125 C 584.621094 582.160156 578.394531 586.328125 571.578125 586.328125 " fill-opacity="1" fill-rule="nonzero"/><path fill="#caddff" d="M 193.511719 554.847656 L 556.546875 554.847656 C 562.078125 554.847656 567.035156 551.527344 569.015625 546.503906 L 740.027344 112.746094 C 743.386719 104.234375 736.925781 95.101562 727.558594 95.101562 L 364.523438 95.101562 C 358.992188 95.101562 354.035156 98.414062 352.050781 103.441406 L 181.042969 537.199219 C 177.6875 545.707031 184.144531 554.847656 193.511719 554.847656 " fill-opacity="1" fill-rule="nonzero"/><path fill="#000000" d="M 700.769531 213.746094 C 700.597656 213.746094 700.417969 213.714844 700.246094 213.648438 C 699.503906 213.355469 699.136719 212.519531 699.429688 211.785156 L 738.722656 112.128906 C 740.105469 108.605469 739.671875 104.785156 737.539062 101.636719 C 735.324219 98.390625 731.601562 96.445312 727.585938 96.445312 L 398.933594 96.445312 C 398.140625 96.445312 397.492188 95.800781 397.492188 95.007812 C 397.492188 94.210938 398.140625 93.570312 398.933594 93.570312 L 727.585938 93.570312 C 732.554688 93.570312 737.167969 95.980469 739.910156 100.023438 C 742.601562 103.96875 743.136719 108.761719 741.398438 113.183594 L 702.109375 212.839844 C 701.886719 213.40625 701.339844 213.746094 700.769531 213.746094 " fill-opacity="1" fill-rule="nonzero"/><path fill="#000000" d="M 556.570312 556.199219 L 516.273438 556.199219 C 515.480469 556.199219 514.835938 555.550781 514.835938 554.757812 C 514.835938 553.964844 515.480469 553.320312 516.273438 553.320312 L 556.570312 553.320312 C 561.476562 553.320312 565.953125 550.335938 567.707031 545.886719 L 607.875 444 C 608.171875 443.261719 609.003906 442.898438 609.738281 443.191406 C 610.484375 443.480469 610.84375 444.316406 610.554688 445.054688 L 570.382812 546.945312 C 568.203125 552.476562 562.648438 556.199219 556.570312 556.199219 " fill-opacity="1" fill-rule="nonzero"/><path fill="#000000" d="M 281.078125 284.875 C 280.902344 284.875 280.722656 284.84375 280.546875 284.777344 C 279.808594 284.488281 279.445312 283.648438 279.738281 282.914062 L 295.710938 242.40625 C 296 241.664062 296.835938 241.300781 297.574219 241.589844 C 298.316406 241.886719 298.679688 242.71875 298.386719 243.460938 L 282.414062 283.964844 C 282.191406 284.535156 281.648438 284.875 281.078125 284.875 " fill-opacity="1" fill-rule="nonzero"/><path fill="#ffffff" d="M 395.792969 210.808594 L 661.480469 210.808594 C 663.796875 210.808594 665.871094 209.394531 666.660156 207.265625 C 667.953125 203.773438 665.289062 200.089844 661.480469 200.089844 L 395.792969 200.089844 C 393.660156 200.089844 391.714844 201.285156 390.804688 203.160156 C 389.082031 206.714844 391.746094 210.808594 395.792969 210.808594 " fill-opacity="1" fill-rule="nonzero"/><path fill="#ffffff" d="M 384.941406 242.082031 L 650.902344 242.082031 C 653.144531 242.082031 655.144531 240.691406 655.925781 238.589844 C 657.226562 235.085938 654.632812 231.359375 650.902344 231.359375 L 384.941406 231.359375 C 382.890625 231.359375 381.019531 232.535156 380.121094 234.378906 C 378.390625 237.9375 380.980469 242.082031 384.941406 242.082031 " fill-opacity="1" fill-rule="nonzero"/><path fill="#ffffff" d="M 371.164062 275.738281 L 637.125 275.738281 C 639.363281 275.738281 641.371094 274.339844 642.152344 272.242188 C 643.449219 268.738281 640.859375 265.011719 637.125 265.011719 L 371.164062 265.011719 C 369.105469 265.011719 367.238281 266.1875 366.34375 268.035156 C 364.613281 271.59375 367.207031 275.738281 371.164062 275.738281 " fill-opacity="1" fill-rule="nonzero"/><path fill="#ffffff" d="M 341.167969 331.71875 L 607.128906 331.71875 C 609.375 331.71875 611.375 330.328125 612.15625 328.226562 C 613.457031 324.726562 610.867188 321.003906 607.128906 321.003906 L 341.167969 321.003906 C 339.117188 321.003906 337.242188 322.171875 336.347656 324.019531 C 334.621094 327.582031 337.214844 331.71875 341.167969 331.71875 " fill-opacity="1" fill-rule="nonzero"/><path fill="#ffffff" d="M 330.59375 362.992188 L 596.28125 362.992188 C 598.601562 362.992188 600.671875 361.578125 601.464844 359.449219 C 602.757812 355.957031 600.09375 352.273438 596.28125 352.273438 L 330.59375 352.273438 C 328.460938 352.273438 326.519531 353.464844 325.609375 355.339844 C 323.882812 358.898438 326.546875 362.992188 330.59375 362.992188 " fill-opacity="1" fill-rule="nonzero"/><path fill="#ffffff" d="M 316.679688 396.648438 L 582.640625 396.648438 C 584.878906 396.648438 586.886719 395.25 587.667969 393.152344 C 588.964844 389.652344 586.371094 385.925781 582.640625 385.925781 L 316.679688 385.925781 C 314.621094 385.925781 312.753906 387.101562 311.859375 388.949219 C 310.128906 392.507812 312.722656 396.648438 316.679688 396.648438 " fill-opacity="1" fill-rule="nonzero"/><path fill="#5479f7" d="M 663.839844 127.296875 L 658.125 138.558594 C 657.792969 139.214844 657.15625 139.667969 656.429688 139.773438 L 643.765625 141.5625 C 641.886719 141.828125 641.152344 144.140625 642.523438 145.441406 L 651.609375 154.054688 C 652.160156 154.578125 652.414062 155.339844 652.277344 156.085938 L 650.121094 168.316406 C 649.800781 170.148438 651.714844 171.566406 653.375 170.71875 L 664.820312 164.859375 C 665.472656 164.527344 666.234375 164.527344 666.878906 164.859375 L 678.328125 170.71875 C 679.988281 171.566406 681.90625 170.148438 681.582031 168.316406 L 679.425781 156.085938 C 679.292969 155.339844 679.546875 154.578125 680.097656 154.054688 L 689.183594 145.441406 C 690.554688 144.140625 689.8125 141.828125 687.941406 141.5625 L 675.273438 139.773438 C 674.542969 139.667969 673.910156 139.214844 673.578125 138.558594 L 667.863281 127.296875 C 667.03125 125.648438 664.675781 125.648438 663.839844 127.296875 " fill-opacity="1" fill-rule="nonzero"/><path fill="#5479f7" d="M 604.398438 127.296875 L 598.683594 138.554688 C 598.351562 139.214844 597.714844 139.667969 596.984375 139.773438 L 584.320312 141.5625 C 582.445312 141.824219 581.707031 144.136719 583.078125 145.4375 L 592.167969 154.054688 C 592.714844 154.574219 592.972656 155.335938 592.835938 156.082031 L 590.683594 168.316406 C 590.359375 170.148438 592.273438 171.570312 593.9375 170.714844 L 605.378906 164.863281 C 606.027344 164.527344 606.792969 164.527344 607.441406 164.863281 L 618.890625 170.714844 C 620.542969 171.570312 622.460938 170.148438 622.144531 168.316406 L 619.980469 156.082031 C 619.851562 155.335938 620.105469 154.574219 620.652344 154.054688 L 629.738281 145.4375 C 631.109375 144.136719 630.371094 141.824219 628.5 141.5625 L 615.832031 139.773438 C 615.105469 139.667969 614.472656 139.214844 614.136719 138.554688 L 608.425781 127.296875 C 607.585938 125.648438 605.234375 125.648438 604.398438 127.296875 " fill-opacity="1" fill-rule="nonzero"/><path fill="#5479f7" d="M 544.960938 127.296875 L 539.246094 138.554688 C 538.914062 139.214844 538.277344 139.667969 537.546875 139.773438 L 524.878906 141.5625 C 523.011719 141.824219 522.273438 144.136719 523.644531 145.4375 L 532.730469 154.054688 C 533.277344 154.574219 533.53125 155.335938 533.398438 156.082031 L 531.242188 168.316406 C 530.917969 170.148438 532.835938 171.570312 534.492188 170.714844 L 545.941406 164.863281 C 546.589844 164.527344 547.351562 164.527344 547.996094 164.863281 L 559.445312 170.714844 C 561.109375 171.570312 563.023438 170.148438 562.699219 168.316406 L 560.546875 156.082031 C 560.414062 155.335938 560.660156 154.574219 561.214844 154.054688 L 570.300781 145.4375 C 571.675781 144.136719 570.933594 141.824219 569.066406 141.5625 L 556.398438 139.773438 C 555.664062 139.667969 555.03125 139.214844 554.699219 138.554688 L 548.984375 127.296875 C 548.148438 125.648438 545.792969 125.648438 544.960938 127.296875 " fill-opacity="1" fill-rule="nonzero"/><path fill="#5479f7" d="M 485.515625 127.296875 L 479.800781 138.554688 C 479.46875 139.214844 478.835938 139.667969 478.109375 139.773438 L 465.441406 141.5625 C 463.566406 141.824219 462.828125 144.136719 464.199219 145.4375 L 473.285156 154.054688 C 473.839844 154.574219 474.089844 155.335938 473.960938 156.082031 L 471.800781 168.316406 C 471.476562 170.148438 473.394531 171.570312 475.054688 170.714844 L 486.5 164.863281 C 487.144531 164.527344 487.914062 164.527344 488.558594 164.863281 L 500.007812 170.714844 C 501.664062 171.570312 503.582031 170.148438 503.253906 168.316406 L 501.101562 156.082031 C 500.972656 155.335938 501.222656 154.574219 501.773438 154.054688 L 510.859375 145.4375 C 512.230469 144.136719 511.496094 141.824219 509.621094 141.5625 L 496.953125 139.773438 C 496.226562 139.667969 495.589844 139.214844 495.253906 138.554688 L 489.546875 127.296875 C 488.707031 125.648438 486.351562 125.648438 485.515625 127.296875 " fill-opacity="1" fill-rule="nonzero"/><path fill="#ffffff" d="M 118.183594 711.199219 C 116.625 709.867188 114.085938 707.039062 114.085938 707.039062 C 114.085938 707.039062 115.511719 701.867188 115.960938 700.585938 C 131.75 655.535156 169.035156 599.519531 208.046875 541.566406 C 268.332031 452.011719 383.4375 568.746094 399.417969 585.714844 C 400.617188 586.988281 401.390625 588.605469 401.609375 590.34375 C 403.964844 608.773438 414.9375 720.261719 429.8125 765.871094 C 431.703125 774.417969 431.992188 776.347656 431.992188 776.347656 C 431.992188 776.347656 426.855469 777.445312 423.292969 777.902344 C 307.242188 800.226562 194.28125 776.371094 118.183594 711.199219 " fill-opacity="1" fill-rule="nonzero"/><path fill="#000000" d="M 257.910156 738.851562 C 257.539062 738.851562 257.167969 738.707031 256.886719 738.425781 C 230.332031 711.503906 213.398438 660.761719 213.230469 660.25 C 212.980469 659.496094 213.390625 658.679688 214.144531 658.433594 C 214.902344 658.183594 215.714844 658.59375 215.964844 659.347656 C 216.128906 659.851562 232.859375 709.964844 258.933594 736.402344 C 259.492188 736.96875 259.488281 737.878906 258.921875 738.4375 C 258.640625 738.710938 258.277344 738.851562 257.910156 738.851562 " fill-opacity="1" fill-rule="nonzero"/><path fill="#000000" d="M 301.535156 739.882812 C 301.304688 739.882812 301.074219 739.828125 300.855469 739.714844 C 273.011719 724.835938 255.714844 703.355469 255.542969 703.140625 C 255.046875 702.519531 255.148438 701.613281 255.769531 701.121094 C 256.390625 700.625 257.296875 700.726562 257.792969 701.34375 C 257.960938 701.558594 274.914062 722.589844 302.210938 737.175781 C 302.914062 737.546875 303.179688 738.417969 302.804688 739.121094 C 302.546875 739.605469 302.046875 739.882812 301.535156 739.882812 " fill-opacity="1" fill-rule="nonzero"/><path fill="#000000" d="M 429.8125 767.3125 C 429.167969 767.3125 428.578125 766.875 428.414062 766.21875 C 416.359375 717.34375 400.972656 596.765625 399.90625 588.351562 C 394.625 582.613281 322.269531 505.4375 261.261719 509.730469 C 240.328125 511.203125 222.824219 522.1875 209.238281 542.367188 C 173.847656 594.945312 133.730469 654.542969 117.453125 700.675781 C 117.1875 701.421875 116.367188 701.816406 115.621094 701.550781 C 114.871094 701.285156 114.476562 700.464844 114.742188 699.714844 C 131.140625 653.238281 171.363281 593.484375 206.851562 540.761719 C 220.960938 519.808594 239.199219 508.398438 261.066406 506.855469 C 294.835938 504.472656 331.476562 526.371094 356.273438 545.15625 C 383.042969 565.425781 402.15625 586.542969 402.347656 586.753906 C 402.542969 586.972656 402.667969 587.246094 402.703125 587.539062 C 402.863281 588.808594 418.8125 715.292969 431.207031 765.53125 C 431.398438 766.300781 430.925781 767.082031 430.152344 767.273438 C 430.042969 767.300781 429.925781 767.3125 429.8125 767.3125 " fill-opacity="1" fill-rule="nonzero"/><path fill="#ffffff" d="M 744.804688 208.371094 L 686.066406 241.59375 C 681.808594 244.191406 676.371094 243.753906 672.585938 240.507812 L 622.082031 197.183594 C 613.621094 189.929688 600.8125 197.738281 603.394531 208.582031 L 618.792969 273.324219 C 619.949219 278.171875 617.847656 283.210938 613.597656 285.804688 L 556.789062 320.464844 C 547.273438 326.265625 550.746094 340.855469 561.851562 341.75 L 628.175781 347.113281 C 633.140625 347.515625 637.289062 351.074219 638.441406 355.917969 L 656.097656 424.25 C 658.679688 435.09375 673.625 436.304688 677.910156 426.015625 L 701.242188 360.992188 C 703.164062 356.390625 707.824219 353.546875 712.789062 353.949219 L 779.113281 359.3125 C 790.21875 360.203125 795.988281 346.363281 787.527344 339.105469 L 737.019531 295.78125 C 733.242188 292.539062 731.972656 287.222656 733.894531 282.621094 L 761.414062 222.621094 C 765.703125 212.332031 754.320312 202.566406 744.804688 208.371094 " fill-opacity="1" fill-rule="nonzero"/><path fill="#000000" d="M 744.800781 208.371094 L 744.8125 208.371094 Z M 614.695312 195.796875 C 612.691406 195.796875 610.820312 196.425781 609.339844 197.324219 C 606.320312 199.171875 603.542969 203.007812 604.789062 208.25 L 620.183594 272.992188 C 621.496094 278.464844 619.140625 284.113281 614.335938 287.039062 L 557.535156 321.699219 C 552.925781 324.5 552.164062 329.175781 552.976562 332.617188 C 553.800781 336.0625 556.585938 339.886719 561.964844 340.328125 L 628.289062 345.679688 C 633.890625 346.136719 638.539062 350.117188 639.835938 355.59375 L 657.484375 423.894531 C 658.738281 429.171875 662.953125 431.34375 666.472656 431.628906 C 669.996094 431.914062 674.507812 430.441406 676.582031 425.460938 L 699.886719 360.511719 C 702.074219 355.253906 707.28125 352.0625 712.902344 352.519531 L 779.222656 357.875 C 784.574219 358.328125 787.964844 354.976562 789.328125 351.710938 C 790.6875 348.445312 790.679688 343.707031 786.589844 340.203125 L 736.082031 296.875 C 731.808594 293.214844 730.398438 287.265625 732.558594 282.074219 L 760.105469 222.027344 C 762.15625 217.09375 760.023438 212.855469 757.34375 210.558594 C 754.65625 208.25 750.15625 206.796875 745.550781 209.601562 C 745.53125 209.613281 745.519531 209.617188 745.507812 209.628906 L 686.769531 242.851562 C 682.011719 245.757812 675.917969 245.265625 671.648438 241.605469 L 621.140625 198.28125 C 619.046875 196.484375 616.800781 195.796875 614.695312 195.796875 Z M 667.347656 434.539062 C 666.980469 434.539062 666.617188 434.527344 666.242188 434.496094 C 660.542969 434.035156 656.015625 430.144531 654.695312 424.585938 L 637.046875 356.28125 C 636.027344 352 632.414062 348.902344 628.054688 348.550781 L 561.730469 343.191406 C 556.035156 342.734375 551.503906 338.847656 550.183594 333.28125 C 548.855469 327.726562 551.15625 322.210938 556.03125 319.238281 L 612.839844 284.582031 C 616.574219 282.308594 618.402344 277.914062 617.390625 273.660156 L 601.992188 208.921875 C 600.671875 203.363281 602.964844 197.84375 607.839844 194.871094 C 612.726562 191.894531 618.675781 192.378906 623.011719 196.09375 L 673.515625 239.421875 C 676.839844 242.269531 681.582031 242.652344 685.316406 240.371094 L 744.074219 207.132812 C 748.945312 204.167969 754.890625 204.65625 759.21875 208.371094 C 763.554688 212.09375 764.9375 217.902344 762.738281 223.175781 L 735.195312 283.222656 C 733.53125 287.21875 734.632812 291.84375 737.957031 294.691406 L 788.460938 338.015625 C 792.796875 341.734375 794.179688 347.542969 791.984375 352.820312 C 789.789062 358.09375 784.695312 361.203125 778.996094 360.746094 L 712.667969 355.390625 C 708.324219 355.035156 704.253906 357.515625 702.570312 361.554688 L 679.261719 426.503906 C 677.183594 431.5 672.589844 434.539062 667.347656 434.539062 " fill-opacity="1" fill-rule="nonzero"/><path fill="#5479f7" d="M 751.03125 211.710938 L 694.074219 246.457031 C 689.804688 249.058594 684.347656 248.617188 680.550781 245.363281 L 629.914062 201.925781 C 621.429688 194.648438 608.59375 202.480469 611.175781 213.351562 L 626.617188 278.269531 C 627.773438 283.128906 625.671875 288.183594 621.40625 290.789062 L 564.445312 325.53125 C 554.902344 331.355469 558.382812 345.984375 569.523438 346.886719 L 636.019531 352.261719 C 641.003906 352.660156 645.164062 356.226562 646.320312 361.085938 L 661.757812 426 C 664.34375 436.875 679.332031 438.085938 683.632812 427.769531 L 709.292969 366.171875 C 711.210938 361.558594 715.886719 358.710938 720.867188 359.109375 L 787.367188 364.488281 C 798.507812 365.382812 804.292969 351.503906 795.808594 344.226562 L 745.164062 300.789062 C 741.371094 297.527344 740.109375 292.203125 742.027344 287.59375 L 767.6875 226 C 771.988281 215.683594 760.574219 205.890625 751.03125 211.710938 " fill-opacity="1" fill-rule="nonzero"/><path fill="#ffffff" d="M 668.414062 328.714844 C 672.335938 333.382812 671.542969 337.289062 669.875 347.246094 C 668.792969 353.742188 668.59375 359.589844 658.367188 371.136719 C 647.085938 383.867188 638.078125 378.109375 619.21875 396.492188 C 600.359375 414.875 590.488281 390.832031 590.488281 390.832031 L 600.785156 380.269531 C 602.609375 378.398438 604.085938 376.210938 604.957031 373.777344 C 605.929688 371.058594 616.164062 336.757812 616.164062 336.757812 C 619.078125 331.074219 627.722656 332.109375 629.132812 338.3125 L 629.34375 339.242188 L 630.59375 349.875 C 630.976562 353.621094 635.90625 354.9375 638.195312 351.902344 C 642.269531 346.5 647.027344 340.082031 648.585938 337.554688 C 651.15625 333.394531 658.867188 322.210938 664.625 325.445312 C 666.0625 326.253906 667.328125 327.421875 668.414062 328.714844 " fill-opacity="1" fill-rule="nonzero"/><path fill="#000000" d="M 592.207031 391.121094 C 593.40625 393.554688 597.316406 400.472656 603.578125 401.761719 C 608.050781 402.683594 612.976562 400.566406 618.214844 395.457031 C 628.496094 385.441406 635.84375 382.476562 642.328125 379.863281 C 647.65625 377.710938 652.261719 375.855469 657.285156 370.183594 C 666.4375 359.867188 667.296875 354.363281 668.214844 348.546875 C 668.292969 348.035156 668.371094 347.519531 668.460938 347.003906 L 668.605469 346.109375 C 670.125 337.046875 670.6875 333.652344 667.316406 329.644531 C 666.222656 328.34375 665.082031 327.351562 663.921875 326.699219 C 660.109375 324.566406 653.941406 331.621094 649.808594 338.3125 C 648.515625 340.410156 644.992188 345.273438 639.34375 352.769531 C 637.925781 354.648438 635.535156 355.445312 633.242188 354.804688 C 630.960938 354.164062 629.394531 352.335938 629.164062 350.019531 L 627.921875 339.488281 L 627.726562 338.636719 C 627.117188 335.953125 624.925781 334.746094 623.078125 334.511719 C 621.222656 334.273438 618.800781 334.890625 617.503906 337.308594 C 616.703125 339.980469 607.265625 371.59375 606.308594 374.265625 C 605.40625 376.785156 603.890625 379.140625 601.816406 381.273438 Z M 605.664062 404.851562 C 604.761719 404.851562 603.867188 404.761719 602.980469 404.578125 C 593.902344 402.695312 589.34375 391.835938 589.15625 391.375 C 588.9375 390.847656 589.058594 390.234375 589.453125 389.828125 L 599.753906 379.265625 C 601.542969 377.429688 602.84375 375.417969 603.601562 373.296875 C 604.554688 370.640625 614.679688 336.6875 614.785156 336.34375 C 614.808594 336.261719 614.839844 336.175781 614.882812 336.097656 C 616.503906 332.945312 619.859375 331.207031 623.4375 331.65625 C 626.976562 332.105469 629.765625 334.585938 630.535156 338 L 630.746094 338.925781 C 630.757812 338.972656 630.765625 339.023438 630.769531 339.074219 L 632.023438 349.707031 C 632.144531 350.855469 632.886719 351.714844 634.015625 352.035156 C 634.925781 352.285156 636.203125 352.160156 637.046875 351.039062 C 642.558594 343.71875 646.128906 338.789062 647.359375 336.800781 C 650.492188 331.730469 658.5 320.359375 665.332031 324.191406 C 666.792969 325.015625 668.203125 326.230469 669.515625 327.785156 C 673.75 332.820312 673.027344 337.136719 671.449219 346.585938 L 671.300781 347.476562 C 671.214844 347.980469 671.136719 348.488281 671.058594 348.992188 C 670.113281 354.960938 669.144531 361.140625 659.441406 372.089844 C 653.964844 378.269531 649.070312 380.242188 643.402344 382.53125 C 637.167969 385.042969 630.097656 387.894531 620.226562 397.523438 C 615.222656 402.398438 610.335938 404.851562 605.664062 404.851562 " fill-opacity="1" fill-rule="nonzero"/><path fill="#ffffff" d="M 148.847656 290.074219 C 150.28125 288.710938 152.144531 287.851562 154.125 287.535156 C 162.007812 286.285156 180.285156 282.945312 184.375 278.339844 C 188.984375 273.152344 172.871094 256.523438 147.875 256.96875 C 141.140625 257.09375 134.171875 258.96875 129.660156 262.929688 C 128.488281 263.957031 128.949219 263.710938 127.308594 265.027344 C 109.898438 278.996094 107.089844 292.820312 102.332031 304.875 C 95.765625 321.515625 108.890625 342.550781 130.539062 317.046875 C 133.832031 313.164062 132.492188 300.636719 136.65625 297.921875 C 140.730469 295.269531 146.085938 292.714844 148.847656 290.074219 " fill-opacity="1" fill-rule="nonzero"/><path fill="#000000" d="M 148.847656 290.074219 L 148.859375 290.074219 Z M 148.835938 258.402344 C 148.527344 258.402344 148.214844 258.40625 147.902344 258.410156 C 140.824219 258.535156 134.523438 260.578125 130.609375 264.011719 C 130.175781 264.390625 129.984375 264.578125 129.816406 264.75 C 129.511719 265.050781 129.253906 265.3125 128.207031 266.148438 C 113.742188 277.761719 109.683594 288.957031 105.761719 299.789062 C 105.058594 301.730469 104.398438 303.558594 103.671875 305.402344 C 100.417969 313.644531 102.234375 323.027344 107.722656 326.316406 C 113.222656 329.609375 121.140625 325.894531 129.441406 316.113281 C 130.6875 314.644531 131.203125 311.167969 131.703125 307.800781 C 132.410156 303.039062 133.078125 298.539062 135.871094 296.71875 C 137.320312 295.777344 138.925781 294.84375 140.484375 293.9375 C 143.28125 292.316406 146.175781 290.640625 147.855469 289.035156 C 149.46875 287.496094 151.558594 286.484375 153.898438 286.113281 C 169.675781 283.609375 180.667969 280.351562 183.300781 277.386719 C 184.109375 276.472656 183.570312 274.902344 183.175781 274.050781 C 180.117188 267.402344 166.554688 258.402344 148.835938 258.402344 Z M 112.023438 330.324219 C 109.378906 330.324219 107.425781 329.492188 106.246094 328.785156 C 99.601562 324.804688 97.246094 313.839844 100.996094 304.34375 C 101.707031 302.546875 102.359375 300.730469 103.058594 298.808594 C 106.925781 288.128906 111.3125 276.019531 126.40625 263.90625 C 127.332031 263.164062 127.527344 262.96875 127.78125 262.714844 C 127.980469 262.511719 128.207031 262.289062 128.714844 261.84375 C 133.128906 257.972656 140.105469 255.667969 147.847656 255.53125 C 148.191406 255.527344 148.535156 255.523438 148.875 255.523438 C 168.617188 255.523438 182.535156 265.773438 185.792969 272.847656 C 186.976562 275.425781 186.855469 277.71875 185.453125 279.296875 C 181.199219 284.082031 164.140625 287.40625 154.351562 288.957031 C 152.589844 289.234375 151.03125 289.984375 149.84375 291.117188 C 147.917969 292.957031 145.007812 294.644531 141.925781 296.433594 C 140.402344 297.316406 138.828125 298.226562 137.441406 299.128906 C 135.734375 300.242188 135.105469 304.484375 134.550781 308.222656 C 133.964844 312.160156 133.414062 315.878906 131.636719 317.972656 C 123.261719 327.839844 116.601562 330.324219 112.023438 330.324219 " fill-opacity="1" fill-rule="nonzero"/><path fill="#5479f7" d="M 362.289062 280.511719 C 392.855469 282.363281 421.679688 296.667969 444.46875 316.574219 C 459.140625 329.382812 475.21875 350.855469 482.292969 373.714844 C 497.753906 423.691406 496.855469 457.953125 499.738281 462.167969 C 502.285156 465.878906 523.90625 466.523438 562.800781 407.367188 C 568.046875 399.386719 577.789062 383.164062 577.789062 383.164062 L 581.371094 382.992188 C 582.167969 382.957031 582.976562 382.972656 583.769531 383.070312 C 583.988281 383.09375 584.195312 383.121094 584.414062 383.144531 C 601.363281 385.324219 616.4375 394.765625 626.082031 408.496094 L 627.964844 411.167969 C 627.964844 411.167969 528.910156 560.804688 470.355469 563.128906 C 470.355469 563.128906 441.75 564.113281 415.332031 526.324219 C 415.332031 526.324219 404.519531 568.371094 409.503906 605.101562 C 414.160156 639.40625 239.789062 668.839844 195.519531 577.542969 C 195.519531 577.542969 178.050781 562.605469 204.179688 527.449219 C 223.808594 501.050781 240.320312 485.878906 240.320312 444.679688 C 240.320312 444.679688 201.34375 506.945312 168.621094 524.738281 C 135.902344 542.527344 117.265625 541.898438 95.683594 486.890625 C 74.542969 433.007812 86.960938 318.296875 86.960938 318.296875 C 87.414062 312.277344 90.585938 306.695312 95.765625 303.378906 C 96.082031 303.171875 96.410156 302.96875 96.753906 302.773438 C 107.941406 296.199219 122.335938 298.015625 131.851562 306.730469 C 140.835938 315.734375 145.820312 327.800781 145.78125 340.347656 C 145.714844 364.105469 142.078125 398.042969 149.375 414.25 C 168.140625 455.914062 189.796875 332.320312 255.238281 304.234375 C 255.238281 304.234375 303.308594 276.941406 362.289062 280.511719 " fill-opacity="1" fill-rule="nonzero"/><path fill="#000000" d="M 240.324219 446.121094 C 240.28125 446.121094 240.238281 446.117188 240.195312 446.117188 C 239.402344 446.046875 238.820312 445.34375 238.886719 444.554688 C 243.417969 393.085938 267.875 346.175781 268.121094 345.707031 C 268.492188 345.003906 269.367188 344.734375 270.066406 345.105469 C 270.769531 345.476562 271.039062 346.34375 270.667969 347.046875 C 270.425781 347.511719 246.230469 393.925781 241.753906 444.808594 C 241.6875 445.558594 241.058594 446.121094 240.324219 446.121094 " fill-opacity="1" fill-rule="nonzero"/><path fill="#000000" d="M 414.148438 527.765625 C 413.660156 527.765625 413.179688 527.515625 412.910156 527.066406 C 391.125 490.707031 388.128906 416.507812 388.105469 415.761719 C 388.074219 414.96875 388.695312 414.300781 389.488281 414.269531 C 390.257812 414.226562 390.949219 414.859375 390.980469 415.652344 C 391.007812 416.394531 393.976562 489.863281 415.382812 525.585938 C 415.789062 526.269531 415.566406 527.152344 414.882812 527.5625 C 414.65625 527.699219 414.398438 527.765625 414.148438 527.765625 " fill-opacity="1" fill-rule="nonzero"/><path fill="#000000" d="M 294.847656 546.070312 C 294.316406 546.070312 293.808594 545.773438 293.554688 545.273438 L 274.085938 505.875 C 273.734375 505.164062 274.027344 504.300781 274.738281 503.945312 C 275.453125 503.59375 276.3125 503.890625 276.667969 504.601562 L 296.132812 543.992188 C 296.484375 544.707031 296.195312 545.570312 295.484375 545.921875 C 295.277344 546.023438 295.058594 546.070312 294.847656 546.070312 " fill-opacity="1" fill-rule="nonzero"/><path fill="#ffffff" d="M 52.421875 240.558594 L 44.007812 275.210938 L 61.027344 278.355469 C 61.964844 278.53125 62.933594 278.476562 63.847656 278.207031 L 65.503906 277.71875 C 67.589844 277.101562 69.855469 277.652344 71.398438 279.152344 C 72.238281 279.964844 73.308594 280.515625 74.46875 280.730469 L 200.9375 304.183594 C 201.980469 304.375 203.046875 304.433594 204.105469 304.347656 L 236.566406 301.785156 L 209.789062 285.882812 C 208.332031 285.015625 206.765625 284.34375 205.125 283.875 L 81.773438 248.886719 C 80.71875 248.589844 79.605469 248.582031 78.546875 248.863281 L 78.28125 248.933594 C 76.25 249.480469 74.074219 248.933594 72.566406 247.492188 L 71.808594 246.769531 C 71.109375 246.105469 70.257812 245.617188 69.320312 245.355469 L 52.421875 240.558594 " fill-opacity="1" fill-rule="nonzero"/><path fill="#000000" d="M 67.222656 276.03125 C 69.136719 276.03125 71.003906 276.757812 72.402344 278.117188 C 73.039062 278.734375 73.84375 279.148438 74.734375 279.3125 L 201.199219 302.769531 C 202.125 302.941406 203.0625 302.988281 203.992188 302.914062 L 231.9375 300.707031 L 209.058594 287.117188 C 207.707031 286.316406 206.25 285.691406 204.730469 285.261719 L 81.378906 250.269531 C 80.578125 250.042969 79.726562 250.039062 78.917969 250.253906 L 78.652344 250.324219 C 76.144531 250.992188 73.433594 250.308594 71.574219 248.53125 L 70.8125 247.8125 C 70.289062 247.3125 69.636719 246.9375 68.925781 246.738281 L 53.464844 242.351562 L 45.765625 274.074219 L 61.285156 276.941406 C 61.996094 277.070312 62.746094 277.03125 63.4375 276.828125 L 65.097656 276.339844 C 65.796875 276.132812 66.515625 276.03125 67.222656 276.03125 Z M 203.148438 305.828125 C 202.320312 305.828125 201.492188 305.75 200.679688 305.597656 L 74.207031 282.144531 C 72.761719 281.875 71.445312 281.199219 70.398438 280.183594 C 69.222656 279.042969 67.503906 278.628906 65.914062 279.097656 L 64.253906 279.585938 C 63.128906 279.921875 61.921875 279.984375 60.765625 279.769531 L 43.746094 276.628906 C 43.359375 276.554688 43.015625 276.332031 42.800781 275.996094 C 42.585938 275.664062 42.515625 275.257812 42.609375 274.871094 L 51.023438 240.222656 C 51.117188 239.839844 51.359375 239.515625 51.695312 239.316406 C 52.035156 239.121094 52.433594 239.066406 52.8125 239.175781 L 69.714844 243.96875 C 70.871094 244.296875 71.9375 244.90625 72.800781 245.726562 L 73.558594 246.453125 C 74.699219 247.539062 76.367188 247.960938 77.910156 247.542969 L 78.171875 247.476562 C 79.480469 247.121094 80.863281 247.132812 82.164062 247.5 L 205.519531 282.492188 C 207.277344 282.992188 208.960938 283.714844 210.527344 284.640625 L 237.304688 300.546875 C 237.84375 300.867188 238.113281 301.5 237.96875 302.113281 C 237.828125 302.722656 237.308594 303.171875 236.683594 303.21875 L 204.21875 305.785156 C 203.863281 305.8125 203.503906 305.828125 203.148438 305.828125 " fill-opacity="1" fill-rule="nonzero"/><path fill="#000000" d="M 202.445312 305.53125 C 202.3125 305.53125 202.179688 305.511719 202.042969 305.472656 C 201.28125 305.25 200.839844 304.453125 201.058594 303.691406 L 204.976562 290.101562 C 205.199219 289.339844 205.992188 288.894531 206.757812 289.121094 C 207.523438 289.339844 207.964844 290.136719 207.742188 290.902344 L 203.824219 304.488281 C 203.644531 305.117188 203.070312 305.53125 202.445312 305.53125 " fill-opacity="1" fill-rule="nonzero"/><path fill="#99b9ff" d="M 15.207031 269.054688 L 44.582031 275.449219 L 52.621094 240.511719 L 23.25 234.113281 C 17.867188 232.941406 12.527344 236.234375 11.320312 241.472656 L 7.644531 257.449219 C 6.441406 262.683594 9.824219 267.878906 15.207031 269.054688 " fill-opacity="1" fill-rule="nonzero"/><g clip-path="url(#e51c96977e)"><path fill="#000000" d="M 21.0625 235.316406 C 17.148438 235.316406 13.609375 237.9375 12.722656 241.792969 L 9.046875 257.773438 C 8.5625 259.886719 8.9375 262.0625 10.105469 263.898438 C 11.324219 265.824219 13.242188 267.152344 15.511719 267.644531 L 43.5 273.742188 L 50.894531 241.609375 L 22.941406 235.519531 C 22.3125 235.382812 21.683594 235.316406 21.0625 235.316406 Z M 45.664062 277.160156 L 14.902344 270.460938 C 11.875 269.800781 9.308594 268.019531 7.671875 265.441406 C 6.09375 262.945312 5.582031 259.992188 6.242188 257.125 L 9.917969 241.148438 C 11.300781 235.15625 17.414062 231.367188 23.554688 232.707031 L 54.351562 239.417969 L 45.664062 277.160156 " fill-opacity="1" fill-rule="nonzero"/></g><path fill="#000000" d="M 70.3125 272.894531 C 70.210938 272.894531 70.105469 272.878906 70.003906 272.855469 C 69.226562 272.6875 68.738281 271.921875 68.90625 271.144531 L 72.53125 254.558594 C 72.699219 253.789062 73.46875 253.292969 74.246094 253.460938 C 75.019531 253.632812 75.515625 254.398438 75.34375 255.175781 L 71.71875 271.761719 C 71.570312 272.433594 70.972656 272.894531 70.3125 272.894531 " fill-opacity="1" fill-rule="nonzero"/><path fill="#ffffff" d="M 42.007812 249.003906 C 41.910156 249.003906 41.808594 248.996094 41.710938 248.976562 L 19.199219 244.234375 C 18.421875 244.070312 17.921875 243.308594 18.085938 242.53125 C 18.25 241.75 19.019531 241.253906 19.789062 241.417969 L 42.300781 246.15625 C 43.078125 246.320312 43.578125 247.082031 43.414062 247.859375 C 43.269531 248.542969 42.675781 249.003906 42.007812 249.003906 " fill-opacity="1" fill-rule="nonzero"/><path fill="#000000" d="M 458.929688 187.28125 C 458.929688 187.28125 482.144531 185.816406 474.84375 145.582031 C 467.5 105.082031 422.476562 111.769531 406.316406 107.824219 C 390.15625 103.878906 361.042969 73.363281 350.226562 65.515625 C 339.410156 57.664062 305.101562 23.992188 245.320312 64.542969 C 245.320312 64.542969 235.214844 75.921875 191.382812 68.59375 C 153.25 62.214844 83.820312 78.316406 102.464844 130.839844 C 107.84375 145.988281 118.644531 158.214844 132.367188 165.535156 C 134.855469 166.863281 137.585938 168.175781 140.574219 169.417969 C 149.207031 173.023438 155.488281 180.949219 157.003906 190.605469 C 161.933594 222.035156 184.820312 283.875 290.574219 232.882812 C 298.550781 229.035156 307.664062 229.253906 315.3125 233.359375 C 324.707031 238.398438 334.039062 255.582031 381.382812 252.800781 C 411.789062 251.011719 423.765625 219.277344 432.808594 205.148438 C 443.414062 188.570312 458.929688 187.28125 458.929688 187.28125 " fill-opacity="1" fill-rule="nonzero"/><path fill="#ffffff" d="M 452.148438 187.933594 C 452.148438 187.933594 452.964844 195.175781 453.371094 198.359375 C 453.753906 201.375 453.777344 211.183594 460.394531 222.367188 C 461.035156 223.441406 460.765625 224.820312 459.757812 225.585938 L 452.136719 231.382812 C 451.605469 231.78125 451.277344 232.371094 451.21875 233.019531 C 450.875 237.0625 449.574219 251.992188 448.871094 254.746094 C 448.058594 257.929688 445.238281 260.574219 443.898438 261.167969 C 440.351562 262.742188 425.773438 259.699219 425.773438 259.699219 C 425.773438 259.699219 421.457031 259.605469 412.441406 280.019531 C 408.261719 289.484375 411.632812 300.589844 420.402344 306.089844 C 426.644531 310.007812 425.023438 319.296875 417.796875 320.984375 C 392.882812 326.824219 348.316406 331.808594 325.1875 301.300781 C 323.867188 299.5625 324.988281 297.546875 326.96875 296.554688 C 342.945312 288.53125 361.539062 279.621094 378.164062 253.609375 C 378.910156 252.441406 380.101562 251.609375 381.492188 251.355469 C 387.148438 250.320312 402.160156 249.480469 404.84375 225.355469 C 404.914062 224.742188 404.8125 224.117188 404.5625 223.554688 C 402.480469 218.777344 393.28125 195.488281 416.15625 203.53125 C 431.253906 208.839844 438.464844 198.65625 440.949219 193.804688 C 441.761719 192.222656 443.191406 191.019531 444.90625 190.433594 L 452.148438 187.933594 " fill-opacity="1" fill-rule="nonzero"/><path fill="#000000" d="M 408.101562 203.300781 C 406.355469 203.300781 404.824219 203.699219 403.832031 204.765625 C 400.871094 207.957031 403.085938 216.570312 405.882812 222.976562 C 406.238281 223.777344 406.375 224.660156 406.273438 225.515625 C 403.640625 249.1875 389.117188 251.558594 382.914062 252.570312 C 382.488281 252.640625 382.109375 252.707031 381.746094 252.769531 C 380.785156 252.945312 379.917969 253.535156 379.375 254.378906 C 362.90625 280.144531 344.734375 289.253906 328.695312 297.296875 L 327.613281 297.835938 C 326.808594 298.246094 326.222656 298.859375 326.085938 299.449219 C 326.007812 299.785156 326.085938 300.097656 326.335938 300.433594 C 349.027344 330.359375 393.175781 325.277344 417.472656 319.585938 C 420.265625 318.933594 422.285156 316.820312 422.746094 314.074219 C 423.195312 311.386719 422 308.792969 419.636719 307.304688 C 410.339844 301.480469 406.6875 289.496094 411.132812 279.4375 C 419.773438 259.855469 424.484375 258.257812 425.769531 258.257812 C 425.777344 258.257812 425.792969 258.257812 425.808594 258.257812 C 425.894531 258.257812 425.980469 258.273438 426.066406 258.289062 C 431.929688 259.515625 441.164062 260.804688 443.316406 259.847656 C 444.171875 259.472656 446.753906 257.214844 447.480469 254.382812 C 448.011719 252.300781 449.019531 241.917969 449.785156 232.894531 C 449.878906 231.847656 450.414062 230.882812 451.265625 230.234375 L 458.886719 224.441406 C 459.3125 224.113281 459.425781 223.554688 459.160156 223.09375 C 453.230469 213.082031 452.453125 204.234375 452.085938 199.980469 C 452.03125 199.398438 451.992188 198.914062 451.945312 198.542969 C 451.660156 196.359375 451.191406 192.242188 450.925781 189.875 L 445.375 191.789062 C 443.980469 192.269531 442.867188 193.21875 442.230469 194.457031 C 439.65625 199.496094 431.910156 210.597656 415.675781 204.890625 C 413.300781 204.054688 410.496094 203.300781 408.101562 203.300781 Z M 382.496094 326.800781 C 361.324219 326.800781 338.582031 321.347656 324.042969 302.171875 C 323.277344 301.167969 323.011719 299.964844 323.28125 298.796875 C 323.621094 297.355469 324.726562 296.066406 326.324219 295.265625 L 327.40625 294.722656 C 343.113281 286.851562 360.914062 277.925781 376.949219 252.832031 C 377.921875 251.3125 379.480469 250.257812 381.238281 249.9375 C 381.605469 249.871094 382.011719 249.800781 382.449219 249.734375 C 388.476562 248.746094 401.023438 246.699219 403.414062 225.191406 C 403.460938 224.839844 403.394531 224.46875 403.246094 224.128906 C 401.195312 219.433594 396.945312 207.957031 401.726562 202.804688 C 404.453125 199.871094 409.46875 199.65625 416.628906 202.175781 C 430.210938 206.953125 436.894531 198.570312 439.664062 193.144531 C 440.644531 191.242188 442.339844 189.792969 444.433594 189.070312 L 451.683594 186.570312 C 452.09375 186.429688 452.550781 186.484375 452.925781 186.714844 C 453.292969 186.949219 453.539062 187.335938 453.582031 187.773438 C 453.59375 187.84375 454.394531 195.039062 454.800781 198.175781 C 454.851562 198.578125 454.898438 199.105469 454.949219 199.730469 C 455.308594 203.769531 456.039062 212.175781 461.632812 221.628906 C 462.644531 223.335938 462.210938 225.53125 460.628906 226.730469 L 453.003906 232.527344 C 452.800781 232.683594 452.675781 232.902344 452.65625 233.140625 C 452.171875 238.824219 450.976562 252.339844 450.265625 255.101562 C 449.359375 258.648438 446.320312 261.667969 444.480469 262.480469 C 440.847656 264.089844 428.972656 261.824219 425.820312 261.175781 C 425.050781 261.550781 421.003906 264.199219 413.765625 280.601562 C 409.898438 289.363281 413.078125 299.792969 421.160156 304.867188 C 424.53125 306.980469 426.226562 310.691406 425.582031 314.546875 C 424.929688 318.457031 422.074219 321.460938 418.128906 322.382812 C 408.492188 324.648438 395.800781 326.800781 382.496094 326.800781 " fill-opacity="1" fill-rule="nonzero"/><path fill="#000000" d="M 415.363281 224.394531 Z M 411.375 228.375 C 411.164062 228.375 410.960938 228.371094 410.757812 228.355469 C 408.4375 228.210938 404.210938 227.058594 402 220.980469 C 401.726562 220.238281 402.109375 219.410156 402.859375 219.140625 C 403.605469 218.871094 404.429688 219.253906 404.699219 220 C 405.832031 223.097656 407.648438 224.90625 410.089844 225.378906 C 412.613281 225.859375 414.976562 224.742188 415.414062 224.308594 C 415.800781 223.667969 416.625 223.425781 417.300781 223.773438 C 418.011719 224.136719 418.289062 225.003906 417.925781 225.710938 C 417.242188 227.035156 414.375 228.375 411.375 228.375 " fill-opacity="1" fill-rule="nonzero"/><path fill="#000000" d="M 461.011719 222.109375 C 460.609375 222.109375 460.210938 222.09375 459.804688 222.0625 C 459.011719 222 458.414062 221.3125 458.472656 220.519531 C 458.53125 219.726562 459.226562 219.125 460.015625 219.191406 C 463.136719 219.433594 465.527344 218.59375 467.3125 216.648438 C 471.847656 211.679688 471.082031 201.082031 470.652344 197.390625 L 417.851562 201.21875 C 417.058594 201.277344 416.371094 200.679688 416.316406 199.886719 C 416.25 199.09375 416.847656 198.402344 417.644531 198.351562 L 471.792969 194.421875 C 472.554688 194.359375 473.199219 194.886719 473.320312 195.625 C 473.429688 196.269531 475.886719 211.527344 469.4375 218.589844 C 467.296875 220.929688 464.46875 222.109375 461.011719 222.109375 " fill-opacity="1" fill-rule="nonzero"/><path fill="#5479f7" d="M 415.867188 236.242188 C 415.867188 234.046875 414.085938 232.261719 411.890625 232.261719 C 409.691406 232.261719 407.902344 234.046875 407.902344 236.242188 C 407.902344 238.441406 409.691406 240.222656 411.890625 240.222656 C 414.085938 240.222656 415.867188 238.441406 415.867188 236.242188 " fill-opacity="1" fill-rule="nonzero"/><path fill="#ffffff" d="M 125.722656 290.402344 C 128.226562 289.226562 129.464844 287.738281 131.277344 286.035156 C 134.289062 283.203125 138.035156 281.222656 142.105469 280.25 C 145.371094 279.476562 148.90625 278.882812 150.074219 278.6875 C 156.472656 277.640625 160.199219 278.214844 163.441406 280.054688 C 166.6875 281.894531 173.984375 284.4375 168.488281 288.464844 C 168.488281 288.464844 167.765625 289.785156 158.847656 289.082031 C 158.847656 289.082031 156.503906 288.207031 149.027344 294.691406 C 144.746094 298.40625 140.199219 300.996094 137.09375 302.535156 C 135.625 303.265625 133.988281 303.625 132.421875 303.429688 C 124.929688 302.496094 124.488281 290.371094 124.335938 290.347656 L 125.722656 290.402344 " fill-opacity="1" fill-rule="nonzero"/><path fill="#000000" d="M 167.71875 288.175781 C 167.71875 288.175781 167.71875 288.175781 167.71875 288.179688 C 167.71875 288.175781 167.71875 288.175781 167.71875 288.175781 Z M 167.71875 288.179688 C 167.710938 288.195312 167.703125 288.207031 167.695312 288.21875 C 167.703125 288.207031 167.710938 288.195312 167.71875 288.179688 Z M 167.695312 288.21875 C 167.695312 288.21875 167.691406 288.222656 167.691406 288.222656 C 167.691406 288.222656 167.691406 288.21875 167.695312 288.21875 Z M 167.691406 288.222656 C 167.691406 288.222656 167.691406 288.222656 167.691406 288.226562 C 167.691406 288.222656 167.691406 288.222656 167.691406 288.222656 Z M 167.691406 288.226562 Z M 158.808594 290.882812 C 158.808594 290.882812 158.808594 290.882812 158.8125 290.882812 C 158.808594 290.882812 158.808594 290.882812 158.808594 290.882812 Z M 158.8125 290.882812 Z M 158.8125 290.882812 L 158.8125 290.886719 Z M 134.558594 304.96875 C 134.304688 304.96875 134.050781 304.960938 133.789062 304.949219 C 132.996094 304.898438 132.390625 304.21875 132.4375 303.425781 C 132.484375 302.632812 133.179688 302.015625 133.957031 302.074219 C 135.414062 302.160156 136.460938 301.925781 136.921875 301.699219 C 139.917969 300.210938 144.367188 297.679688 148.546875 294.054688 C 155.300781 288.199219 158.367188 287.855469 159.550781 288.109375 C 165.910156 288.601562 167.65625 288.011719 167.964844 287.871094 C 168.007812 287.832031 168.050781 287.792969 168.101562 287.761719 C 169.011719 287.09375 169.535156 286.445312 169.5 286.03125 C 169.410156 284.9375 166.457031 283.441406 164.871094 282.636719 C 164.261719 282.328125 163.683594 282.039062 163.195312 281.757812 C 160.054688 279.972656 156.457031 279.625 150.773438 280.5625 C 147.820312 281.046875 145.097656 281.582031 142.902344 282.101562 C 139.046875 283.019531 135.527344 284.898438 132.726562 287.535156 L 132.5625 287.691406 C 130.707031 289.433594 129.105469 290.941406 125.464844 291.898438 C 124.699219 292.089844 123.910156 291.636719 123.710938 290.867188 C 123.507812 290.097656 123.96875 289.3125 124.738281 289.113281 C 127.667969 288.34375 128.894531 287.191406 130.589844 285.597656 L 130.757812 285.441406 C 133.921875 282.457031 137.890625 280.335938 142.234375 279.304688 C 144.496094 278.761719 147.289062 278.222656 150.304688 277.722656 C 156.699219 276.667969 160.847656 277.117188 164.617188 279.253906 C 165.066406 279.515625 165.605469 279.78125 166.175781 280.066406 C 168.835938 281.421875 172.144531 283.097656 172.367188 285.796875 C 172.488281 287.261719 171.671875 288.667969 169.945312 289.972656 C 169.15625 290.789062 166.886719 291.578125 159.199219 290.96875 C 159.125 290.964844 159.050781 290.953125 158.976562 290.933594 C 158.976562 290.933594 158.972656 290.933594 158.972656 290.933594 C 158.707031 290.933594 156.355469 291.09375 150.433594 296.234375 C 146.023438 300.058594 141.34375 302.71875 138.199219 304.277344 C 137.292969 304.726562 135.996094 304.96875 134.558594 304.96875 " fill-opacity="1" fill-rule="nonzero"/><path fill="#5479f7" d="M 613.433594 322.308594 C 637.003906 315.707031 634.023438 342.445312 634.011719 342.542969 C 634.023438 342.472656 634.03125 342.390625 634.042969 342.320312 C 633.804688 345.671875 633.867188 348.910156 634.285156 352.097656 C 633.980469 352.050781 633.675781 351.988281 633.371094 351.964844 L 591.535156 348.585938 C 592.769531 344.1875 609.03125 323.539062 613.433594 322.308594 " fill-opacity="1" fill-rule="nonzero"/><path fill="#caddff" d="M 674.949219 700.964844 C 678.871094 699.414062 683.140625 699.582031 686.976562 701.433594 C 689.84375 702.816406 692.03125 704.988281 693.484375 707.890625 C 694.214844 709.355469 694.742188 710.964844 695.050781 712.707031 C 696.601562 711.871094 698.191406 711.273438 699.796875 710.933594 C 702.96875 710.261719 706.03125 710.621094 708.898438 712.003906 C 712.738281 713.851562 715.523438 717.089844 716.753906 721.117188 C 717.964844 725.101562 717.550781 729.542969 715.582031 733.628906 C 713.554688 737.828125 710.136719 740.921875 704.820312 743.355469 C 700.058594 745.539062 693.964844 747.136719 686.902344 748.988281 C 684.492188 749.621094 681.757812 750.339844 678.898438 751.128906 C 678.140625 751.339844 677.339844 751.265625 676.628906 750.925781 C 675.921875 750.585938 675.363281 750 675.058594 749.277344 C 673.894531 746.546875 672.75 743.964844 671.742188 741.679688 C 668.792969 735 666.25 729.234375 664.992188 724.15625 C 663.582031 718.476562 663.871094 713.875 665.898438 709.671875 C 667.867188 705.589844 671.082031 702.5 674.949219 700.964844 " fill-opacity="1" fill-rule="nonzero"/><path fill="#000000" d="M 492.535156 655.292969 C 492.105469 655.292969 491.675781 655.128906 491.351562 654.800781 C 490.691406 654.144531 490.691406 653.082031 491.351562 652.425781 L 495.523438 648.257812 C 496.179688 647.601562 497.238281 647.601562 497.898438 648.257812 C 498.554688 648.910156 498.554688 649.972656 497.898438 650.628906 L 493.722656 654.800781 C 493.398438 655.128906 492.96875 655.292969 492.535156 655.292969 " fill-opacity="1" fill-rule="nonzero"/><path fill="#000000" d="M 474.980469 672.855469 C 474.550781 672.855469 474.125 672.6875 473.792969 672.359375 C 473.140625 671.703125 473.140625 670.640625 473.792969 669.988281 L 477.964844 665.816406 C 478.625 665.15625 479.683594 665.15625 480.339844 665.816406 C 480.996094 666.46875 480.996094 667.53125 480.339844 668.1875 L 476.164062 672.359375 C 475.839844 672.6875 475.410156 672.855469 474.980469 672.855469 " fill-opacity="1" fill-rule="nonzero"/><path fill="#000000" d="M 496.710938 672.855469 C 496.28125 672.855469 495.851562 672.6875 495.523438 672.359375 L 491.351562 668.1875 C 490.691406 667.53125 490.691406 666.46875 491.351562 665.816406 C 492.007812 665.15625 493.070312 665.15625 493.722656 665.816406 L 497.898438 669.988281 C 498.554688 670.640625 498.554688 671.703125 497.898438 672.359375 C 497.570312 672.6875 497.140625 672.855469 496.710938 672.855469 " fill-opacity="1" fill-rule="nonzero"/><path fill="#000000" d="M 479.152344 655.292969 C 478.722656 655.292969 478.292969 655.128906 477.964844 654.800781 L 473.792969 650.628906 C 473.140625 649.972656 473.140625 648.910156 473.792969 648.257812 C 474.449219 647.601562 475.511719 647.601562 476.164062 648.257812 L 480.339844 652.425781 C 480.996094 653.082031 480.996094 654.144531 480.339844 654.800781 C 480.011719 655.128906 479.582031 655.292969 479.152344 655.292969 " fill-opacity="1" fill-rule="nonzero"/><path fill="#000000" d="M 129.035156 7.707031 C 128.605469 7.707031 128.175781 7.542969 127.847656 7.21875 C 127.191406 6.558594 127.191406 5.496094 127.847656 4.839844 L 132.019531 0.667969 C 132.675781 0.015625 133.738281 0.015625 134.394531 0.667969 C 135.050781 1.324219 135.050781 2.390625 134.394531 3.046875 L 130.222656 7.21875 C 129.894531 7.542969 129.464844 7.707031 129.035156 7.707031 " fill-opacity="1" fill-rule="nonzero"/><path fill="#000000" d="M 111.480469 25.265625 C 111.046875 25.265625 110.621094 25.101562 110.292969 24.773438 C 109.636719 24.117188 109.636719 23.058594 110.292969 22.398438 L 114.464844 18.226562 C 115.121094 17.570312 116.183594 17.570312 116.835938 18.226562 C 117.496094 18.878906 117.496094 19.945312 116.835938 20.601562 L 112.667969 24.773438 C 112.335938 25.101562 111.910156 25.265625 111.480469 25.265625 " fill-opacity="1" fill-rule="nonzero"/><path fill="#000000" d="M 133.207031 25.265625 C 132.777344 25.265625 132.347656 25.101562 132.019531 24.773438 L 127.851562 20.601562 C 127.191406 19.945312 127.191406 18.878906 127.851562 18.226562 C 128.503906 17.570312 129.566406 17.570312 130.222656 18.226562 L 134.394531 22.398438 C 135.050781 23.058594 135.050781 24.117188 134.394531 24.773438 C 134.066406 25.101562 133.636719 25.265625 133.207031 25.265625 " fill-opacity="1" fill-rule="nonzero"/><path fill="#000000" d="M 115.648438 7.707031 C 115.21875 7.707031 114.792969 7.542969 114.460938 7.21875 L 110.292969 3.046875 C 109.632812 2.390625 109.632812 1.324219 110.292969 0.667969 C 110.945312 0.015625 112.007812 0.015625 112.664062 0.667969 L 116.835938 4.839844 C 117.492188 5.496094 117.492188 6.558594 116.835938 7.21875 C 116.507812 7.542969 116.082031 7.707031 115.648438 7.707031 " fill-opacity="1" fill-rule="nonzero"/><path fill="#000000" d="M 764.109375 634.546875 C 763.679688 634.546875 763.25 634.382812 762.921875 634.054688 C 762.269531 633.398438 762.269531 632.335938 762.921875 631.679688 L 767.09375 627.507812 C 767.753906 626.847656 768.816406 626.847656 769.46875 627.507812 C 770.125 628.164062 770.125 629.226562 769.46875 629.882812 L 765.300781 634.054688 C 764.96875 634.382812 764.539062 634.546875 764.109375 634.546875 " fill-opacity="1" fill-rule="nonzero"/><path fill="#000000" d="M 746.558594 652.105469 C 746.132812 652.105469 745.699219 651.941406 745.371094 651.609375 C 744.71875 650.957031 744.71875 649.894531 745.371094 649.238281 L 749.546875 645.0625 C 750.203125 644.40625 751.257812 644.40625 751.917969 645.0625 C 752.570312 645.722656 752.570312 646.785156 751.917969 647.441406 L 747.75 651.609375 C 747.414062 651.941406 746.988281 652.105469 746.558594 652.105469 " fill-opacity="1" fill-rule="nonzero"/><path fill="#000000" d="M 768.28125 652.105469 C 767.851562 652.105469 767.425781 651.941406 767.09375 651.613281 L 762.921875 647.441406 C 762.269531 646.785156 762.269531 645.722656 762.921875 645.066406 C 763.578125 644.410156 764.636719 644.410156 765.300781 645.066406 L 769.46875 649.242188 C 770.125 649.894531 770.125 650.957031 769.46875 651.613281 C 769.140625 651.941406 768.710938 652.105469 768.28125 652.105469 " fill-opacity="1" fill-rule="nonzero"/><path fill="#000000" d="M 750.730469 634.542969 C 750.300781 634.542969 749.871094 634.378906 749.546875 634.054688 L 745.371094 629.878906 C 744.71875 629.222656 744.71875 628.160156 745.371094 627.507812 C 746.027344 626.847656 747.09375 626.847656 747.75 627.507812 L 751.917969 631.679688 C 752.570312 632.332031 752.570312 633.394531 751.917969 634.054688 C 751.589844 634.378906 751.160156 634.542969 750.730469 634.542969 " fill-opacity="1" fill-rule="nonzero"/><path fill="#000000" d="M 541.179688 673.917969 C 538.503906 673.917969 536.332031 676.085938 536.332031 678.765625 C 536.332031 681.4375 538.503906 683.609375 541.179688 683.609375 C 543.855469 683.609375 546.027344 681.4375 546.027344 678.765625 C 546.027344 676.085938 543.855469 673.917969 541.179688 673.917969 Z M 541.179688 686.492188 C 536.921875 686.492188 533.453125 683.023438 533.453125 678.765625 C 533.453125 674.503906 536.921875 671.035156 541.179688 671.035156 C 545.441406 671.035156 548.902344 674.503906 548.902344 678.765625 C 548.902344 683.023438 545.441406 686.492188 541.179688 686.492188 " fill-opacity="1" fill-rule="nonzero"/><path fill="#000000" d="M 520.617188 781.890625 C 517.945312 781.890625 515.769531 784.066406 515.769531 786.742188 C 515.769531 789.414062 517.945312 791.589844 520.617188 791.589844 C 523.292969 791.589844 525.46875 789.414062 525.46875 786.742188 C 525.46875 784.066406 523.292969 781.890625 520.617188 781.890625 Z M 520.617188 794.464844 C 516.359375 794.464844 512.894531 791 512.894531 786.742188 C 512.894531 782.480469 516.359375 779.011719 520.617188 779.011719 C 524.878906 779.011719 528.339844 782.480469 528.339844 786.742188 C 528.339844 791 524.878906 794.464844 520.617188 794.464844 " fill-opacity="1" fill-rule="nonzero"/><path fill="#000000" d="M 51.257812 71.105469 C 46.460938 71.105469 42.558594 75.003906 42.558594 79.800781 C 42.558594 84.59375 46.460938 88.496094 51.257812 88.496094 C 56.050781 88.496094 59.949219 84.59375 59.949219 79.800781 C 59.949219 75.003906 56.050781 71.105469 51.257812 71.105469 Z M 51.257812 91.375 C 44.875 91.375 39.683594 86.179688 39.683594 79.800781 C 39.683594 73.414062 44.875 68.222656 51.257812 68.222656 C 57.636719 68.222656 62.828125 73.414062 62.828125 79.800781 C 62.828125 86.179688 57.636719 91.375 51.257812 91.375 " fill-opacity="1" fill-rule="nonzero"/><path fill="#000000" d="M 44.339844 121.542969 C 41.359375 121.542969 38.9375 123.964844 38.9375 126.945312 C 38.9375 129.933594 41.359375 132.355469 44.339844 132.355469 C 47.320312 132.355469 49.746094 129.933594 49.746094 126.945312 C 49.746094 123.964844 47.320312 121.542969 44.339844 121.542969 Z M 44.339844 135.234375 C 39.773438 135.234375 36.058594 131.511719 36.058594 126.945312 C 36.058594 122.382812 39.773438 118.664062 44.339844 118.664062 C 48.910156 118.664062 52.625 122.382812 52.625 126.945312 C 52.625 131.511719 48.910156 135.234375 44.339844 135.234375 " fill-opacity="1" fill-rule="nonzero"/><path fill="#ffffff" d="M 669.84375 501.039062 C 671.445312 498.601562 673.925781 496.984375 676.835938 496.5 C 679.011719 496.136719 681.121094 496.492188 683.101562 497.554688 C 684.101562 498.089844 685.046875 498.796875 685.914062 499.65625 C 686.457031 498.5625 687.121094 497.589844 687.890625 496.757812 C 689.417969 495.105469 691.300781 494.085938 693.476562 493.71875 C 696.386719 493.234375 699.261719 493.957031 701.566406 495.746094 C 703.84375 497.515625 705.382812 500.195312 705.898438 503.292969 C 706.433594 506.480469 705.726562 509.597656 703.695312 513.105469 C 701.871094 516.242188 699.058594 519.585938 695.800781 523.457031 C 694.6875 524.78125 693.429688 526.273438 692.125 527.867188 C 691.78125 528.289062 691.292969 528.570312 690.753906 528.65625 C 690.222656 528.746094 689.671875 528.636719 689.207031 528.351562 C 687.460938 527.273438 685.78125 526.265625 684.296875 525.378906 C 679.957031 522.773438 676.207031 520.527344 673.46875 518.152344 C 670.40625 515.5 668.730469 512.777344 668.195312 509.589844 C 667.679688 506.492188 668.265625 503.457031 669.84375 501.039062 " fill-opacity="1" fill-rule="nonzero"/></svg>