<svg xmlns="http://www.w3.org/2000/svg" xmlns:xlink="http://www.w3.org/1999/xlink" width="1080" zoomAndPan="magnify" viewBox="0 0 810 809.999993" height="1080" preserveAspectRatio="xMidYMid meet" version="1.0"><path fill="#caddff" d="M 80.523438 239.648438 C 65.023438 274.003906 42.085938 339.761719 51.304688 421.5625 C 63.136719 526.511719 121.703125 609.25 178.679688 655.742188 C 367.734375 810.023438 713.816406 710.355469 759.652344 565.023438 C 767.964844 538.660156 765.628906 513.230469 762.746094 481.941406 C 753.597656 382.421875 705.410156 352.839844 673.003906 247.171875 C 643.507812 151.003906 672.589844 140.183594 645.003906 97.4375 C 585.175781 4.695312 412.476562 0.0195312 293.644531 44.484375 C 248 61.558594 137.242188 113.949219 80.523438 239.648438 " fill-opacity="1" fill-rule="nonzero"/><path fill="#99b9ff" d="M 237.863281 45.425781 C 249.023438 40.511719 262.054688 45.582031 266.964844 56.742188 C 271.875 67.902344 266.808594 80.929688 255.644531 85.84375 C 244.484375 90.753906 231.453125 85.683594 226.542969 74.523438 C 221.632812 63.363281 226.703125 50.335938 237.863281 45.425781 Z M 204.414062 79.574219 L 207.867188 87.425781 L 217.0625 85.632812 C 218.1875 87.308594 219.433594 88.867188 220.792969 90.296875 L 217.054688 98.875 L 223.972656 103.945312 L 231.042969 97.800781 C 232.832031 98.667969 234.695312 99.394531 236.601562 99.960938 L 237.65625 109.269531 L 246.183594 110.203125 L 249.222656 101.355469 C 251.195312 101.21875 253.167969 100.90625 255.128906 100.4375 L 260.695312 107.96875 L 268.546875 104.515625 L 266.753906 95.320312 C 268.429688 94.195312 269.988281 92.953125 271.417969 91.59375 L 279.996094 95.328125 L 285.070312 88.410156 L 278.917969 81.34375 C 279.792969 79.550781 280.515625 77.691406 281.082031 75.78125 L 290.390625 74.730469 L 291.324219 66.203125 L 282.476562 63.160156 C 282.339844 61.191406 282.03125 59.222656 281.558594 57.257812 L 289.09375 51.695312 L 285.640625 43.839844 L 276.445312 45.632812 C 275.320312 43.960938 274.074219 42.398438 272.714844 40.96875 L 276.449219 32.390625 L 269.535156 27.320312 L 262.464844 33.472656 C 260.675781 32.597656 258.8125 31.871094 256.902344 31.304688 L 255.851562 21.996094 L 247.324219 21.0625 L 244.28125 29.914062 C 242.3125 30.046875 240.339844 30.359375 238.378906 30.832031 L 232.8125 23.296875 L 224.960938 26.75 L 226.753906 35.945312 C 225.078125 37.070312 223.519531 38.316406 222.085938 39.671875 L 213.507812 35.941406 L 208.4375 42.855469 L 214.589844 49.921875 C 213.714844 51.714844 212.992188 53.578125 212.425781 55.484375 L 203.113281 56.535156 L 202.179688 65.0625 L 211.027344 68.105469 C 211.164062 70.074219 211.472656 72.046875 211.949219 74.011719 L 204.414062 79.574219 " fill-opacity="1" fill-rule="nonzero"/><path fill="#000000" d="M 241.796875 46.945312 L 241.804688 46.945312 Z M 250.683594 46.363281 C 247.835938 46.363281 245 46.953125 242.316406 48.132812 C 237.238281 50.367188 233.328125 54.453125 231.316406 59.625 C 229.304688 64.796875 229.429688 70.445312 231.660156 75.53125 C 236.277344 86.019531 248.570312 90.796875 259.058594 86.179688 C 269.546875 81.566406 274.328125 69.28125 269.714844 58.789062 C 267.480469 53.707031 263.398438 49.804688 258.222656 47.785156 C 255.78125 46.839844 253.226562 46.363281 250.683594 46.363281 Z M 250.722656 90.527344 C 241.730469 90.527344 233.140625 85.316406 229.292969 76.570312 C 226.777344 70.855469 226.640625 64.507812 228.90625 58.683594 C 231.167969 52.863281 235.5625 48.28125 241.277344 45.765625 C 246.992188 43.25 253.339844 43.113281 259.160156 45.375 C 264.980469 47.636719 269.570312 52.03125 272.082031 57.746094 C 277.273438 69.542969 271.898438 83.359375 260.101562 88.554688 C 257.046875 89.894531 253.859375 90.527344 250.722656 90.527344 Z M 242.761719 109.621094 L 249.230469 110.324219 L 251.933594 102.457031 C 252.105469 101.96875 252.550781 101.625 253.070312 101.585938 C 254.957031 101.460938 256.871094 101.15625 258.761719 100.703125 C 259.261719 100.582031 259.796875 100.773438 260.105469 101.195312 L 265.058594 107.894531 L 271.011719 105.273438 L 269.417969 97.09375 C 269.316406 96.585938 269.535156 96.0625 269.964844 95.773438 C 271.582031 94.691406 273.09375 93.476562 274.460938 92.175781 C 274.839844 91.820312 275.394531 91.71875 275.871094 91.929688 L 283.5 95.253906 L 287.347656 90.003906 L 281.875 83.71875 C 281.535156 83.328125 281.460938 82.769531 281.691406 82.304688 C 282.53125 80.578125 283.230469 78.773438 283.777344 76.9375 C 283.925781 76.441406 284.355469 76.078125 284.871094 76.019531 L 293.152344 75.082031 L 293.863281 68.617188 L 285.992188 65.910156 C 285.5 65.746094 285.15625 65.292969 285.121094 64.773438 C 284.992188 62.894531 284.695312 60.980469 284.234375 59.089844 C 284.113281 58.582031 284.304688 58.054688 284.722656 57.742188 L 291.425781 52.792969 L 288.808594 46.832031 L 280.628906 48.429688 C 280.117188 48.527344 279.597656 48.316406 279.304688 47.878906 C 278.21875 46.261719 277.007812 44.75 275.710938 43.386719 C 275.351562 43.007812 275.253906 42.453125 275.460938 41.976562 L 278.785156 34.347656 L 273.539062 30.503906 L 267.25 35.96875 C 266.855469 36.3125 266.300781 36.382812 265.832031 36.15625 C 264.113281 35.316406 262.308594 34.617188 260.472656 34.074219 C 259.972656 33.921875 259.609375 33.492188 259.554688 32.980469 L 258.613281 24.699219 L 252.148438 23.988281 L 249.441406 31.855469 C 249.273438 32.347656 248.824219 32.6875 248.308594 32.726562 C 246.421875 32.855469 244.507812 33.15625 242.617188 33.613281 C 242.113281 33.734375 241.582031 33.542969 241.273438 33.125 L 236.320312 26.421875 L 230.363281 29.042969 L 231.960938 37.21875 C 232.058594 37.734375 231.84375 38.25 231.410156 38.539062 C 229.796875 39.628906 228.285156 40.835938 226.914062 42.136719 C 226.535156 42.496094 225.980469 42.59375 225.503906 42.386719 L 217.875 39.0625 L 214.027344 44.308594 L 219.5 50.597656 C 219.839844 50.988281 219.914062 51.550781 219.6875 52.015625 C 218.847656 53.730469 218.144531 55.535156 217.601562 57.375 C 217.453125 57.871094 217.023438 58.234375 216.503906 58.296875 L 208.222656 59.230469 L 207.515625 65.699219 L 215.382812 68.402344 C 215.875 68.574219 216.21875 69.019531 216.253906 69.539062 C 216.382812 71.421875 216.679688 73.332031 217.140625 75.230469 C 217.261719 75.738281 217.070312 76.265625 216.652344 76.578125 L 209.949219 81.527344 L 212.570312 87.480469 L 220.75 85.882812 C 221.261719 85.785156 221.78125 86.003906 222.070312 86.433594 C 223.15625 88.050781 224.363281 89.558594 225.667969 90.933594 C 226.027344 91.304688 226.121094 91.867188 225.914062 92.34375 L 222.589844 99.964844 L 227.839844 103.816406 L 234.128906 98.34375 C 234.515625 98.003906 235.074219 97.929688 235.542969 98.15625 C 237.265625 98.996094 239.070312 99.695312 240.90625 100.242188 C 241.40625 100.390625 241.765625 100.820312 241.824219 101.339844 Z M 250.121094 113.023438 C 250.070312 113.023438 250.023438 113.023438 249.976562 113.015625 L 241.453125 112.078125 C 240.851562 112.015625 240.375 111.539062 240.304688 110.9375 L 239.347656 102.46875 C 237.929688 102.011719 236.539062 101.472656 235.1875 100.851562 L 228.757812 106.449219 C 228.304688 106.84375 227.632812 106.875 227.144531 106.515625 L 220.226562 101.445312 C 219.738281 101.085938 219.5625 100.4375 219.804688 99.882812 L 223.203125 92.082031 C 222.214844 90.988281 221.277344 89.816406 220.414062 88.589844 L 212.050781 90.21875 C 211.457031 90.335938 210.859375 90.027344 210.617188 89.472656 L 207.164062 81.621094 C 206.917969 81.066406 207.09375 80.417969 207.578125 80.058594 L 214.429688 74.996094 C 214.109375 73.523438 213.878906 72.042969 213.742188 70.574219 L 205.695312 67.8125 C 205.121094 67.613281 204.761719 67.050781 204.828125 66.445312 L 205.761719 57.917969 C 205.828125 57.320312 206.300781 56.847656 206.902344 56.777344 L 215.375 55.820312 C 215.832031 54.398438 216.371094 53.003906 216.992188 51.65625 L 211.394531 45.226562 C 211 44.769531 210.972656 44.101562 211.328125 43.613281 L 216.398438 36.695312 C 216.757812 36.207031 217.40625 36.03125 217.960938 36.277344 L 225.761719 39.675781 C 226.855469 38.6875 228.027344 37.746094 229.257812 36.882812 L 227.625 28.523438 C 227.507812 27.925781 227.820312 27.332031 228.375 27.085938 L 236.222656 23.636719 C 236.78125 23.390625 237.429688 23.5625 237.785156 24.050781 L 242.847656 30.902344 C 244.320312 30.582031 245.800781 30.351562 247.269531 30.210938 L 250.035156 22.167969 C 250.230469 21.59375 250.796875 21.234375 251.398438 21.304688 L 259.925781 22.234375 C 260.527344 22.304688 261 22.773438 261.070312 23.375 L 262.03125 31.84375 C 263.445312 32.300781 264.839844 32.84375 266.1875 33.460938 L 272.617188 27.871094 C 273.078125 27.46875 273.746094 27.445312 274.234375 27.800781 L 281.148438 32.871094 C 281.636719 33.226562 281.8125 33.875 281.570312 34.429688 L 278.171875 42.234375 C 279.160156 43.324219 280.097656 44.496094 280.964844 45.730469 L 289.328125 44.097656 C 289.921875 43.984375 290.515625 44.292969 290.757812 44.847656 L 294.214844 52.695312 C 294.457031 53.25 294.285156 53.898438 293.796875 54.261719 L 286.945312 59.320312 C 287.265625 60.789062 287.496094 62.273438 287.632812 63.738281 L 295.683594 66.507812 C 296.253906 66.699219 296.613281 67.269531 296.546875 67.867188 L 295.613281 76.394531 C 295.546875 76.996094 295.074219 77.472656 294.472656 77.539062 L 286.003906 78.5 C 285.546875 79.914062 285.003906 81.308594 284.382812 82.65625 L 289.980469 89.089844 C 290.378906 89.542969 290.40625 90.214844 290.046875 90.703125 L 284.976562 97.617188 C 284.617188 98.105469 283.96875 98.28125 283.414062 98.039062 L 275.613281 94.644531 C 274.519531 95.628906 273.351562 96.566406 272.121094 97.433594 L 273.75 105.796875 C 273.867188 106.386719 273.554688 106.984375 273 107.226562 L 265.148438 110.679688 C 264.597656 110.921875 263.949219 110.75 263.589844 110.265625 L 258.527344 103.414062 C 257.058594 103.734375 255.578125 103.960938 254.109375 104.101562 L 251.339844 112.152344 C 251.160156 112.675781 250.664062 113.023438 250.121094 113.023438 " fill-opacity="1" fill-rule="nonzero"/><path fill="#99b9ff" d="M 135.75 124.921875 C 154.851562 116.515625 177.148438 125.183594 185.550781 144.285156 C 193.953125 163.382812 185.28125 185.679688 166.179688 194.078125 C 147.082031 202.484375 124.785156 193.808594 116.382812 174.710938 C 107.980469 155.613281 116.652344 133.320312 135.75 124.921875 Z M 78.515625 183.355469 L 84.425781 196.789062 L 100.15625 193.71875 C 102.085938 196.585938 104.21875 199.257812 106.546875 201.707031 L 100.152344 216.382812 L 111.988281 225.058594 L 124.082031 214.535156 C 127.144531 216.03125 130.328125 217.269531 133.597656 218.234375 L 135.402344 234.167969 L 149.992188 235.769531 L 155.195312 220.625 C 158.566406 220.394531 161.941406 219.867188 165.300781 219.058594 L 174.824219 231.945312 L 188.257812 226.039062 L 185.191406 210.304688 C 188.054688 208.382812 190.726562 206.242188 193.175781 203.917969 L 207.855469 210.3125 L 216.53125 198.480469 L 206.007812 186.386719 C 207.503906 183.316406 208.738281 180.136719 209.707031 176.867188 L 225.640625 175.0625 L 227.238281 160.476562 L 212.097656 155.273438 C 211.867188 151.898438 211.339844 148.523438 210.527344 145.167969 L 223.417969 135.644531 L 217.507812 122.210938 L 201.773438 125.28125 C 199.847656 122.414062 197.714844 119.742188 195.390625 117.296875 L 201.785156 102.613281 L 189.949219 93.9375 L 177.851562 104.460938 C 174.789062 102.96875 171.605469 101.730469 168.335938 100.761719 L 166.53125 84.832031 L 151.941406 83.230469 L 146.738281 98.371094 C 143.367188 98.605469 139.992188 99.132812 136.636719 99.945312 L 127.109375 87.054688 L 113.675781 92.960938 L 116.742188 108.691406 C 113.878906 110.621094 111.207031 112.75 108.757812 115.082031 L 94.082031 108.683594 L 85.402344 120.523438 L 95.925781 132.613281 C 94.433594 135.679688 93.195312 138.863281 92.222656 142.132812 L 76.292969 143.933594 L 74.695312 158.523438 L 89.835938 163.730469 C 90.066406 167.09375 90.597656 170.476562 91.410156 173.828125 L 78.515625 183.355469 " fill-opacity="1" fill-rule="nonzero"/><path fill="#000000" d="M 143.003906 128.714844 C 134.082031 132.644531 127.222656 139.804688 123.691406 148.886719 C 120.15625 157.972656 120.375 167.886719 124.300781 176.804688 C 128.222656 185.726562 135.386719 192.585938 144.46875 196.121094 C 153.554688 199.652344 163.46875 199.4375 172.390625 195.511719 C 181.3125 191.585938 188.167969 184.425781 191.703125 175.339844 C 195.234375 166.257812 195.019531 156.34375 191.09375 147.425781 C 187.171875 138.503906 180.007812 131.644531 170.925781 128.113281 C 161.839844 124.578125 151.925781 124.792969 143.003906 128.714844 Z M 157.707031 201.210938 C 152.921875 201.210938 148.128906 200.320312 143.53125 198.53125 C 133.804688 194.746094 126.132812 187.402344 121.929688 177.851562 C 117.726562 168.296875 117.496094 157.679688 121.277344 147.953125 C 125.0625 138.222656 132.40625 130.550781 141.960938 126.347656 C 151.515625 122.148438 162.136719 121.914062 171.859375 125.699219 C 181.589844 129.484375 189.261719 136.828125 193.464844 146.378906 C 197.667969 155.933594 197.898438 166.550781 194.117188 176.277344 C 190.332031 186.007812 182.988281 193.679688 173.433594 197.878906 C 168.390625 200.097656 163.054688 201.210938 157.707031 201.210938 Z M 143.300781 235.613281 L 155.832031 236.984375 L 160.699219 222.820312 C 160.871094 222.332031 161.316406 221.984375 161.835938 221.953125 C 165.113281 221.726562 168.441406 221.207031 171.722656 220.414062 C 172.230469 220.289062 172.761719 220.480469 173.066406 220.902344 L 181.980469 232.960938 L 193.519531 227.882812 L 190.648438 213.167969 C 190.550781 212.65625 190.765625 212.136719 191.199219 211.84375 C 194 209.960938 196.628906 207.859375 199.015625 205.597656 C 199.390625 205.238281 199.945312 205.136719 200.421875 205.347656 L 214.152344 211.328125 L 221.605469 201.164062 L 211.761719 189.847656 C 211.417969 189.457031 211.347656 188.898438 211.574219 188.433594 C 213.035156 185.4375 214.253906 182.300781 215.199219 179.113281 C 215.347656 178.617188 215.777344 178.253906 216.292969 178.195312 L 231.195312 176.507812 L 232.570312 163.976562 L 218.410156 159.109375 C 217.917969 158.941406 217.574219 158.496094 217.539062 157.976562 C 217.308594 154.699219 216.792969 151.375 215.996094 148.085938 C 215.875 147.582031 216.066406 147.050781 216.488281 146.742188 L 228.546875 137.832031 L 223.472656 126.296875 L 208.753906 129.164062 C 208.242188 129.261719 207.722656 129.046875 207.429688 128.613281 C 205.546875 125.808594 203.441406 123.179688 201.179688 120.800781 C 200.824219 120.421875 200.726562 119.871094 200.933594 119.390625 L 206.914062 105.664062 L 196.746094 98.210938 L 185.433594 108.058594 C 185.042969 108.394531 184.484375 108.46875 184.015625 108.242188 C 181.023438 106.78125 177.890625 105.5625 174.699219 104.617188 C 174.199219 104.46875 173.839844 104.039062 173.78125 103.519531 L 172.09375 88.617188 L 159.558594 87.246094 L 154.695312 101.40625 C 154.523438 101.898438 154.078125 102.242188 153.558594 102.277344 C 150.285156 102.503906 146.957031 103.023438 143.671875 103.820312 C 143.164062 103.9375 142.632812 103.746094 142.324219 103.328125 L 133.414062 91.269531 L 121.875 96.34375 L 124.746094 111.0625 C 124.84375 111.570312 124.628906 112.09375 124.195312 112.386719 C 121.386719 114.269531 118.757812 116.375 116.378906 118.632812 C 116 118.992188 115.449219 119.089844 114.972656 118.882812 L 101.242188 112.898438 L 93.785156 123.070312 L 103.632812 134.378906 C 103.976562 134.773438 104.050781 135.328125 103.820312 135.796875 C 102.363281 138.785156 101.140625 141.921875 100.195312 145.113281 C 100.050781 145.613281 99.617188 145.976562 99.101562 146.035156 L 84.195312 147.722656 L 82.824219 160.25 L 96.984375 165.117188 C 97.480469 165.289062 97.820312 165.734375 97.855469 166.253906 C 98.082031 169.523438 98.601562 172.851562 99.394531 176.140625 C 99.519531 176.648438 99.324219 177.175781 98.90625 177.488281 L 86.847656 186.394531 L 91.921875 197.933594 L 106.640625 195.0625 C 107.152344 194.960938 107.675781 195.183594 107.964844 195.617188 C 109.847656 198.421875 111.949219 201.046875 114.210938 203.429688 C 114.574219 203.808594 114.667969 204.359375 114.460938 204.839844 L 108.480469 218.566406 L 118.644531 226.023438 L 129.960938 216.175781 C 130.351562 215.835938 130.910156 215.761719 131.375 215.988281 C 134.371094 217.445312 137.503906 218.667969 140.695312 219.613281 C 141.195312 219.761719 141.554688 220.191406 141.613281 220.703125 Z M 156.722656 239.675781 C 156.675781 239.675781 156.628906 239.671875 156.582031 239.667969 L 141.992188 238.070312 C 141.390625 238.003906 140.914062 237.53125 140.84375 236.929688 L 139.136719 221.839844 C 136.367188 220.984375 133.644531 219.925781 131.019531 218.6875 L 119.566406 228.65625 C 119.109375 229.046875 118.4375 229.078125 117.949219 228.722656 L 106.113281 220.042969 C 105.628906 219.683594 105.449219 219.035156 105.691406 218.480469 L 111.746094 204.585938 C 109.796875 202.472656 107.972656 200.183594 106.300781 197.769531 L 91.402344 200.671875 C 90.808594 200.789062 90.214844 200.480469 89.96875 199.925781 L 84.0625 186.492188 C 83.816406 185.941406 83.988281 185.289062 84.476562 184.929688 L 96.683594 175.910156 C 96.03125 173.042969 95.578125 170.152344 95.339844 167.289062 L 81.003906 162.363281 C 80.429688 162.167969 80.070312 161.597656 80.136719 160.996094 L 81.734375 146.410156 C 81.800781 145.808594 82.277344 145.335938 82.878906 145.261719 L 97.964844 143.554688 C 98.828125 140.785156 99.886719 138.0625 101.121094 135.4375 L 91.15625 123.984375 C 90.757812 123.527344 90.730469 122.855469 91.085938 122.375 L 99.765625 110.535156 C 100.125 110.046875 100.773438 109.871094 101.324219 110.113281 L 115.222656 116.167969 C 117.335938 114.222656 119.621094 112.394531 122.042969 110.722656 L 119.132812 95.824219 C 119.019531 95.230469 119.328125 94.636719 119.886719 94.390625 L 133.316406 88.484375 C 133.875 88.234375 134.519531 88.414062 134.882812 88.898438 L 143.898438 101.105469 C 146.765625 100.453125 149.660156 100 152.523438 99.761719 L 157.449219 85.425781 C 157.644531 84.855469 158.214844 84.496094 158.8125 84.558594 L 173.402344 86.160156 C 174.003906 86.226562 174.480469 86.695312 174.546875 87.300781 L 176.257812 102.382812 C 179.027344 103.246094 181.75 104.304688 184.375 105.542969 L 195.828125 95.574219 C 196.285156 95.179688 196.957031 95.148438 197.445312 95.507812 L 209.277344 104.1875 C 209.765625 104.546875 209.941406 105.195312 209.699219 105.75 L 203.644531 119.644531 C 205.59375 121.753906 207.421875 124.042969 209.09375 126.457031 L 223.992188 123.558594 C 224.585938 123.441406 225.179688 123.75 225.421875 124.304688 L 231.335938 137.742188 C 231.578125 138.292969 231.40625 138.9375 230.917969 139.296875 L 218.710938 148.316406 C 219.363281 151.183594 219.816406 154.074219 220.054688 156.941406 L 234.390625 161.867188 C 234.960938 162.0625 235.324219 162.628906 235.257812 163.234375 L 233.65625 177.816406 C 233.589844 178.421875 233.117188 178.898438 232.515625 178.964844 L 217.429688 180.671875 C 216.566406 183.441406 215.507812 186.164062 214.273438 188.792969 L 224.238281 200.242188 C 224.636719 200.703125 224.664062 201.367188 224.304688 201.855469 L 215.628906 213.695312 C 215.269531 214.179688 214.621094 214.359375 214.066406 214.113281 L 200.167969 208.0625 C 198.054688 210.007812 195.769531 211.839844 193.355469 213.507812 L 196.257812 228.40625 C 196.375 229 196.0625 229.59375 195.511719 229.839844 L 182.078125 235.746094 C 181.519531 235.988281 180.871094 235.816406 180.515625 235.332031 L 171.492188 223.125 C 168.628906 223.777344 165.734375 224.230469 162.871094 224.46875 L 157.945312 238.804688 C 157.761719 239.332031 157.269531 239.675781 156.722656 239.675781 " fill-opacity="1" fill-rule="nonzero"/><path fill="#99b9ff" d="M 749.179688 518.582031 L 326.707031 459.835938 C 316.097656 458.480469 308.148438 449.457031 308.148438 438.761719 L 302.351562 144.105469 C 302.351562 144.105469 311.980469 137.160156 317.441406 134.5 C 320.21875 133.148438 323.417969 132.550781 326.746094 132.976562 L 747.960938 186.691406 C 758.570312 188.046875 766.519531 197.070312 766.519531 207.765625 L 766.519531 497.175781 C 766.519531 502.351562 764.152344 506.917969 760.488281 509.925781 C 757.121094 512.699219 749.179688 518.582031 749.179688 518.582031 " fill-opacity="1" fill-rule="nonzero"/><path fill="#ffffff" d="M 736.285156 522.5 L 315.070312 468.785156 C 304.460938 467.429688 296.511719 458.40625 296.511719 447.710938 L 296.511719 158.304688 C 296.511719 148.359375 305.242188 140.671875 315.109375 141.925781 L 736.328125 195.640625 C 746.933594 196.992188 754.882812 206.019531 754.882812 216.710938 L 754.882812 506.125 C 754.882812 516.074219 746.152344 523.757812 736.285156 522.5 " fill-opacity="1" fill-rule="nonzero"/><path fill="#5479f7" d="M 736.453125 521.214844 C 740.789062 521.765625 745.152344 520.425781 748.433594 517.539062 C 751.707031 514.652344 753.59375 510.492188 753.59375 506.125 L 753.59375 216.710938 C 753.59375 206.695312 746.101562 198.1875 736.167969 196.917969 L 314.945312 143.210938 C 310.609375 142.65625 306.246094 143.996094 302.96875 146.882812 C 299.691406 149.769531 297.808594 153.929688 297.808594 158.296875 L 297.808594 447.710938 C 297.808594 457.726562 305.300781 466.234375 315.234375 467.5 Z M 738.375 523.925781 C 737.625 523.925781 736.875 523.878906 736.125 523.78125 L 314.90625 470.070312 C 303.683594 468.636719 295.21875 459.027344 295.21875 447.710938 L 295.21875 158.296875 C 295.21875 153.183594 297.421875 148.316406 301.257812 144.941406 C 305.09375 141.5625 310.203125 139.996094 315.273438 140.636719 L 736.492188 194.355469 C 747.71875 195.785156 756.179688 205.394531 756.179688 216.710938 L 756.179688 506.125 C 756.179688 511.238281 753.976562 516.105469 750.140625 519.484375 C 746.875 522.359375 742.683594 523.925781 738.375 523.925781 " fill-opacity="1" fill-rule="nonzero"/><path fill="#caddff" d="M 727.335938 510.566406 L 325.136719 459.277344 C 317.425781 458.292969 311.644531 451.734375 311.644531 443.953125 L 311.644531 164.792969 C 311.644531 158.148438 317.472656 153.015625 324.0625 153.855469 L 726.261719 205.144531 C 733.972656 206.128906 739.757812 212.691406 739.757812 220.46875 L 739.757812 499.632812 C 739.757812 506.273438 733.921875 511.410156 727.335938 510.566406 " fill-opacity="1" fill-rule="nonzero"/><path fill="#99b9ff" d="M 490.554688 692.945312 L 57.34375 637.078125 C 53.953125 636.644531 52.042969 633.804688 52.085938 630.964844 C 52.117188 629.007812 52.273438 615.21875 52.273438 615.21875 L 281.332031 484.28125 C 292.808594 477.726562 307.65625 475.191406 320.765625 476.871094 L 748.5 532.046875 C 751.078125 532.375 753.285156 534.050781 754.304688 536.4375 L 754.992188 538.050781 C 754.992188 538.050781 754.628906 549.546875 754.773438 552.234375 C 754.890625 554.332031 753.945312 556.5 751.746094 557.757812 L 528.4375 685.429688 C 516.957031 691.984375 503.660156 694.621094 490.554688 692.945312 " fill-opacity="1" fill-rule="nonzero"/><path fill="#5479f7" d="M 490.714844 691.660156 C 503.464844 693.292969 516.632812 690.679688 527.792969 684.308594 L 751.097656 556.636719 C 752.714844 555.714844 753.582031 554.136719 753.480469 552.304688 C 753.339844 549.800781 753.628906 540.128906 753.691406 538.292969 L 753.117188 536.945312 C 752.273438 534.992188 750.445312 533.605469 748.335938 533.332031 L 320.601562 478.160156 C 307.335938 476.457031 292.894531 479.167969 281.972656 485.40625 L 53.5625 615.972656 C 53.527344 618.863281 53.40625 629.300781 53.378906 630.988281 C 53.347656 633.109375 54.753906 635.441406 57.507812 635.796875 Z M 498.175781 694.722656 C 495.578125 694.722656 492.96875 694.558594 490.386719 694.226562 L 57.179688 638.359375 C 52.917969 637.816406 50.742188 634.222656 50.792969 630.945312 C 50.820312 628.988281 50.980469 615.207031 50.980469 615.207031 L 50.988281 614.460938 L 51.632812 614.09375 L 280.6875 483.15625 C 292.082031 476.652344 307.125 473.820312 320.929688 475.589844 L 748.667969 530.765625 C 751.683594 531.152344 754.296875 533.132812 755.492188 535.929688 L 756.292969 537.800781 L 756.285156 538.089844 C 756.285156 538.203125 755.925781 549.5625 756.0625 552.164062 C 756.222656 554.96875 754.847656 557.476562 752.386719 558.882812 L 529.078125 686.550781 C 519.695312 691.910156 508.953125 694.722656 498.175781 694.722656 " fill-opacity="1" fill-rule="nonzero"/><path fill="#ffffff" d="M 110.625 628.519531 L 58.894531 621.839844 C 53.164062 621.105469 51.65625 613.507812 56.671875 610.640625 L 278.78125 483.796875 C 290.257812 477.238281 303.558594 474.601562 316.667969 476.285156 L 748.320312 532.039062 C 754.050781 532.773438 755.558594 540.375 750.542969 543.234375 L 528.433594 670.085938 C 516.957031 676.636719 503.65625 679.277344 490.546875 677.597656 L 110.625 628.519531 " fill-opacity="1" fill-rule="nonzero"/><path fill="#5479f7" d="M 110.792969 627.234375 L 490.714844 676.3125 C 503.460938 677.945312 516.632812 675.332031 527.792969 668.960938 L 749.902344 542.109375 C 752.078125 540.867188 752.515625 538.703125 752.195312 537.089844 C 751.878906 535.476562 750.648438 533.640625 748.160156 533.320312 L 316.503906 477.5625 C 303.753906 475.933594 290.585938 478.542969 279.425781 484.917969 L 57.316406 611.765625 C 55.136719 613.007812 54.703125 615.175781 55.023438 616.789062 C 55.34375 618.398438 56.570312 620.234375 59.058594 620.554688 Z M 498.179688 679.375 C 495.578125 679.375 492.972656 679.210938 490.386719 678.882812 L 58.726562 623.125 C 55.558594 622.714844 53.105469 620.429688 52.484375 617.289062 C 51.863281 614.152344 53.253906 611.101562 56.03125 609.519531 L 278.140625 482.671875 C 289.789062 476.019531 303.527344 473.292969 316.832031 474.996094 L 748.492188 530.757812 C 751.664062 531.160156 754.113281 533.449219 754.734375 536.585938 C 755.355469 539.722656 753.964844 542.773438 751.183594 544.359375 L 529.078125 671.207031 C 519.695312 676.566406 508.957031 679.375 498.179688 679.375 " fill-opacity="1" fill-rule="nonzero"/><path fill="#caddff" d="M 575.0625 607.183594 L 200.761719 558.484375 C 195.585938 557.820312 194.226562 550.957031 198.753906 548.371094 L 286.765625 498.613281 C 297.132812 492.695312 309.144531 490.3125 320.984375 491.828125 L 695.285156 540.53125 C 700.460938 541.195312 701.824219 548.058594 697.289062 550.644531 L 609.28125 600.398438 C 598.917969 606.316406 586.90625 608.699219 575.0625 607.183594 " fill-opacity="1" fill-rule="nonzero"/><path fill="#99b9ff" d="M 709.753906 506.347656 L 342.195312 460.296875 C 340.886719 460.132812 339.902344 459.023438 339.902344 457.699219 L 339.902344 66.179688 C 339.902344 64.609375 341.28125 63.394531 342.84375 63.589844 L 710.40625 109.640625 C 711.714844 109.804688 712.699219 110.917969 712.699219 112.234375 L 712.699219 503.753906 C 712.699219 505.324219 711.320312 506.542969 709.753906 506.347656 " fill-opacity="1" fill-rule="nonzero"/><path fill="#ffffff" d="M 691.269531 239.175781 L 360.808594 195.886719 L 360.808594 91.628906 L 691.269531 134.921875 L 691.269531 239.175781 " fill-opacity="1" fill-rule="nonzero"/><path fill="#ffffff" d="M 691.269531 359.972656 L 360.8125 316.683594 L 360.8125 212.429688 L 691.269531 255.71875 L 691.269531 359.972656 " fill-opacity="1" fill-rule="nonzero"/><path fill="#ffffff" d="M 690.40625 479.910156 L 359.949219 436.617188 L 359.949219 332.363281 L 690.40625 375.660156 L 690.40625 479.910156 " fill-opacity="1" fill-rule="nonzero"/><path fill="#caddff" d="M 631.507812 200.226562 L 374.777344 168.0625 L 374.777344 156.714844 L 631.507812 188.875 L 631.507812 200.226562 " fill-opacity="1" fill-rule="nonzero"/><path fill="#caddff" d="M 564.453125 211.574219 L 374.777344 187.808594 L 374.777344 176.460938 L 564.453125 200.222656 L 564.453125 211.574219 " fill-opacity="1" fill-rule="nonzero"/><path fill="#caddff" d="M 530.472656 167.679688 L 374.800781 148.175781 L 375.007812 135.644531 L 530.113281 155.058594 L 530.472656 167.679688 " fill-opacity="1" fill-rule="nonzero"/><path fill="#5479f7" d="M 397.6875 111.921875 L 392.039062 110.316406 L 389.515625 104.648438 C 388.972656 103.433594 387.402344 103.222656 386.863281 104.292969 L 384.335938 109.292969 L 378.6875 109.398438 C 377.472656 109.417969 376.988281 110.910156 377.863281 111.921875 L 381.953125 116.617188 L 380.988281 122.34375 C 380.777344 123.578125 382.046875 124.707031 383.136719 124.257812 L 388.191406 122.160156 L 393.242188 125.601562 C 394.328125 126.339844 395.59375 125.542969 395.390625 124.257812 L 394.421875 118.273438 L 398.511719 114.664062 C 399.390625 113.886719 398.90625 112.265625 397.6875 111.921875 " fill-opacity="1" fill-rule="nonzero"/><path fill="#5479f7" d="M 423.769531 115.390625 L 418.121094 113.785156 L 415.589844 108.113281 C 415.050781 106.898438 413.480469 106.6875 412.941406 107.765625 L 410.417969 112.757812 L 404.765625 112.867188 C 403.550781 112.886719 403.066406 114.375 403.945312 115.386719 L 408.03125 120.082031 L 407.066406 125.8125 C 406.855469 127.046875 408.128906 128.175781 409.214844 127.722656 L 414.265625 125.625 L 419.320312 129.066406 C 420.410156 129.804688 421.675781 129.011719 421.472656 127.726562 L 420.503906 121.734375 L 424.59375 118.128906 C 425.46875 117.351562 424.984375 115.734375 423.769531 115.390625 " fill-opacity="1" fill-rule="nonzero"/><path fill="#5479f7" d="M 449.851562 118.847656 L 444.203125 117.246094 L 441.679688 111.578125 C 441.136719 110.359375 439.566406 110.148438 439.027344 111.226562 L 436.5 116.21875 L 430.847656 116.328125 C 429.632812 116.351562 429.148438 117.839844 430.027344 118.847656 L 434.113281 123.542969 L 433.152344 129.273438 C 432.941406 130.507812 434.214844 131.632812 435.300781 131.183594 L 440.347656 129.085938 L 445.402344 132.523438 C 446.492188 133.265625 447.757812 132.472656 447.554688 131.183594 L 446.585938 125.195312 L 450.675781 121.589844 C 451.550781 120.816406 451.066406 119.199219 449.851562 118.847656 " fill-opacity="1" fill-rule="nonzero"/><path fill="#5479f7" d="M 475.929688 122.316406 L 470.28125 120.710938 L 467.757812 115.042969 C 467.21875 113.824219 465.648438 113.617188 465.101562 114.691406 L 462.574219 119.6875 L 456.929688 119.792969 C 455.714844 119.816406 455.226562 121.308594 456.105469 122.3125 L 460.195312 127.007812 L 459.230469 132.738281 C 459.023438 133.972656 460.292969 135.105469 461.382812 134.652344 L 466.425781 132.554688 L 471.480469 135.996094 C 472.566406 136.734375 473.835938 135.941406 473.632812 134.652344 L 472.664062 128.664062 L 476.753906 125.054688 C 477.632812 124.277344 477.144531 122.664062 475.929688 122.316406 " fill-opacity="1" fill-rule="nonzero"/><path fill="#5479f7" d="M 502.011719 125.785156 L 496.367188 124.175781 L 493.835938 118.511719 C 493.296875 117.289062 491.722656 117.085938 491.179688 118.160156 L 488.660156 123.152344 L 483.007812 123.257812 C 481.789062 123.28125 481.308594 124.769531 482.183594 125.78125 L 486.273438 130.472656 L 485.308594 136.207031 C 485.101562 137.4375 486.371094 138.566406 487.460938 138.117188 L 492.507812 136.023438 L 497.558594 139.460938 C 498.648438 140.199219 499.921875 139.410156 499.714844 138.117188 L 498.746094 132.132812 L 502.835938 128.523438 C 503.710938 127.746094 503.226562 126.128906 502.011719 125.785156 " fill-opacity="1" fill-rule="nonzero"/><path fill="#caddff" d="M 604.394531 437.929688 L 372.1875 408.796875 L 372.1875 397.449219 L 604.972656 427.003906 L 604.394531 437.929688 " fill-opacity="1" fill-rule="nonzero"/><path fill="#caddff" d="M 572.1875 454.324219 L 372.191406 428.542969 L 372.191406 417.195312 L 572.472656 443.109375 L 572.1875 454.324219 " fill-opacity="1" fill-rule="nonzero"/><path fill="#caddff" d="M 575.636719 414.34375 L 372.210938 388.910156 L 372.421875 376.378906 L 576.214844 402.265625 L 575.636719 414.34375 " fill-opacity="1" fill-rule="nonzero"/><path fill="#5479f7" d="M 395.097656 352.660156 L 389.453125 351.054688 L 386.925781 345.386719 C 386.382812 344.167969 384.8125 343.957031 384.273438 345.035156 L 381.746094 350.027344 L 376.097656 350.132812 C 374.882812 350.15625 374.398438 351.644531 375.273438 352.65625 L 379.363281 357.347656 L 378.398438 363.082031 C 378.1875 364.3125 379.457031 365.445312 380.546875 364.996094 L 385.601562 362.894531 L 390.648438 366.335938 C 391.738281 367.074219 393.007812 366.285156 392.800781 364.996094 L 391.832031 359.007812 L 395.921875 355.398438 C 396.800781 354.625 396.3125 353.003906 395.097656 352.660156 " fill-opacity="1" fill-rule="nonzero"/><path fill="#5479f7" d="M 421.179688 356.125 L 415.53125 354.519531 L 413.003906 348.847656 C 412.464844 347.632812 410.894531 347.421875 410.351562 348.496094 L 407.828125 353.496094 L 402.179688 353.601562 C 400.964844 353.621094 400.476562 355.113281 401.355469 356.121094 L 405.445312 360.816406 L 404.476562 366.546875 C 404.269531 367.78125 405.539062 368.910156 406.628906 368.457031 L 411.683594 366.363281 L 416.730469 369.800781 C 417.820312 370.539062 419.089844 369.746094 418.882812 368.460938 L 417.914062 362.472656 L 422.003906 358.863281 C 422.882812 358.089844 422.394531 356.46875 421.179688 356.125 " fill-opacity="1" fill-rule="nonzero"/><path fill="#5479f7" d="M 447.261719 359.589844 L 441.613281 357.984375 L 439.085938 352.316406 C 438.546875 351.097656 436.976562 350.886719 436.429688 351.964844 L 433.90625 356.957031 L 428.253906 357.0625 C 427.046875 357.085938 426.558594 358.574219 427.4375 359.585938 L 431.527344 364.277344 L 430.558594 370.011719 C 430.351562 371.242188 431.621094 372.375 432.710938 371.925781 L 437.757812 369.824219 L 442.8125 373.265625 C 443.902344 374.003906 445.171875 373.210938 444.964844 371.925781 L 443.996094 365.9375 L 448.085938 362.328125 C 448.960938 361.550781 448.476562 359.933594 447.261719 359.589844 " fill-opacity="1" fill-rule="nonzero"/><path fill="#5479f7" d="M 473.34375 363.054688 L 467.695312 361.445312 L 465.167969 355.777344 C 464.628906 354.5625 463.054688 354.351562 462.511719 355.425781 L 459.988281 360.425781 L 454.335938 360.53125 C 453.121094 360.550781 452.640625 362.042969 453.519531 363.046875 L 457.605469 367.746094 L 456.640625 373.476562 C 456.433594 374.710938 457.703125 375.839844 458.792969 375.386719 L 463.839844 373.292969 L 468.894531 376.730469 C 469.980469 377.46875 471.253906 376.675781 471.042969 375.386719 L 470.078125 369.398438 L 474.167969 365.789062 C 475.042969 365.015625 474.558594 363.398438 473.34375 363.054688 " fill-opacity="1" fill-rule="nonzero"/><path fill="#99b9ff" d="M 499.425781 366.519531 L 493.777344 364.914062 L 491.25 359.246094 C 490.707031 358.027344 489.136719 357.816406 488.59375 358.894531 L 486.066406 363.886719 L 480.417969 363.992188 C 479.203125 364.015625 478.722656 365.503906 479.597656 366.515625 L 483.683594 371.207031 L 482.722656 376.9375 C 482.515625 378.171875 483.78125 379.304688 484.871094 378.851562 L 489.921875 376.753906 L 494.972656 380.191406 C 496.058594 380.933594 497.328125 380.144531 497.125 378.855469 L 496.15625 372.867188 L 500.246094 369.257812 C 501.125 368.480469 500.640625 366.863281 499.425781 366.519531 " fill-opacity="1" fill-rule="nonzero"/><path fill="#caddff" d="M 630.074219 321.023438 L 373.335938 288.855469 L 373.335938 277.511719 L 630.074219 309.675781 L 630.074219 321.023438 " fill-opacity="1" fill-rule="nonzero"/><path fill="#caddff" d="M 596.773438 336.472656 L 373.339844 308.605469 L 373.339844 297.261719 L 596.992188 325.261719 L 596.773438 336.472656 " fill-opacity="1" fill-rule="nonzero"/><path fill="#caddff" d="M 553.632812 291.605469 L 373.363281 268.972656 L 373.570312 256.441406 L 553.199219 278.875 L 553.632812 291.605469 " fill-opacity="1" fill-rule="nonzero"/><path fill="#5479f7" d="M 396.253906 232.722656 L 390.605469 231.117188 L 388.074219 225.449219 C 387.535156 224.230469 385.964844 224.023438 385.425781 225.097656 L 382.898438 230.089844 L 377.25 230.199219 C 376.035156 230.21875 375.550781 231.710938 376.429688 232.71875 L 380.515625 237.414062 L 379.546875 243.144531 C 379.339844 244.375 380.613281 245.507812 381.699219 245.058594 L 386.753906 242.960938 L 391.800781 246.402344 C 392.894531 247.136719 394.160156 246.347656 393.953125 245.058594 L 392.984375 239.070312 L 397.078125 235.464844 C 397.949219 234.6875 397.464844 233.070312 396.253906 232.722656 " fill-opacity="1" fill-rule="nonzero"/><path fill="#5479f7" d="M 422.332031 236.1875 L 416.679688 234.582031 L 414.15625 228.914062 C 413.613281 227.695312 412.042969 227.488281 411.507812 228.5625 L 408.980469 233.558594 L 403.332031 233.664062 C 402.113281 233.6875 401.628906 235.179688 402.507812 236.183594 L 406.597656 240.878906 L 405.628906 246.613281 C 405.421875 247.84375 406.691406 248.972656 407.78125 248.523438 L 412.828125 246.429688 L 417.878906 249.863281 C 418.96875 250.605469 420.238281 249.8125 420.03125 248.523438 L 419.0625 242.535156 L 423.152344 238.925781 C 424.03125 238.152344 423.542969 236.535156 422.332031 236.1875 " fill-opacity="1" fill-rule="nonzero"/><path fill="#5479f7" d="M 448.414062 239.652344 L 442.765625 238.046875 L 440.238281 232.378906 C 439.699219 231.160156 438.128906 230.953125 437.582031 232.023438 L 435.058594 237.023438 L 429.414062 237.125 C 428.191406 237.148438 427.710938 238.640625 428.589844 239.648438 L 432.675781 244.339844 L 431.710938 250.074219 C 431.503906 251.308594 432.773438 252.4375 433.863281 251.984375 L 438.910156 249.890625 L 443.964844 253.328125 C 445.054688 254.066406 446.324219 253.273438 446.113281 251.984375 L 445.148438 245.996094 L 449.238281 242.390625 C 450.113281 241.613281 449.628906 239.996094 448.414062 239.652344 " fill-opacity="1" fill-rule="nonzero"/><path fill="#99b9ff" d="M 474.496094 243.113281 L 468.847656 241.511719 L 466.320312 235.84375 C 465.78125 234.625 464.207031 234.414062 463.664062 235.492188 L 461.140625 240.484375 L 455.488281 240.589844 C 454.273438 240.613281 453.792969 242.101562 454.667969 243.113281 L 458.753906 247.804688 L 457.792969 253.539062 C 457.585938 254.769531 458.851562 255.898438 459.941406 255.449219 L 464.992188 253.351562 L 470.042969 256.792969 C 471.132812 257.53125 472.40625 256.738281 472.195312 255.453125 L 471.230469 249.460938 L 475.316406 245.855469 C 476.195312 245.082031 475.710938 243.460938 474.496094 243.113281 " fill-opacity="1" fill-rule="nonzero"/><path fill="#99b9ff" d="M 500.578125 246.578125 L 494.929688 244.976562 L 492.402344 239.304688 C 491.859375 238.089844 490.289062 237.878906 489.746094 238.953125 L 487.222656 243.953125 L 481.570312 244.054688 C 480.355469 244.078125 479.875 245.570312 480.75 246.578125 L 484.835938 251.269531 L 483.875 257.003906 C 483.667969 258.238281 484.933594 259.367188 486.023438 258.914062 L 491.074219 256.820312 L 496.125 260.257812 C 497.210938 260.996094 498.484375 260.203125 498.277344 258.914062 L 497.308594 252.925781 L 501.398438 249.320312 C 502.277344 248.542969 501.792969 246.925781 500.578125 246.578125 " fill-opacity="1" fill-rule="nonzero"/><path fill="#000000" d="M 554.59375 488.203125 C 554.542969 488.203125 554.488281 488.195312 554.429688 488.191406 L 342.039062 461.578125 C 340.082031 461.335938 338.613281 459.671875 338.613281 457.699219 L 338.613281 419.421875 C 338.613281 418.707031 339.191406 418.125 339.90625 418.125 C 340.625 418.125 341.203125 418.707031 341.203125 419.421875 L 341.203125 457.699219 C 341.203125 458.363281 341.695312 458.929688 342.359375 459.011719 L 554.753906 485.621094 C 555.460938 485.710938 555.964844 486.355469 555.878906 487.066406 C 555.792969 487.71875 555.238281 488.203125 554.59375 488.203125 " fill-opacity="1" fill-rule="nonzero"/><path fill="#000000" d="M 710.085938 507.660156 C 709.921875 507.660156 709.765625 507.648438 709.597656 507.628906 L 635.570312 498.355469 C 634.863281 498.261719 634.355469 497.617188 634.445312 496.90625 C 634.535156 496.199219 635.183594 495.695312 635.890625 495.785156 L 709.921875 505.058594 C 710.304688 505.105469 710.671875 504.992188 710.957031 504.738281 C 711.25 504.488281 711.410156 504.136719 711.410156 503.753906 L 711.410156 112.226562 C 711.410156 111.566406 710.910156 111.003906 710.25 110.921875 L 342.683594 64.871094 C 342.304688 64.820312 341.9375 64.9375 341.648438 65.191406 C 341.359375 65.445312 341.203125 65.796875 341.203125 66.179688 L 341.203125 229.171875 C 341.203125 229.886719 340.625 230.464844 339.90625 230.464844 C 339.195312 230.464844 338.613281 229.886719 338.613281 229.171875 L 338.613281 66.179688 C 338.613281 65.058594 339.097656 63.992188 339.933594 63.246094 C 340.777344 62.507812 341.898438 62.160156 343.007812 62.300781 L 710.570312 108.351562 C 712.527344 108.597656 713.996094 110.265625 713.996094 112.226562 L 713.996094 503.753906 C 713.996094 504.871094 713.515625 505.941406 712.675781 506.679688 C 711.953125 507.316406 711.035156 507.660156 710.085938 507.660156 " fill-opacity="1" fill-rule="nonzero"/><path fill="#caddff" d="M 596.609375 640.238281 C 596.609375 640.238281 559.757812 559.460938 580.898438 454.75 C 580.898438 454.75 638.015625 502.609375 617.425781 640.238281 L 596.609375 640.238281 " fill-opacity="1" fill-rule="nonzero"/><path fill="#000000" d="M 597.453125 638.949219 L 616.304688 638.949219 C 626.628906 568.757812 616.246094 522.695312 605.683594 496.363281 C 596.539062 473.589844 585.761719 461.367188 581.707031 457.300781 C 571.425781 510.230469 576.207031 556.691406 582.09375 586.515625 C 587.863281 615.730469 595.753906 634.988281 597.453125 638.949219 Z M 617.425781 641.539062 L 596.609375 641.539062 C 596.101562 641.539062 595.644531 641.238281 595.429688 640.78125 C 595.339844 640.578125 586.082031 620.066406 579.558594 587.015625 C 573.535156 556.53125 568.667969 508.796875 579.625 454.496094 C 579.71875 454.046875 580.035156 453.679688 580.46875 453.527344 C 580.898438 453.378906 581.378906 453.464844 581.726562 453.757812 C 582.324219 454.257812 596.394531 466.265625 608.082031 495.402344 C 618.824219 522.167969 629.382812 569.046875 618.703125 640.433594 C 618.605469 641.066406 618.0625 641.539062 617.425781 641.539062 " fill-opacity="1" fill-rule="nonzero"/><path fill="#ffffff" d="M 605.625 633.113281 C 605.605469 633.113281 605.578125 633.113281 605.554688 633.113281 C 604.835938 633.070312 604.289062 632.460938 604.328125 631.75 C 607.152344 580.132812 583.871094 469.933594 583.632812 468.824219 C 583.484375 468.121094 583.933594 467.4375 584.628906 467.289062 C 585.332031 467.136719 586.015625 467.585938 586.164062 468.28125 C 586.402344 469.394531 609.753906 579.933594 606.917969 631.890625 C 606.878906 632.578125 606.308594 633.113281 605.625 633.113281 " fill-opacity="1" fill-rule="nonzero"/><path fill="#ffffff" d="M 633.6875 508.917969 C 633.6875 508.917969 586.203125 594.699219 614.761719 631.820312 L 630.042969 631.820312 C 630.042969 631.820312 660.574219 564.765625 633.6875 508.917969 " fill-opacity="1" fill-rule="nonzero"/><path fill="#000000" d="M 615.410156 630.527344 L 629.195312 630.527344 C 632.359375 623.09375 656.566406 562.824219 633.609375 511.816406 C 626.464844 525.542969 591 597.597656 615.410156 630.527344 Z M 630.046875 633.117188 L 614.761719 633.117188 C 614.367188 633.117188 613.984375 632.929688 613.742188 632.609375 C 601.621094 616.859375 601.125 591.101562 612.28125 556.054688 C 620.527344 530.144531 632.433594 508.503906 632.550781 508.289062 C 632.789062 507.863281 633.21875 507.605469 633.722656 507.625 C 634.203125 507.632812 634.640625 507.917969 634.851562 508.355469 C 648.894531 537.511719 647.15625 569.6875 643.222656 591.539062 C 638.972656 615.171875 631.300781 632.1875 631.21875 632.355469 C 631.015625 632.816406 630.546875 633.117188 630.046875 633.117188 " fill-opacity="1" fill-rule="nonzero"/><path fill="#000000" d="M 621.898438 635.386719 C 621.210938 635.386719 620.632812 634.839844 620.609375 634.140625 C 619.230469 598.710938 632.273438 509.621094 632.402344 508.726562 C 632.511719 508.019531 633.167969 507.527344 633.878906 507.632812 C 634.582031 507.738281 635.070312 508.398438 634.964844 509.101562 C 634.835938 509.996094 621.828125 598.847656 623.195312 634.042969 C 623.222656 634.757812 622.667969 635.355469 621.953125 635.382812 C 621.933594 635.386719 621.917969 635.386719 621.898438 635.386719 " fill-opacity="1" fill-rule="nonzero"/><path fill="#ffffff" d="M 543.03125 540.894531 C 543.03125 540.894531 583.480469 554.691406 598.128906 636.394531 L 582.214844 636.394531 C 582.214844 636.394531 549.011719 591.523438 543.03125 540.894531 " fill-opacity="1" fill-rule="nonzero"/><path fill="#000000" d="M 582.878906 635.101562 L 596.578125 635.101562 C 583.910156 566.6875 552.78125 547.054688 544.601562 543 C 550.789062 588.882812 579.253906 630.011719 582.878906 635.101562 Z M 598.128906 637.6875 L 582.21875 637.6875 C 581.804688 637.6875 581.421875 637.492188 581.179688 637.160156 C 580.84375 636.710938 547.703125 591.433594 541.746094 541.042969 C 541.695312 540.601562 541.875 540.167969 542.21875 539.886719 C 542.566406 539.609375 543.027344 539.527344 543.449219 539.671875 C 543.878906 539.816406 554.027344 543.386719 566.0625 557.152344 C 577.066406 569.742188 591.78125 593.671875 599.402344 636.164062 C 599.46875 636.542969 599.367188 636.929688 599.117188 637.222656 C 598.871094 637.519531 598.511719 637.6875 598.128906 637.6875 " fill-opacity="1" fill-rule="nonzero"/><path fill="#000000" d="M 589.429688 635.386719 C 588.804688 635.386719 588.257812 634.9375 588.152344 634.304688 C 582.144531 597.984375 556.113281 561.375 555.855469 561.007812 C 555.441406 560.429688 555.570312 559.617188 556.152344 559.203125 C 556.734375 558.789062 557.539062 558.921875 557.957031 559.5 C 558.226562 559.867188 584.59375 596.957031 590.703125 633.878906 C 590.824219 634.585938 590.347656 635.253906 589.640625 635.367188 C 589.570312 635.378906 589.496094 635.386719 589.429688 635.386719 " fill-opacity="1" fill-rule="nonzero"/><path fill="#5479f7" d="M 558.636719 629.910156 L 658.425781 629.910156 L 660.664062 677.109375 C 661.214844 688.683594 651.980469 698.363281 640.394531 698.363281 L 583.394531 698.363281 C 569.691406 698.363281 558.582031 687.246094 558.59375 673.535156 L 558.636719 629.910156 " fill-opacity="1" fill-rule="nonzero"/><path fill="#000000" d="M 559.933594 631.203125 L 559.890625 673.539062 C 559.882812 679.820312 562.324219 685.730469 566.765625 690.175781 C 571.207031 694.621094 577.113281 697.070312 583.402344 697.070312 L 640.394531 697.070312 C 645.640625 697.070312 650.523438 694.980469 654.144531 691.179688 C 657.765625 687.386719 659.621094 682.410156 659.375 677.171875 L 657.195312 631.203125 Z M 640.394531 699.65625 L 583.402344 699.65625 C 576.421875 699.65625 569.867188 696.9375 564.9375 692.003906 C 560.003906 687.070312 557.292969 680.511719 557.300781 673.535156 L 557.34375 629.90625 C 557.34375 629.195312 557.921875 628.613281 558.632812 628.613281 L 658.433594 628.613281 C 659.117188 628.613281 659.691406 629.160156 659.71875 629.847656 L 661.957031 677.050781 C 662.242188 683.003906 660.132812 688.65625 656.015625 692.96875 C 651.902344 697.285156 646.355469 699.65625 640.394531 699.65625 " fill-opacity="1" fill-rule="nonzero"/><path fill="#ffffff" d="M 263.511719 662.894531 L 274.179688 711.511719 L 292.683594 712.472656 L 282.46875 659.851562 L 263.511719 662.894531 " fill-opacity="1" fill-rule="nonzero"/><path fill="#000000" d="M 275.230469 710.269531 L 291.097656 711.09375 L 281.4375 661.328125 L 265.070312 663.953125 Z M 292.6875 713.765625 C 292.664062 713.765625 292.640625 713.765625 292.617188 713.765625 L 274.109375 712.804688 C 273.527344 712.773438 273.039062 712.355469 272.914062 711.785156 L 262.25 663.167969 C 262.171875 662.824219 262.242188 662.457031 262.441406 662.164062 C 262.644531 661.871094 262.957031 661.671875 263.308594 661.613281 L 282.265625 658.570312 C 282.949219 658.457031 283.605469 658.917969 283.742188 659.601562 L 293.957031 712.226562 C 294.03125 712.621094 293.921875 713.023438 293.660156 713.324219 C 293.414062 713.605469 293.058594 713.765625 292.6875 713.765625 " fill-opacity="1" fill-rule="nonzero"/><path fill="#5479f7" d="M 267.730469 707.371094 C 267.191406 711.179688 266.320312 718.25 266.25 724.589844 C 266.203125 728.574219 269.191406 731.929688 273.144531 732.4375 C 284.3125 733.871094 309.648438 735.4375 331.234375 733.480469 C 332.710938 733.347656 335.324219 732.269531 336.050781 728.582031 C 338.492188 716.199219 316.941406 713.167969 293.316406 704.183594 C 292.390625 703.832031 291.34375 704.039062 290.632812 704.730469 L 288.085938 707.195312 C 285.535156 709.660156 281.753906 710.363281 278.492188 708.972656 L 270.742188 705.667969 C 269.421875 705.105469 267.929688 705.949219 267.730469 707.371094 " fill-opacity="1" fill-rule="nonzero"/><path fill="#000000" d="M 269.886719 706.785156 C 269.695312 706.785156 269.542969 706.847656 269.453125 706.898438 C 269.3125 706.984375 269.0625 707.171875 269.011719 707.550781 C 268.492188 711.214844 267.613281 718.300781 267.542969 724.605469 C 267.503906 727.910156 269.984375 730.726562 273.308594 731.15625 C 284.835938 732.632812 309.742188 734.128906 331.113281 732.191406 C 331.609375 732.144531 334.105469 731.75 334.777344 728.332031 C 336.425781 719.976562 324.878906 716.1875 308.890625 710.941406 C 303.742188 709.253906 298.417969 707.507812 292.855469 705.394531 C 292.398438 705.21875 291.878906 705.324219 291.53125 705.660156 L 288.984375 708.128906 C 286.054688 710.960938 281.734375 711.761719 277.984375 710.164062 L 270.234375 706.855469 C 270.109375 706.804688 269.992188 706.785156 269.886719 706.785156 Z M 308.75 735.699219 C 294.214844 735.699219 280.65625 734.707031 272.980469 733.722656 C 268.351562 733.128906 264.902344 729.195312 264.953125 724.578125 C 265.027344 718.125 265.921875 710.914062 266.449219 707.1875 L 267.730469 707.371094 L 266.449219 707.1875 C 266.601562 706.109375 267.234375 705.179688 268.179688 704.648438 C 269.128906 704.113281 270.246094 704.050781 271.25 704.476562 L 279 707.78125 C 281.789062 708.972656 285.003906 708.375 287.183594 706.265625 L 289.734375 703.796875 C 290.796875 702.765625 292.386719 702.449219 293.777344 702.976562 C 299.28125 705.066406 304.578125 706.800781 309.699219 708.480469 C 326.300781 713.925781 339.414062 718.230469 337.320312 728.832031 C 336.519531 732.886719 333.601562 734.566406 331.351562 734.769531 C 324.003906 735.4375 316.246094 735.699219 308.75 735.699219 " fill-opacity="1" fill-rule="nonzero"/><path fill="#ffffff" d="M 266.265625 723.636719 C 266.265625 723.636719 266.25 724.28125 266.25 724.589844 C 266.203125 728.574219 269.191406 731.929688 273.144531 732.4375 C 284.3125 733.871094 309.648438 735.4375 331.234375 733.480469 C 332.710938 733.347656 335.324219 732.269531 336.050781 728.582031 C 336.269531 727.453125 336.132812 725.414062 336.132812 725.414062 L 334.605469 725.492188 C 312.796875 726.5625 290.941406 726.042969 269.207031 723.921875 L 266.265625 723.636719 " fill-opacity="1" fill-rule="nonzero"/><path fill="#000000" d="M 267.554688 725.0625 C 267.738281 728.167969 270.136719 730.746094 273.308594 731.15625 C 284.835938 732.632812 309.742188 734.128906 331.113281 732.191406 C 331.609375 732.144531 334.105469 731.75 334.777344 728.332031 C 334.859375 727.925781 334.882812 727.332031 334.882812 726.769531 L 334.667969 726.785156 C 312.867188 727.855469 290.804688 727.332031 269.082031 725.210938 Z M 308.75 735.699219 C 294.214844 735.699219 280.65625 734.707031 272.980469 733.722656 C 268.351562 733.128906 264.902344 729.195312 264.953125 724.578125 C 264.957031 724.265625 264.972656 723.609375 264.972656 723.609375 C 264.980469 723.25 265.136719 722.910156 265.40625 722.671875 C 265.675781 722.433594 266.027344 722.3125 266.390625 722.347656 L 269.332031 722.636719 C 290.929688 724.742188 312.867188 725.265625 334.539062 724.199219 L 336.070312 724.125 C 336.792969 724.085938 337.378906 724.625 337.425781 725.324219 C 337.441406 725.554688 337.566406 727.570312 337.320312 728.832031 C 336.519531 732.886719 333.601562 734.566406 331.351562 734.769531 C 324.003906 735.4375 316.246094 735.699219 308.75 735.699219 " fill-opacity="1" fill-rule="nonzero"/><path fill="#000000" d="M 298.734375 718.851562 C 298.402344 718.851562 298.070312 718.722656 297.820312 718.46875 C 297.3125 717.964844 297.3125 717.148438 297.820312 716.640625 L 306.109375 708.347656 C 306.613281 707.84375 307.433594 707.84375 307.941406 708.347656 C 308.445312 708.855469 308.445312 709.675781 307.941406 710.183594 L 299.648438 718.46875 C 299.398438 718.722656 299.066406 718.851562 298.734375 718.851562 " fill-opacity="1" fill-rule="nonzero"/><path fill="#000000" d="M 306.878906 719.707031 C 306.554688 719.707031 306.234375 719.59375 305.980469 719.347656 C 305.464844 718.851562 305.449219 718.03125 305.945312 717.519531 L 312.570312 710.636719 C 313.066406 710.125 313.882812 710.109375 314.402344 710.605469 C 314.914062 711.101562 314.929688 711.917969 314.429688 712.4375 L 307.808594 719.3125 C 307.554688 719.574219 307.21875 719.707031 306.878906 719.707031 " fill-opacity="1" fill-rule="nonzero"/><path fill="#ffffff" d="M 181.09375 669.386719 L 176.46875 701.828125 L 166.464844 701.828125 L 165.90625 669.925781 L 181.09375 669.386719 " fill-opacity="1" fill-rule="nonzero"/><path fill="#000000" d="M 167.734375 700.535156 L 175.34375 700.535156 L 179.59375 670.734375 L 167.222656 671.167969 Z M 176.46875 703.125 L 166.464844 703.125 C 165.757812 703.125 165.183594 702.554688 165.167969 701.851562 L 164.613281 669.945312 C 164.601562 669.238281 165.15625 668.652344 165.859375 668.625 L 181.046875 668.09375 C 181.425781 668.074219 181.796875 668.234375 182.054688 668.519531 C 182.3125 668.808594 182.429688 669.191406 182.375 669.570312 L 177.75 702.011719 C 177.660156 702.652344 177.113281 703.125 176.46875 703.125 " fill-opacity="1" fill-rule="nonzero"/><path fill="#5479f7" d="M 163.492188 733.402344 C 157.550781 732.429688 154.203125 728.160156 154.023438 724.492188 C 153.480469 713.574219 156.363281 703.199219 161.769531 696.15625 C 162.363281 695.386719 163.542969 695.449219 164.0625 696.269531 L 164.203125 696.398438 C 165.136719 697.25 166.523438 697.191406 167.484375 696.371094 C 168.277344 695.699219 169.296875 695.296875 170.382812 695.28125 L 171.894531 695.261719 C 173.589844 695.238281 175.265625 696.183594 176.152344 697.601562 C 176.5625 698.253906 177.515625 698.292969 178.03125 697.714844 L 178.886719 696.753906 C 179.46875 696.195312 180.4375 696.589844 180.460938 697.398438 L 181.390625 727.265625 C 180.9375 733.113281 171.265625 734.683594 163.492188 733.402344 " fill-opacity="1" fill-rule="nonzero"/><path fill="#000000" d="M 163.699219 732.125 C 169.597656 733.097656 175.648438 732.257812 178.414062 730.085938 C 179.441406 729.28125 179.988281 728.34375 180.09375 727.230469 L 179.195312 698.351562 L 178.996094 698.578125 C 178.472656 699.164062 177.707031 699.472656 176.90625 699.40625 C 176.136719 699.34375 175.460938 698.9375 175.054688 698.289062 C 174.394531 697.234375 173.09375 696.539062 171.914062 696.554688 L 170.402344 696.578125 C 169.640625 696.589844 168.902344 696.867188 168.324219 697.359375 C 166.828125 698.632812 164.730469 698.628906 163.332031 697.359375 L 163.0625 697.113281 L 162.96875 696.964844 C 162.960938 696.953125 162.9375 696.910156 162.875 696.910156 C 157.515625 703.824219 154.789062 713.84375 155.3125 724.425781 C 155.46875 727.515625 158.460938 731.261719 163.699219 732.125 Z M 168.675781 735.113281 C 166.761719 735.113281 164.90625 734.949219 163.28125 734.679688 C 156.628906 733.585938 152.9375 728.761719 152.730469 724.554688 C 152.171875 713.367188 155.09375 702.730469 160.746094 695.363281 C 161.277344 694.675781 162.105469 694.28125 162.992188 694.324219 C 163.808594 694.363281 164.558594 694.761719 165.039062 695.40625 L 165.074219 695.441406 C 165.496094 695.828125 166.160156 695.804688 166.644531 695.386719 C 167.683594 694.507812 169.003906 694.007812 170.363281 693.988281 L 171.875 693.96875 C 173.964844 693.941406 176.007812 695.039062 177.164062 696.78125 L 177.988281 695.824219 C 178.632812 695.203125 179.546875 695.027344 180.371094 695.363281 C 181.199219 695.703125 181.730469 696.464844 181.753906 697.359375 L 182.683594 727.296875 L 182.679688 727.363281 C 182.535156 729.21875 181.613281 730.863281 180.011719 732.121094 C 177.1875 734.339844 172.804688 735.113281 168.675781 735.113281 " fill-opacity="1" fill-rule="nonzero"/><path fill="#ffffff" d="M 181.140625 719.273438 C 180.972656 719.929688 180.699219 720.554688 180.304688 721.105469 C 178.96875 722.96875 175.316406 726.613281 167.515625 725.980469 C 158.277344 725.226562 154.046875 718.800781 154.046875 718.800781 C 153.9375 720.667969 153.925781 722.574219 154.023438 724.492188 C 154.203125 728.160156 157.550781 732.429688 163.492188 733.402344 C 171.265625 734.683594 180.9375 733.113281 181.390625 727.265625 L 181.140625 719.273438 " fill-opacity="1" fill-rule="nonzero"/><path fill="#000000" d="M 155.253906 722.070312 C 155.253906 722.859375 155.273438 723.640625 155.3125 724.429688 C 155.46875 727.515625 158.460938 731.261719 163.699219 732.125 C 169.597656 733.097656 175.648438 732.257812 178.414062 730.085938 C 179.441406 729.28125 179.988281 728.34375 180.09375 727.230469 L 179.976562 723.4375 C 177.914062 725.414062 174.015625 727.804688 167.410156 727.273438 C 161.496094 726.789062 157.515625 724.140625 155.253906 722.070312 Z M 168.675781 735.113281 C 166.761719 735.113281 164.90625 734.949219 163.28125 734.679688 C 156.628906 733.585938 152.9375 728.761719 152.730469 724.554688 C 152.632812 722.609375 152.640625 720.644531 152.757812 718.722656 C 152.789062 718.164062 153.175781 717.691406 153.714844 717.550781 C 154.253906 717.40625 154.824219 717.621094 155.128906 718.085938 C 155.289062 718.328125 159.167969 724 167.621094 724.691406 C 174.621094 725.257812 177.914062 722.214844 179.25 720.347656 C 179.535156 719.953125 179.75 719.480469 179.886719 718.949219 C 180.050781 718.328125 180.660156 717.914062 181.285156 717.988281 C 181.925781 718.058594 182.417969 718.589844 182.433594 719.234375 L 182.683594 727.226562 C 182.683594 727.273438 182.683594 727.316406 182.679688 727.363281 C 182.535156 729.21875 181.613281 730.863281 180.011719 732.121094 C 177.1875 734.339844 172.804688 735.113281 168.675781 735.113281 " fill-opacity="1" fill-rule="nonzero"/><path fill="#000000" d="M 174.777344 712.28125 L 164.046875 712.28125 C 163.332031 712.28125 162.75 711.703125 162.75 710.988281 C 162.75 710.273438 163.332031 709.695312 164.046875 709.695312 L 174.777344 709.695312 C 175.492188 709.695312 176.070312 710.273438 176.070312 710.988281 C 176.070312 711.703125 175.492188 712.28125 174.777344 712.28125 " fill-opacity="1" fill-rule="nonzero"/><path fill="#000000" d="M 175.890625 706.871094 L 165.160156 706.871094 C 164.445312 706.871094 163.863281 706.292969 163.863281 705.582031 C 163.863281 704.863281 164.445312 704.285156 165.160156 704.285156 L 175.890625 704.285156 C 176.605469 704.285156 177.183594 704.863281 177.183594 705.582031 C 177.183594 706.292969 176.605469 706.871094 175.890625 706.871094 " fill-opacity="1" fill-rule="nonzero"/><path fill="#000000" d="M 257.5 455.9375 C 257.5 455.9375 276.96875 553.957031 277.578125 577.609375 C 278.1875 601.265625 291.59375 690.023438 291.59375 690.023438 C 291.59375 690.023438 278.296875 696.429688 268.628906 696.378906 C 268.628906 696.378906 211.53125 548.535156 208.144531 509.675781 C 204.761719 470.8125 216.078125 453.027344 216.078125 453.027344 L 257.5 455.9375 " fill-opacity="1" fill-rule="nonzero"/><path fill="#000000" d="M 242.492188 449.773438 C 242.492188 449.773438 183.910156 622.390625 183.058594 686.914062 C 183.058594 686.914062 179.492188 689.257812 163.015625 686.566406 C 163.015625 686.566406 151.140625 495.875 181.589844 446.246094 L 242.492188 449.773438 " fill-opacity="1" fill-rule="nonzero"/><path fill="#ffffff" d="M 284.875 263.527344 L 251.507812 275.292969 C 249.742188 275.910156 248.675781 277.703125 248.984375 279.542969 C 249.292969 281.378906 250.882812 282.734375 252.753906 282.753906 L 288.164062 283.167969 L 284.875 263.527344 " fill-opacity="1" fill-rule="nonzero"/><path fill="#000000" d="M 283.855469 265.261719 L 251.9375 276.511719 C 250.761719 276.925781 250.058594 278.109375 250.261719 279.328125 C 250.464844 280.546875 251.523438 281.445312 252.769531 281.460938 L 286.632812 281.859375 Z M 288.164062 284.460938 C 288.160156 284.460938 288.15625 284.460938 288.148438 284.460938 L 252.738281 284.050781 C 250.238281 284.019531 248.121094 282.210938 247.710938 279.757812 C 247.296875 277.292969 248.714844 274.90625 251.078125 274.070312 L 284.445312 262.308594 C 284.804688 262.175781 285.203125 262.21875 285.535156 262.414062 C 285.863281 262.605469 286.089844 262.9375 286.152344 263.3125 L 289.441406 282.953125 C 289.503906 283.335938 289.398438 283.722656 289.148438 284.011719 C 288.902344 284.296875 288.542969 284.460938 288.164062 284.460938 " fill-opacity="1" fill-rule="nonzero"/><path fill="#ffffff" d="M 412.5625 220.210938 L 286.09375 260 C 284.769531 260.417969 283.933594 261.714844 284.109375 263.085938 L 286.703125 283.359375 C 286.886719 284.816406 288.15625 285.898438 289.632812 285.855469 L 423.097656 282.160156 L 412.5625 220.210938 " fill-opacity="1" fill-rule="nonzero"/><path fill="#000000" d="M 411.539062 221.886719 L 286.484375 261.234375 C 285.757812 261.464844 285.296875 262.175781 285.394531 262.921875 L 287.984375 283.195312 C 288.085938 283.996094 288.8125 284.582031 289.597656 284.5625 L 421.570312 280.90625 Z M 289.550781 287.152344 C 287.453125 287.152344 285.683594 285.609375 285.417969 283.523438 L 282.824219 263.25 C 282.570312 261.257812 283.78125 259.371094 285.707031 258.765625 L 412.175781 218.972656 C 412.53125 218.863281 412.921875 218.910156 413.238281 219.105469 C 413.5625 219.300781 413.78125 219.625 413.84375 219.996094 L 424.375 281.941406 C 424.4375 282.316406 424.335938 282.6875 424.097656 282.976562 C 423.859375 283.269531 423.511719 283.441406 423.132812 283.453125 L 289.671875 287.148438 C 289.632812 287.152344 289.589844 287.152344 289.550781 287.152344 " fill-opacity="1" fill-rule="nonzero"/><path fill="#5479f7" d="M 419.578125 288.410156 C 413.980469 289.1875 408.820312 285.3125 408.039062 279.753906 L 400.140625 223.625 C 399.359375 218.066406 403.257812 212.933594 408.851562 212.15625 C 414.441406 211.378906 419.609375 215.257812 420.390625 220.8125 L 428.285156 276.941406 C 429.0625 282.496094 425.167969 287.628906 419.578125 288.410156 " fill-opacity="1" fill-rule="nonzero"/><path fill="#000000" d="M 372.628906 277.726562 C 371.976562 277.726562 371.417969 277.234375 371.34375 276.574219 L 367.398438 241.429688 C 367.320312 240.71875 367.828125 240.078125 368.542969 240 C 369.246094 239.921875 369.886719 240.429688 369.972656 241.140625 L 373.914062 276.285156 C 373.992188 276.996094 373.480469 277.632812 372.769531 277.71875 C 372.726562 277.71875 372.671875 277.726562 372.628906 277.726562 " fill-opacity="1" fill-rule="nonzero"/><path fill="#ffffff" d="M 223.675781 474.328125 C 223.675781 474.328125 201.191406 488.042969 166.539062 486.285156 C 165.429688 486.226562 164.601562 485.25 164.738281 484.152344 L 166.609375 469.472656 L 223.675781 474.328125 " fill-opacity="1" fill-rule="nonzero"/><path fill="#000000" d="M 167.734375 470.867188 L 166.023438 484.3125 C 165.996094 484.539062 166.097656 484.695312 166.160156 484.769531 C 166.222656 484.847656 166.367188 484.980469 166.605469 484.992188 C 192.269531 486.292969 211.316406 478.933594 219.113281 475.242188 Z M 172.59375 487.730469 C 170.597656 487.730469 168.554688 487.683594 166.472656 487.578125 C 165.582031 487.53125 164.742188 487.113281 164.171875 486.429688 C 163.605469 485.753906 163.34375 484.859375 163.457031 483.988281 L 165.324219 469.308594 C 165.414062 468.625 166.042969 468.128906 166.71875 468.183594 L 223.78125 473.039062 C 224.339844 473.085938 224.804688 473.488281 224.933594 474.03125 C 225.0625 474.578125 224.824219 475.140625 224.347656 475.4375 C 224.132812 475.566406 203.804688 487.730469 172.59375 487.730469 " fill-opacity="1" fill-rule="nonzero"/><path fill="#ffffff" d="M 203.121094 472.464844 C 203.121094 472.464844 228.796875 492.941406 266.398438 487.464844 C 267.171875 487.351562 267.753906 486.71875 267.65625 485.949219 L 265.714844 470.6875 L 203.121094 472.464844 " fill-opacity="1" fill-rule="nonzero"/><path fill="#000000" d="M 207.105469 473.648438 C 215.019531 478.703125 237.09375 490.421875 266.214844 486.183594 C 266.320312 486.167969 266.371094 486.117188 266.375 486.105469 L 264.578125 472.015625 Z M 253.753906 489.679688 C 223.027344 489.679688 202.542969 473.660156 202.3125 473.476562 C 201.886719 473.140625 201.71875 472.570312 201.890625 472.054688 C 202.0625 471.542969 202.539062 471.191406 203.082031 471.171875 L 265.675781 469.394531 C 266.347656 469.386719 266.914062 469.867188 267 470.523438 L 268.941406 485.785156 C 269.125 487.226562 268.089844 488.527344 266.585938 488.746094 C 262.144531 489.390625 257.855469 489.679688 253.753906 489.679688 " fill-opacity="1" fill-rule="nonzero"/><path fill="#ffffff" d="M 311.527344 307.882812 C 311.527344 307.882812 309.742188 283.449219 309.152344 279.605469 C 308.566406 275.761719 311.042969 275.089844 312.242188 275.511719 C 313.796875 276.054688 315.003906 279.285156 315.746094 281.882812 C 316.304688 283.855469 318.144531 285.183594 320.203125 285.066406 L 328.910156 284.894531 L 322.988281 308.257812 L 311.527344 307.882812 " fill-opacity="1" fill-rule="nonzero"/><path fill="#000000" d="M 312.730469 306.628906 L 321.988281 306.929688 L 327.238281 286.21875 L 320.226562 286.359375 C 317.617188 286.511719 315.230469 284.816406 314.5 282.238281 C 313.363281 278.238281 312.277344 276.894531 311.816406 276.734375 C 311.625 276.667969 311.203125 276.664062 310.878906 276.933594 C 310.40625 277.324219 310.25 278.203125 310.433594 279.410156 C 310.953125 282.816406 312.367188 301.667969 312.730469 306.628906 Z M 322.988281 309.554688 C 322.976562 309.554688 322.960938 309.554688 322.945312 309.554688 L 311.484375 309.175781 C 310.824219 309.152344 310.285156 308.636719 310.238281 307.976562 C 310.21875 307.734375 308.449219 283.546875 307.875 279.800781 C 307.457031 277.058594 308.378906 275.644531 309.226562 274.941406 C 310.183594 274.148438 311.53125 273.894531 312.667969 274.289062 C 313.75 274.664062 315.367188 275.828125 316.988281 281.53125 C 317.390625 282.933594 318.695312 283.859375 320.128906 283.773438 L 328.882812 283.601562 C 329.285156 283.589844 329.671875 283.773438 329.921875 284.089844 C 330.171875 284.402344 330.261719 284.816406 330.164062 285.210938 L 324.242188 308.574219 C 324.097656 309.152344 323.578125 309.554688 322.988281 309.554688 " fill-opacity="1" fill-rule="nonzero"/><path fill="#5479f7" d="M 326.550781 335.042969 C 327.800781 320.554688 327.816406 305.964844 327.816406 305.964844 L 306.8125 305.273438 L 285.300781 340.519531 C 283.105469 344.117188 278.148438 344.839844 275.007812 342.007812 C 267.5 335.242188 257.84375 326.121094 246.113281 321.585938 C 229.886719 315.316406 197.113281 315.875 184.289062 319.875 C 171.433594 323.886719 162.53125 327.332031 147.390625 337.53125 C 147.390625 337.53125 174.390625 365.5 171.640625 395.523438 C 169.226562 421.921875 161.488281 462.652344 160.714844 472.121094 C 160.625 473.210938 161.476562 474.144531 162.574219 474.167969 L 269.429688 475.972656 C 270.226562 475.984375 270.859375 475.3125 270.789062 474.523438 C 270.054688 466.195312 264.355469 424.695312 262.246094 404.792969 C 261.753906 400.132812 261.566406 394.878906 261.613281 389.269531 C 270.230469 393.898438 283.113281 407.949219 300.652344 406.066406 C 320.285156 403.953125 325.480469 347.433594 326.550781 335.042969 " fill-opacity="1" fill-rule="nonzero"/><path fill="#ffffff" d="M 151.925781 421.558594 L 167.636719 437.332031 C 169.070312 438.769531 171.398438 438.78125 172.84375 437.351562 L 178.425781 432.078125 C 179.773438 430.746094 182.351562 429.371094 184.246094 429.359375 L 190.273438 429.875 C 196.394531 430.359375 198.578125 435.511719 198.578125 435.511719 C 199.613281 437.519531 198.96875 440.117188 196.9375 441.753906 C 196.9375 441.753906 194.378906 443.839844 192.078125 444.234375 C 188.125 444.914062 188.125 444.914062 188.125 444.914062 C 188.125 444.914062 183.941406 446.289062 180.894531 448.453125 C 177.84375 450.609375 173.277344 452.726562 167.886719 452.386719 L 167.464844 452.363281 C 164.238281 452.160156 161.167969 450.910156 158.722656 448.804688 L 140.882812 433.453125 L 151.925781 421.558594 " fill-opacity="1" fill-rule="nonzero"/><path fill="#000000" d="M 142.746094 433.347656 L 159.5625 447.824219 C 161.785156 449.738281 164.617188 450.886719 167.542969 451.074219 L 167.964844 451.097656 C 173.527344 451.445312 177.984375 448.925781 180.144531 447.394531 C 183.316406 445.148438 187.542969 443.746094 187.71875 443.6875 C 187.78125 443.667969 187.84375 443.652344 187.90625 443.640625 L 191.859375 442.964844 C 193.460938 442.6875 195.480469 441.269531 196.121094 440.75 C 197.664062 439.503906 198.199219 437.597656 197.429688 436.101562 C 197.414062 436.074219 197.398438 436.046875 197.386719 436.015625 C 197.3125 435.839844 195.394531 431.578125 190.167969 431.160156 L 184.203125 430.65625 C 182.667969 430.691406 180.460938 431.886719 179.335938 433 L 173.730469 438.289062 C 171.804688 440.195312 168.648438 440.183594 166.71875 438.246094 L 151.960938 423.425781 Z M 169.007812 453.71875 C 168.609375 453.71875 168.210938 453.707031 167.804688 453.679688 L 167.382812 453.652344 C 163.898438 453.4375 160.519531 452.0625 157.875 449.789062 L 140.039062 434.433594 C 139.773438 434.203125 139.613281 433.875 139.589844 433.523438 C 139.574219 433.171875 139.695312 432.832031 139.933594 432.574219 L 150.980469 420.679688 C 151.21875 420.421875 151.550781 420.273438 151.90625 420.265625 C 152.257812 420.253906 152.597656 420.398438 152.84375 420.644531 L 168.550781 436.417969 C 169.480469 437.347656 170.996094 437.355469 171.933594 436.429688 L 177.535156 431.140625 C 179.019531 429.667969 181.890625 428.078125 184.238281 428.066406 C 184.28125 428.0625 184.316406 428.066406 184.359375 428.070312 L 190.382812 428.582031 C 196.941406 429.105469 199.476562 434.34375 199.75 434.953125 C 201.0625 437.546875 200.242188 440.75 197.753906 442.761719 C 197.644531 442.851562 194.90625 445.0625 192.296875 445.515625 L 188.445312 446.175781 C 187.847656 446.378906 184.257812 447.652344 181.640625 449.507812 C 179.359375 451.125 174.792969 453.71875 169.007812 453.71875 " fill-opacity="1" fill-rule="nonzero"/><path fill="#5479f7" d="M 171.203125 382.976562 L 171.097656 382.210938 C 170.980469 381.386719 170.640625 380.589844 170.039062 380.015625 C 166.898438 377.015625 161.0625 382.03125 161.0625 382.03125 C 148.203125 392.183594 153.542969 403.972656 153.542969 403.972656 L 165.253906 430.042969 L 150.433594 446.871094 C 150.433594 446.871094 103.199219 418.457031 109.558594 383.003906 C 114.160156 357.347656 147.429688 337.503906 147.429688 337.503906 L 164.808594 349.113281 L 174.148438 368.28125 L 171.203125 382.976562 " fill-opacity="1" fill-rule="nonzero"/><path fill="#ffffff" d="M 204.433594 317.902344 L 205.074219 284.605469 L 226.386719 292.050781 L 226.449219 317.589844 C 226.355469 321.6875 222.902344 324.027344 222.902344 324.027344 C 218.632812 327.265625 212.574219 326.78125 208.128906 323.789062 L 207.097656 323.09375 C 205.375 321.941406 204.371094 319.976562 204.433594 317.902344 " fill-opacity="1" fill-rule="nonzero"/><path fill="#000000" d="M 204.433594 317.902344 L 204.441406 317.902344 Z M 206.332031 286.414062 L 205.730469 317.925781 C 205.730469 317.933594 205.730469 317.9375 205.730469 317.945312 C 205.675781 319.582031 206.457031 321.109375 207.820312 322.023438 L 208.851562 322.714844 C 213.105469 325.578125 218.566406 325.695312 222.121094 322.996094 C 222.203125 322.941406 225.078125 320.917969 225.152344 317.554688 L 225.09375 292.96875 Z M 216.015625 327.570312 C 213.105469 327.570312 210.085938 326.667969 207.40625 324.863281 L 206.375 324.171875 C 204.273438 322.757812 203.066406 320.402344 203.140625 317.871094 L 203.777344 284.578125 C 203.785156 284.164062 203.992188 283.78125 204.335938 283.539062 C 204.675781 283.304688 205.109375 283.246094 205.5 283.382812 L 226.8125 290.828125 C 227.332031 291.011719 227.679688 291.496094 227.679688 292.050781 L 227.742188 317.582031 C 227.632812 322.332031 223.792969 324.992188 223.628906 325.101562 C 221.460938 326.746094 218.789062 327.570312 216.015625 327.570312 " fill-opacity="1" fill-rule="nonzero"/><path fill="#000000" d="M 242.027344 255.148438 C 236.53125 253.824219 242.503906 260.765625 223.015625 251.089844 C 215.253906 247.234375 217.707031 257.464844 215.6875 256.46875 C 208.242188 252.800781 206.199219 251.875 202.191406 252.179688 C 199.539062 252.382812 193.28125 256.386719 193.519531 259.9375 C 194.28125 271.515625 199.765625 269.480469 201.410156 279.761719 C 202.566406 286.976562 204.117188 289.394531 206.683594 290.878906 C 209.277344 292.382812 211.980469 289.058594 214.941406 290.492188 C 218.765625 292.34375 216.738281 299.117188 220.148438 302.695312 C 222.296875 304.949219 227.898438 306.832031 237.90625 304.050781 C 239.527344 303.601562 240.597656 302.054688 240.4375 300.378906 C 240.238281 298.234375 239.96875 295.523438 239.492188 292.949219 C 237.230469 280.699219 233.578125 277.363281 235.597656 274.664062 C 238.691406 270.523438 246.90625 274.710938 249.007812 271.230469 C 251.191406 267.613281 249.5625 256.964844 242.027344 255.148438 " fill-opacity="1" fill-rule="nonzero"/><path fill="#ffffff" d="M 219.121094 271.386719 L 220.183594 274.617188 C 220.6875 276.140625 221.082031 277.699219 221.367188 279.273438 C 221.90625 282.230469 223.027344 287.269531 223.625 290.113281 C 225.546875 299.25 237.761719 291.804688 237.761719 291.804688 L 238.914062 289.59375 L 240.433594 289.277344 C 240.730469 289.21875 241.011719 289.09375 241.238281 288.894531 C 241.796875 288.394531 241.933594 287.621094 241.648438 286.984375 C 240.082031 283.496094 236.902344 275.71875 236.429688 269.164062 C 236.429688 269.164062 227.789062 265.207031 219.121094 271.386719 " fill-opacity="1" fill-rule="nonzero"/><path fill="#000000" d="M 220.652344 271.910156 L 221.414062 274.214844 C 221.933594 275.789062 222.34375 277.410156 222.640625 279.039062 C 223.027344 281.167969 223.734375 284.449219 224.300781 287.089844 C 224.523438 288.117188 224.726562 289.0625 224.890625 289.847656 C 225.238281 291.484375 225.957031 292.523438 227.089844 293.011719 C 229.894531 294.230469 234.773438 292.03125 236.785156 290.878906 L 237.765625 288.992188 C 237.945312 288.652344 238.269531 288.40625 238.652344 288.328125 L 240.171875 288.011719 C 240.28125 287.988281 240.347656 287.953125 240.375 287.929688 C 240.519531 287.800781 240.515625 287.628906 240.464844 287.515625 C 238.757812 283.699219 235.867188 276.496094 235.210938 270.078125 C 233.195312 269.375 227.054688 267.816406 220.652344 271.910156 Z M 229.019531 295.949219 C 227.988281 295.949219 226.980469 295.785156 226.0625 295.390625 C 224.128906 294.550781 222.882812 292.867188 222.359375 290.378906 C 222.195312 289.601562 221.992188 288.652344 221.769531 287.636719 C 221.199219 284.972656 220.488281 281.667969 220.09375 279.503906 C 219.820312 277.992188 219.4375 276.488281 218.953125 275.027344 L 217.890625 271.789062 C 217.714844 271.253906 217.90625 270.660156 218.367188 270.332031 C 227.542969 263.796875 236.589844 267.816406 236.96875 267.992188 C 237.398438 268.1875 237.6875 268.601562 237.722656 269.074219 C 238.1875 275.523438 241.449219 283.375 242.828125 286.457031 C 243.355469 287.628906 243.0625 288.996094 242.097656 289.859375 C 241.722656 290.195312 241.238281 290.429688 240.699219 290.546875 L 239.777344 290.738281 L 238.910156 292.402344 C 238.800781 292.613281 238.636719 292.785156 238.4375 292.910156 C 238.1875 293.058594 233.386719 295.949219 229.019531 295.949219 " fill-opacity="1" fill-rule="nonzero"/><path fill="#ffffff" d="M 219.53125 282.078125 C 219.53125 282.078125 216.980469 274.296875 213.683594 276.191406 C 210.390625 278.089844 213.414062 286.582031 219.53125 282.078125 " fill-opacity="1" fill-rule="nonzero"/><path fill="#000000" d="M 444.414062 32.699219 C 440.296875 32.699219 436.949219 36.050781 436.949219 40.167969 C 436.949219 44.285156 440.296875 47.632812 444.414062 47.632812 C 448.535156 47.632812 451.882812 44.285156 451.882812 40.167969 C 451.882812 36.050781 448.535156 32.699219 444.414062 32.699219 Z M 444.414062 50.222656 C 438.871094 50.222656 434.359375 45.710938 434.359375 40.167969 C 434.359375 34.625 438.871094 30.109375 444.414062 30.109375 C 449.960938 30.109375 454.472656 34.625 454.472656 40.167969 C 454.472656 45.710938 449.960938 50.222656 444.414062 50.222656 " fill-opacity="1" fill-rule="nonzero"/><path fill="#000000" d="M 81.042969 472.066406 C 80.808594 472.066406 80.578125 472.007812 80.367188 471.878906 L 75.738281 469.042969 C 75.128906 468.667969 74.9375 467.871094 75.3125 467.261719 C 75.6875 466.652344 76.484375 466.460938 77.09375 466.835938 L 81.71875 469.667969 C 82.328125 470.046875 82.519531 470.839844 82.144531 471.453125 C 81.902344 471.847656 81.476562 472.066406 81.042969 472.066406 " fill-opacity="1" fill-rule="nonzero"/><path fill="#000000" d="M 97.230469 481.996094 C 97 481.996094 96.765625 481.933594 96.554688 481.804688 L 91.929688 478.96875 C 91.320312 478.597656 91.128906 477.796875 91.503906 477.1875 C 91.875 476.578125 92.675781 476.386719 93.28125 476.765625 L 97.910156 479.601562 C 98.519531 479.972656 98.710938 480.769531 98.335938 481.378906 C 98.09375 481.777344 97.667969 481.996094 97.230469 481.996094 " fill-opacity="1" fill-rule="nonzero"/><path fill="#000000" d="M 80.503906 486.058594 C 80.277344 486.058594 80.046875 486 79.835938 485.871094 C 79.222656 485.503906 79.027344 484.707031 79.398438 484.097656 L 82.207031 479.453125 C 82.578125 478.839844 83.371094 478.648438 83.984375 479.015625 C 84.597656 479.382812 84.789062 480.183594 84.421875 480.792969 L 81.613281 485.433594 C 81.367188 485.835938 80.941406 486.058594 80.503906 486.058594 " fill-opacity="1" fill-rule="nonzero"/><path fill="#000000" d="M 90.335938 469.8125 C 90.105469 469.8125 89.875 469.753906 89.664062 469.625 C 89.054688 469.253906 88.859375 468.460938 89.226562 467.847656 L 92.039062 463.203125 C 92.40625 462.589844 93.203125 462.394531 93.8125 462.769531 C 94.425781 463.136719 94.621094 463.929688 94.25 464.542969 L 91.445312 469.1875 C 91.199219 469.589844 90.773438 469.8125 90.335938 469.8125 " fill-opacity="1" fill-rule="nonzero"/><path fill="#000000" d="M 481.722656 41.863281 C 481.492188 41.863281 481.257812 41.796875 481.050781 41.667969 L 476.421875 38.835938 C 475.808594 38.457031 475.617188 37.664062 475.996094 37.050781 C 476.367188 36.441406 477.164062 36.253906 477.769531 36.625 L 482.398438 39.464844 C 483.011719 39.835938 483.199219 40.636719 482.828125 41.242188 C 482.582031 41.640625 482.15625 41.863281 481.722656 41.863281 " fill-opacity="1" fill-rule="nonzero"/><path fill="#000000" d="M 497.910156 51.789062 C 497.683594 51.789062 497.453125 51.726562 497.238281 51.597656 L 492.613281 48.761719 C 492 48.390625 491.808594 47.589844 492.183594 46.980469 C 492.558594 46.371094 493.355469 46.183594 493.960938 46.554688 L 498.585938 49.390625 C 499.199219 49.761719 499.390625 50.5625 499.015625 51.167969 C 498.773438 51.566406 498.347656 51.789062 497.910156 51.789062 " fill-opacity="1" fill-rule="nonzero"/><path fill="#000000" d="M 481.183594 55.847656 C 480.960938 55.847656 480.730469 55.789062 480.515625 55.660156 C 479.90625 55.292969 479.710938 54.496094 480.082031 53.882812 L 482.890625 49.242188 C 483.261719 48.628906 484.054688 48.433594 484.664062 48.804688 C 485.277344 49.171875 485.472656 49.96875 485.101562 50.582031 L 482.292969 55.226562 C 482.050781 55.625 481.625 55.847656 481.183594 55.847656 " fill-opacity="1" fill-rule="nonzero"/><path fill="#000000" d="M 491.015625 39.597656 C 490.792969 39.597656 490.554688 39.535156 490.351562 39.414062 C 489.738281 39.039062 489.542969 38.25 489.910156 37.632812 L 492.71875 32.992188 C 493.085938 32.378906 493.878906 32.1875 494.5 32.554688 C 495.109375 32.921875 495.304688 33.71875 494.933594 34.335938 L 492.125 38.972656 C 491.878906 39.378906 491.457031 39.597656 491.015625 39.597656 " fill-opacity="1" fill-rule="nonzero"/><path fill="#000000" d="M 78.945312 431.050781 C 78.359375 431.050781 77.824219 430.648438 77.6875 430.050781 C 69.714844 395.277344 71.132812 357.828125 81.785156 321.738281 C 81.988281 321.054688 82.710938 320.660156 83.394531 320.863281 C 84.082031 321.066406 84.472656 321.785156 84.269531 322.472656 C 73.742188 358.132812 72.335938 395.132812 80.210938 429.46875 C 80.371094 430.167969 79.933594 430.859375 79.238281 431.019531 C 79.140625 431.042969 79.042969 431.050781 78.945312 431.050781 " fill-opacity="1" fill-rule="nonzero"/><path fill="#000000" d="M 88.273438 309.6875 L 92.777344 312.988281 C 93.085938 311.8125 93.496094 310.175781 93.871094 308.410156 Z M 93.53125 316.441406 C 93.257812 316.441406 92.988281 316.351562 92.765625 316.191406 L 84.457031 310.09375 C 84.046875 309.796875 83.851562 309.285156 83.953125 308.789062 C 84.054688 308.292969 84.441406 307.902344 84.933594 307.789062 L 95.246094 305.445312 C 95.671875 305.347656 96.117188 305.472656 96.429688 305.773438 C 96.742188 306.074219 96.882812 306.515625 96.804688 306.941406 C 96.011719 311.230469 94.820312 315.335938 94.773438 315.507812 C 94.652344 315.910156 94.34375 316.234375 93.945312 316.371094 C 93.808594 316.417969 93.667969 316.441406 93.53125 316.441406 " fill-opacity="1" fill-rule="nonzero"/></svg>