<svg xmlns="http://www.w3.org/2000/svg" xmlns:xlink="http://www.w3.org/1999/xlink" width="1640" zoomAndPan="magnify" viewBox="0 0 1230 693.000001" height="924" preserveAspectRatio="xMidYMid meet" version="1.0"><defs><clipPath id="e2d8318a07"><path d="M 1211 200 L 1229.113281 200 L 1229.113281 230 L 1211 230 Z M 1211 200 " clip-rule="nonzero"/></clipPath><clipPath id="89f4ab32e0"><path d="M 289.128906 -338.003906 L 1245.800781 212.800781 L 821.296875 950.101562 L -135.375 399.292969 Z M 289.128906 -338.003906 " clip-rule="nonzero"/></clipPath><clipPath id="e91462fa3d"><path d="M 289.128906 -338.003906 L 1245.800781 212.800781 L 821.296875 950.101562 L -135.375 399.292969 Z M 289.128906 -338.003906 " clip-rule="nonzero"/></clipPath><clipPath id="a684ffabc3"><path d="M 41 169 L 1180 169 L 1180 656 L 41 656 Z M 41 169 " clip-rule="nonzero"/></clipPath><clipPath id="88955b5c22"><path d="M 289.128906 -338.003906 L 1245.800781 212.800781 L 821.296875 950.101562 L -135.375 399.292969 Z M 289.128906 -338.003906 " clip-rule="nonzero"/></clipPath><clipPath id="99c9a362b4"><path d="M 289.128906 -338.003906 L 1245.800781 212.800781 L 821.296875 950.101562 L -135.375 399.292969 Z M 289.128906 -338.003906 " clip-rule="nonzero"/></clipPath><clipPath id="86d73cdf79"><path d="M 0.886719 192 L 13 192 L 13 220 L 0.886719 220 Z M 0.886719 192 " clip-rule="nonzero"/></clipPath><clipPath id="2bfa71e02d"><path d="M 289.128906 -338.003906 L 1245.800781 212.800781 L 821.296875 950.101562 L -135.375 399.292969 Z M 289.128906 -338.003906 " clip-rule="nonzero"/></clipPath><clipPath id="41cda3f2db"><path d="M 289.128906 -338.003906 L 1245.800781 212.800781 L 821.296875 950.101562 L -135.375 399.292969 Z M 289.128906 -338.003906 " clip-rule="nonzero"/></clipPath></defs><g clip-path="url(#e2d8318a07)"><g clip-path="url(#89f4ab32e0)"><g clip-path="url(#e91462fa3d)"><path fill="#5e17eb" d="M 1211.632812 220.308594 L 1221.242188 200.472656 C 1228.042969 204.390625 1234.269531 206.164062 1241.074219 210.082031 L 1230.105469 229.132812 C 1224.664062 226 1217.859375 222.082031 1211.632812 220.308594 Z M 1211.632812 220.308594 " fill-opacity="1" fill-rule="nonzero"/></g></g></g><g clip-path="url(#a684ffabc3)"><g clip-path="url(#88955b5c22)"><g clip-path="url(#99c9a362b4)"><path fill="#5e17eb" d="M 274.800781 635.820312 C 266.636719 631.121094 257.894531 624.273438 249.152344 617.429688 L 262.84375 599.945312 C 273.523438 609.71875 284.410156 615.984375 297.441406 621.675781 L 287.832031 641.511719 C 282.96875 640.519531 278.882812 638.171875 274.800781 635.820312 Z M 332.78125 654.707031 L 336.164062 633.097656 C 349.402344 635.285156 362.84375 633.964844 377.070312 631.285156 L 380.699219 653.304688 C 363.75 654.417969 348.164062 656.316406 332.78125 654.707031 Z M 218.675781 585.386719 C 209.5625 572.890625 201.8125 561.179688 193.480469 547.324219 L 213.191406 535.117188 C 220.164062 548.191406 227.914062 559.902344 236.449219 570.253906 Z M 174.140625 505.386719 C 168.53125 493.097656 163.707031 479.449219 159.089844 462.292969 L 179.957031 454.375 C 185.359375 470.167969 190.183594 483.820312 194.429688 495.324219 Z M 424.578125 636.890625 L 416.660156 616.027344 C 428.949219 610.417969 442.019531 603.449219 454.515625 594.335938 L 465.359375 613.261719 C 452.082031 623.738281 438.226562 632.066406 424.578125 636.890625 Z M 145.398438 419.984375 C 140.574219 406.335938 136.53125 391.324219 131.707031 377.675781 L 152.574219 369.757812 C 157.398438 383.40625 161.441406 398.417969 166.265625 412.066406 Z M 504.207031 586.707031 L 490.433594 569.714844 C 494.925781 565.054688 500.78125 561.179688 505.277344 556.519531 C 511.917969 551.28125 517.195312 545.261719 523.835938 540.023438 L 538.390625 555.652344 C 533.113281 561.675781 526.472656 566.910156 519.050781 573.511719 C 515.339844 576.808594 510.0625 582.828125 504.207031 586.707031 Z M 117.234375 336.726562 L 115.292969 333.796875 C 109.6875 321.507812 103.292969 310.582031 96.902344 299.652344 L 115.253906 286.664062 C 121.644531 297.589844 128.613281 310.664062 134.222656 322.953125 L 135.378906 327.242188 Z M 72.859375 265.878906 C 62.964844 254.746094 53.644531 245.757812 41.398438 238.703125 L 53.726562 220.4375 C 65.191406 228.847656 77.230469 239.40625 87.128906 250.539062 Z M 572 522.457031 L 557.441406 506.828125 C 569.359375 495.570312 579.132812 484.890625 591.050781 473.632812 L 605.609375 489.261719 C 593.691406 500.519531 581.773438 511.777344 572 522.457031 Z M 636.867188 460.148438 L 623.09375 443.15625 C 636.371094 432.683594 648.867188 423.570312 660.578125 415.816406 L 671.421875 434.746094 C 661.855469 441.921875 650.144531 449.671875 636.867188 460.148438 Z M 912.621094 531.941406 C 903.09375 526.457031 895.136719 518.25 887.175781 510.042969 C 883.878906 506.332031 880.578125 502.621094 878.640625 499.695312 L 895.628906 485.921875 C 897.570312 488.847656 900.867188 492.558594 902.804688 495.488281 C 909.402344 502.910156 916.785156 508.972656 923.589844 512.890625 Z M 712 414.621094 L 705.445312 394.539062 C 719.875 388.351562 734.886719 384.3125 749.898438 380.269531 L 753.527344 402.292969 C 739.300781 404.972656 725.648438 409.796875 712 414.621094 Z M 961.28125 541.839844 L 959.011719 520.601562 C 969.734375 517.714844 980.664062 511.324219 986.148438 501.796875 L 1005.40625 509.261719 L 1003.835938 511.980469 C 995.21875 526.953125 979.011719 539.363281 961.28125 541.839844 Z M 856.578125 456.1875 C 852.539062 441.179688 848.496094 426.167969 847.382812 409.21875 L 868.621094 406.949219 C 869.15625 421.753906 872.621094 434.621094 877.445312 448.269531 Z M 795.421875 395.609375 L 795.300781 373.796875 C 810.105469 373.261719 826.269531 373.507812 841.652344 375.117188 L 838.269531 396.722656 C 824.25 395.898438 810.226562 395.074219 795.421875 395.609375 Z M 980.992188 469.835938 C 977.691406 466.125 973.816406 460.269531 969.15625 455.777344 C 963.136719 450.496094 958.476562 446.003906 951.671875 442.085938 L 965.363281 424.601562 C 971.382812 429.878906 978.1875 433.796875 983.425781 440.433594 C 989.445312 445.714844 994.683594 452.351562 999.34375 456.847656 Z M 878.558594 405.425781 L 885.445312 384.023438 C 899.257812 388.351562 914.433594 393.464844 926.683594 400.515625 L 917.074219 420.351562 C 904.042969 414.660156 892.371094 409.753906 878.558594 405.425781 Z M 849.484375 361.507812 C 851.878906 344.765625 856.992188 329.589844 862.105469 314.414062 L 881.363281 321.878906 C 875.671875 334.910156 871.339844 348.722656 869.734375 364.105469 Z M 904.660156 284.558594 L 888.539062 271.652344 C 897.734375 258.824219 908.289062 246.785156 920.207031 235.527344 L 933.980469 252.515625 C 922.847656 262.414062 913.074219 273.09375 904.660156 284.558594 Z M 967.960938 224.96875 L 958.476562 206.824219 C 972.332031 198.496094 985.402344 191.527344 1001.199219 186.125 L 1007.753906 206.207031 C 994.105469 211.03125 981.03125 218 967.960938 224.96875 Z M 1048.496094 195.238281 L 1046.230469 174 C 1060.457031 171.320312 1076.042969 169.421875 1092.207031 169.671875 L 1090.1875 192.0625 C 1076.167969 191.238281 1061.363281 191.773438 1048.496094 195.238281 Z M 1132.25 194.535156 L 1136.414062 171.566406 C 1151.011719 174.535156 1165.609375 177.503906 1179.425781 181.835938 L 1172.539062 203.238281 C 1160.085938 199.691406 1145.488281 196.722656 1132.25 194.535156 Z M 1132.25 194.535156 " fill-opacity="1" fill-rule="nonzero"/></g></g></g><g clip-path="url(#86d73cdf79)"><g clip-path="url(#2bfa71e02d)"><g clip-path="url(#41cda3f2db)"><path fill="#5e17eb" d="M -14.230469 215.734375 L -10.066406 192.765625 C -1.695312 193.960938 4.53125 195.734375 12.117188 198.292969 L 5.230469 219.695312 C -0.996094 217.921875 -8.003906 217.507812 -14.230469 215.734375 Z M -14.230469 215.734375 " fill-opacity="1" fill-rule="nonzero"/></g></g></g></svg>