<svg xmlns="http://www.w3.org/2000/svg" xmlns:xlink="http://www.w3.org/1999/xlink" width="336" zoomAndPan="magnify" viewBox="0 0 252 43.499998" height="57" preserveAspectRatio="xMidYMid meet" version="1.0"><path fill="#3385ff" d="M 238.304688 27.21875 C 235.777344 26.925781 237.554688 25.070312 236.953125 24.0625 C 236.234375 22.859375 237.570312 22.605469 238.574219 22.5625 C 239.78125 22.511719 241.121094 22.574219 241.214844 20.886719 C 241.3125 19.089844 239.824219 19.238281 238.703125 19.070312 C 236.707031 18.777344 235.976562 18.195312 237.789062 16.492188 C 238.21875 16.085938 238.410156 15.148438 238.324219 14.507812 C 237.914062 11.410156 238.179688 8.5 239.597656 5.621094 C 240.367188 4.0625 239.265625 3.023438 237.753906 2.347656 C 234.15625 0.742188 230.597656 0.996094 227.015625 2.320312 C 227.550781 2.394531 228.085938 2.464844 228.621094 2.535156 C 228.589844 2.703125 228.605469 2.980469 228.523438 3.015625 C 227.863281 3.277344 227.222656 3.207031 226.640625 2.773438 C 222.734375 3.085938 219.035156 1.746094 214.546875 1.703125 C 215.652344 1.09375 216.101562 0.847656 217.378906 0.140625 C 207.648438 1.421875 198.820312 0.0117188 189.890625 0.886719 C 177.160156 2.132812 164.273438 1.238281 151.453125 1.488281 C 138.550781 1.734375 125.597656 1.207031 112.664062 1.1875 C 102.523438 1.171875 92.3125 1.882812 82.273438 0.875 C 75.117188 0.15625 68.152344 1.648438 61.011719 0.851562 C 55.832031 0.273438 50.382812 1.765625 45.015625 1.863281 C 36.433594 2.027344 27.851562 1.988281 19.28125 1.371094 C 16.902344 1.199219 15.214844 3.054688 15.917969 4.929688 C 16.863281 7.460938 15.617188 11.847656 13.488281 13.0625 C 11.78125 14.039062 12.144531 14.617188 13.015625 16.308594 C 14.703125 19.5625 18.464844 20.058594 20.484375 22.632812 C 19.242188 24.1875 16.082031 23.382812 16.480469 26.171875 C 17 29.765625 15.089844 30.753906 12.074219 31.011719 C 11.230469 31.082031 10.023438 30.910156 9.929688 32.347656 C 9.847656 33.585938 10.863281 33.835938 11.640625 34.363281 C 13.425781 35.566406 15.800781 35.46875 17.105469 37.898438 C 19.238281 41.859375 22.214844 42.605469 26.84375 41.464844 C 28.441406 41.070312 30.148438 41.015625 31.804688 41.007812 C 38.234375 40.972656 44.671875 41.417969 51.082031 41.445312 C 64.984375 41.507812 78.824219 40.109375 92.8125 40.886719 C 110.550781 41.871094 128.363281 41.648438 146.140625 42.175781 C 163.40625 42.6875 180.6875 42.574219 197.964844 42.664062 C 207.03125 42.710938 216.097656 42.648438 225.160156 42.542969 C 228.515625 42.5 231.632812 41.339844 233.054688 38.164062 C 234.082031 35.863281 235.476562 34.941406 237.78125 34.6875 C 240.238281 34.414062 241.488281 32.652344 241.800781 30.4375 C 242.140625 27.988281 240.003906 27.417969 238.304688 27.21875 " fill-opacity="1" fill-rule="nonzero"/></svg>