<svg xmlns="http://www.w3.org/2000/svg" xmlns:xlink="http://www.w3.org/1999/xlink" width="500" zoomAndPan="magnify" viewBox="0 0 375 374.999991" height="500" preserveAspectRatio="xMidYMid meet" version="1.0"><defs><clipPath id="af53ddc931"><path d="M 0 6.5625 L 375 6.5625 L 375 368.8125 L 0 368.8125 Z M 0 6.5625 " clip-rule="nonzero"/></clipPath><clipPath id="327759433a"><path d="M 140 264 L 235 264 L 235 368.8125 L 140 368.8125 Z M 140 264 " clip-rule="nonzero"/></clipPath><clipPath id="60d007cbea"><path d="M 147 271 L 228 271 L 228 368.8125 L 147 368.8125 Z M 147 271 " clip-rule="nonzero"/></clipPath></defs><g clip-path="url(#af53ddc931)"><path fill="#ffffff" d="M 173.589844 81.898438 L 173.5625 81.914062 L 69.425781 125.054688 L 69.425781 194.632812 L 138.851562 194.632812 L 138.851562 264.058594 L 69.425781 264.058594 L 69.425781 298.769531 L 173.597656 298.769531 L 173.597656 368.195312 L 0 368.195312 L 0 78.667969 L 173.578125 6.773438 L 173.589844 6.78125 Z M 367.574219 75.585938 L 340.28125 64.285156 L 337.644531 63.191406 L 337.492188 63.128906 L 325.839844 58.300781 C 325.832031 58.292969 325.816406 58.292969 325.808594 58.285156 L 319.753906 55.773438 L 316.875 54.582031 C 316.867188 54.574219 316.859375 54.574219 316.851562 54.574219 L 305.566406 49.894531 L 292.140625 44.332031 L 270.855469 35.523438 L 263.429688 32.445312 L 253.5 28.332031 L 246.78125 25.546875 L 246.070312 25.253906 L 236.140625 21.136719 L 235.949219 21.058594 L 211.15625 10.796875 L 208.863281 9.851562 L 201.453125 6.773438 L 201.4375 6.78125 L 201.4375 368.195312 L 235.964844 368.195312 L 236.15625 368.117188 L 236.15625 368.195312 L 375 368.195312 L 375 194.632812 L 289.554688 194.632812 L 289.554688 221.609375 L 305.574219 221.570312 L 305.574219 298.769531 L 270.863281 298.769531 L 270.863281 110.667969 L 292.148438 119.488281 L 305.574219 125.046875 L 305.953125 125.207031 L 337.5 138.273438 L 340.289062 139.429688 L 366.410156 150.25 L 367.574219 150.730469 L 373.410156 153.148438 L 375 153.808594 L 375 78.660156 Z M 367.574219 75.585938 " fill-opacity="1" fill-rule="nonzero"/></g><g clip-path="url(#327759433a)"><path fill="#3385ff" d="M 234.976562 368.195312 L 140.023438 368.195312 L 140.023438 282.773438 L 187.5 264.050781 L 234.976562 282.773438 Z M 234.976562 368.195312 " fill-opacity="1" fill-rule="nonzero"/></g><g clip-path="url(#60d007cbea)"><path fill="#ffffff" d="M 227.371094 304.9375 L 227.371094 368.195312 L 221.6875 368.195312 L 221.6875 328.308594 L 221.710938 328.300781 L 221.6875 328.300781 L 221.6875 313.445312 L 207.414062 319.359375 L 207.414062 328.945312 L 206.351562 328.503906 L 205.855469 328.300781 L 204.585938 327.773438 L 201.730469 326.585938 L 201.730469 315.554688 L 207.457031 313.183594 L 213.140625 310.824219 Z M 187.523438 320.707031 L 187.523438 368.1875 L 190.347656 368.1875 L 190.347656 321.878906 Z M 193.207031 323.0625 L 193.207031 368.195312 L 196.03125 368.195312 L 196.03125 324.234375 Z M 198.917969 325.429688 L 198.894531 325.421875 L 198.894531 368.195312 L 201.722656 368.195312 L 201.722656 326.59375 Z M 206.34375 328.503906 L 205.847656 328.300781 L 204.578125 327.773438 L 204.578125 368.1875 L 207.40625 368.1875 L 207.40625 328.9375 Z M 210.316406 330.144531 L 210.316406 368.195312 L 213.140625 368.195312 L 213.140625 331.324219 Z M 184.621094 331.347656 L 184.058594 331.582031 L 181.792969 332.519531 L 178.9375 333.707031 L 178.265625 333.984375 L 176.632812 334.65625 L 176.109375 334.871094 L 173.253906 336.058594 L 170.425781 337.230469 L 169.152344 337.757812 L 167.570312 338.410156 L 164.742188 339.582031 L 164.742188 368.1875 L 170.425781 368.1875 L 170.425781 343.382812 L 173.253906 342.210938 L 176.109375 341.023438 L 176.578125 340.832031 L 178.9375 339.851562 L 179.390625 339.660156 L 181.792969 338.664062 L 184.058594 337.726562 L 184.621094 337.492188 L 187.523438 336.292969 L 187.523438 330.132812 Z M 176.570312 297.664062 L 176.109375 297.472656 L 173.253906 296.285156 L 170.425781 295.113281 L 169.144531 294.585938 L 167.964844 294.097656 L 167.570312 293.933594 L 164.742188 292.761719 L 161.71875 291.511719 L 159.007812 290.390625 L 154.234375 288.414062 L 154.226562 288.414062 L 153.316406 288.039062 L 147.625 285.679688 L 147.625 368.203125 L 153.316406 368.203125 L 153.316406 294.183594 L 154.285156 294.578125 L 159.007812 296.535156 L 161.71875 297.65625 L 164.742188 298.910156 L 166.941406 299.816406 L 167.570312 300.082031 L 169.152344 300.730469 L 170.425781 301.257812 L 173.253906 302.429688 L 173.253906 336.058594 L 176.109375 334.871094 L 176.632812 334.65625 L 178.265625 333.984375 L 178.9375 333.707031 L 178.9375 298.636719 Z M 207.449219 299.339844 L 196.039062 304.085938 L 193.214844 305.257812 L 190.355469 306.445312 L 187.53125 307.625 L 184.628906 308.824219 L 181.800781 310.003906 L 178.945312 311.191406 L 178.945312 317.34375 L 193.21875 311.410156 L 196.046875 310.238281 L 207.457031 305.492188 L 207.457031 313.183594 L 213.140625 310.824219 L 213.140625 296.976562 Z M 170.417969 281.695312 L 170.417969 295.113281 L 173.246094 296.285156 L 173.246094 280.523438 Z M 176.570312 279.148438 L 176.101562 279.339844 L 176.101562 297.464844 L 176.566406 297.65625 L 178.929688 298.636719 L 178.929688 278.167969 Z M 184 276.070312 L 181.792969 276.988281 L 181.792969 310.003906 L 184.621094 308.824219 L 184.621094 275.808594 Z M 187.523438 274.605469 L 187.523438 307.625 L 190.347656 306.445312 L 190.347656 273.433594 Z M 193.207031 272.292969 L 193.207031 305.257812 L 196.03125 304.085938 L 196.03125 271.128906 Z M 164.730469 284.046875 L 164.730469 292.75 L 167.554688 293.921875 L 167.554688 282.867188 Z M 164.730469 284.046875 " fill-opacity="1" fill-rule="nonzero"/></g><path fill="#3385ff" d="M 187.476562 67.125 L 83.355469 106.398438 L 187.5 63.1875 L 291.636719 106.390625 Z M 187.476562 67.125 " fill-opacity="1" fill-rule="nonzero"/></svg>