<svg xmlns="http://www.w3.org/2000/svg" xmlns:xlink="http://www.w3.org/1999/xlink" width="500" zoomAndPan="magnify" viewBox="0 0 375 374.999991" height="500" preserveAspectRatio="xMidYMid meet" version="1.0"><defs><clipPath id="0805f6c186"><path d="M 76.722656 80.601562 L 297.972656 80.601562 L 297.972656 294.351562 L 76.722656 294.351562 Z M 76.722656 80.601562 " clip-rule="nonzero"/></clipPath><clipPath id="70a29e0847"><path d="M 159 232 L 216 232 L 216 294.351562 L 159 294.351562 Z M 159 232 " clip-rule="nonzero"/></clipPath><clipPath id="81106cc454"><path d="M 163 236 L 212 236 L 212 294.351562 L 163 294.351562 Z M 163 236 " clip-rule="nonzero"/></clipPath></defs><g clip-path="url(#0805f6c186)"><path fill="#ffffff" d="M 179.277344 125.113281 L 179.261719 125.121094 L 117.738281 150.609375 L 117.738281 191.714844 L 158.753906 191.714844 L 158.753906 232.730469 L 117.738281 232.730469 L 117.738281 253.234375 L 179.28125 253.234375 L 179.28125 294.25 L 76.722656 294.25 L 76.722656 123.203125 L 179.269531 80.730469 L 179.277344 80.734375 Z M 293.878906 121.382812 L 277.757812 114.707031 L 276.199219 114.0625 L 276.109375 114.023438 L 269.222656 111.171875 C 269.21875 111.167969 269.210938 111.167969 269.207031 111.164062 L 265.628906 109.679688 L 263.925781 108.972656 C 263.921875 108.96875 263.917969 108.96875 263.914062 108.96875 L 257.246094 106.203125 L 249.316406 102.917969 L 236.742188 97.714844 L 232.355469 95.898438 L 226.484375 93.464844 L 222.519531 91.820312 L 222.097656 91.648438 L 216.230469 89.214844 L 216.117188 89.167969 L 201.472656 83.105469 L 200.117188 82.546875 L 195.738281 80.730469 L 195.730469 80.734375 L 195.730469 294.25 L 216.128906 294.25 L 216.238281 294.203125 L 216.238281 294.25 L 298.265625 294.25 L 298.265625 191.714844 L 247.789062 191.714844 L 247.789062 207.652344 L 257.25 207.628906 L 257.25 253.234375 L 236.746094 253.234375 L 236.746094 142.109375 L 249.320312 147.320312 L 257.25 150.601562 L 257.476562 150.699219 L 276.113281 158.417969 L 277.761719 159.101562 L 293.191406 165.492188 L 293.878906 165.777344 L 297.328125 167.207031 L 298.265625 167.59375 L 298.265625 123.199219 Z M 293.878906 121.382812 " fill-opacity="1" fill-rule="nonzero"/></g><g clip-path="url(#70a29e0847)"><path fill="#3385ff" d="M 215.542969 294.25 L 159.449219 294.25 L 159.449219 243.785156 L 187.496094 232.726562 L 215.542969 243.785156 Z M 215.542969 294.25 " fill-opacity="1" fill-rule="nonzero"/></g><g clip-path="url(#81106cc454)"><path fill="#ffffff" d="M 211.050781 256.878906 L 211.050781 294.25 L 207.695312 294.25 L 207.695312 270.6875 L 207.707031 270.683594 L 207.695312 270.683594 L 207.695312 261.90625 L 199.261719 265.398438 L 199.261719 271.0625 L 198.632812 270.804688 L 198.339844 270.683594 L 195.902344 269.667969 L 195.902344 263.152344 L 199.285156 261.75 L 202.644531 260.359375 Z M 187.507812 266.195312 L 187.507812 294.246094 L 189.179688 294.246094 L 189.179688 266.886719 Z M 190.867188 267.589844 L 190.867188 294.25 L 192.535156 294.25 L 192.535156 268.28125 Z M 194.242188 268.984375 L 194.226562 268.980469 L 194.226562 294.25 L 195.898438 294.25 L 195.898438 269.671875 Z M 198.628906 270.804688 L 198.335938 270.683594 L 197.585938 270.371094 L 197.585938 294.246094 L 199.257812 294.246094 L 199.257812 271.058594 Z M 200.972656 271.773438 L 200.972656 294.25 L 202.644531 294.25 L 202.644531 272.46875 Z M 185.792969 272.480469 L 185.460938 272.621094 L 184.125 273.175781 L 182.4375 273.875 L 182.039062 274.039062 L 181.074219 274.4375 L 180.765625 274.5625 L 179.078125 275.265625 L 177.410156 275.957031 L 176.65625 276.269531 L 175.722656 276.652344 L 174.050781 277.34375 L 174.050781 294.246094 L 177.410156 294.246094 L 177.410156 279.589844 L 179.078125 278.898438 L 180.765625 278.199219 L 181.042969 278.085938 L 182.4375 277.503906 L 182.707031 277.394531 L 184.125 276.804688 L 185.460938 276.25 L 185.792969 276.113281 L 187.507812 275.402344 L 187.507812 271.765625 Z M 181.039062 252.582031 L 180.765625 252.46875 L 179.078125 251.769531 L 177.410156 251.078125 L 176.652344 250.765625 L 175.957031 250.476562 L 175.722656 250.378906 L 174.050781 249.6875 L 172.265625 248.949219 L 170.664062 248.285156 L 167.84375 247.117188 L 167.835938 247.117188 L 167.300781 246.894531 L 163.9375 245.503906 L 163.9375 294.253906 L 167.300781 294.253906 L 167.300781 250.527344 L 167.871094 250.761719 L 170.664062 251.914062 L 172.265625 252.578125 L 174.050781 253.316406 L 175.347656 253.855469 L 175.722656 254.011719 L 176.65625 254.394531 L 177.410156 254.707031 L 179.078125 255.398438 L 179.078125 275.265625 L 180.765625 274.5625 L 181.074219 274.4375 L 182.039062 274.039062 L 182.4375 273.875 L 182.4375 253.15625 Z M 199.28125 253.574219 L 192.539062 256.375 L 190.871094 257.070312 L 189.183594 257.769531 L 187.511719 258.46875 L 185.800781 259.175781 L 184.128906 259.875 L 182.441406 260.574219 L 182.441406 264.207031 L 190.875 260.703125 L 192.546875 260.011719 L 199.285156 257.207031 L 199.285156 261.75 L 202.644531 260.359375 L 202.644531 252.175781 Z M 177.40625 243.148438 L 177.40625 251.078125 L 179.074219 251.769531 L 179.074219 242.457031 Z M 181.039062 241.644531 L 180.761719 241.757812 L 180.761719 252.464844 L 181.035156 252.578125 L 182.433594 253.15625 L 182.433594 241.0625 Z M 185.425781 239.824219 L 184.125 240.367188 L 184.125 259.875 L 185.792969 259.175781 L 185.792969 239.671875 Z M 187.507812 238.960938 L 187.507812 258.46875 L 189.179688 257.769531 L 189.179688 238.269531 Z M 190.867188 237.59375 L 190.867188 257.070312 L 192.535156 256.375 L 192.535156 236.90625 Z M 174.042969 244.539062 L 174.042969 249.679688 L 175.714844 250.371094 L 175.714844 243.839844 Z M 174.042969 244.539062 " fill-opacity="1" fill-rule="nonzero"/></g><path fill="#3385ff" d="M 187.484375 116.386719 L 125.96875 139.585938 L 187.496094 114.058594 L 249.015625 139.582031 Z M 187.484375 116.386719 " fill-opacity="1" fill-rule="nonzero"/></svg>