<svg xmlns="http://www.w3.org/2000/svg" xmlns:xlink="http://www.w3.org/1999/xlink" width="1377" zoomAndPan="magnify" viewBox="0 0 1032.75 693.000001" height="924" preserveAspectRatio="xMidYMid meet" version="1.0"><path fill="#737373" d="M 332.71875 325.375 C 299.445312 316.492188 259.890625 307.902344 221.617188 305.1875 C 194.253906 303.261719 167.558594 304.472656 144.054688 309.828125 C 100.84375 319.675781 67.6875 343.210938 56.300781 388.128906 C 41.804688 448.039062 86.105469 487.542969 151.261719 503.472656 C 173.980469 509.027344 199.007812 512.019531 223.683594 512.476562 C 212.183594 525.855469 207.675781 541.976562 217.058594 560.605469 C 233.105469 592.578125 274.042969 605.785156 319.703125 604.992188 C 381.625 603.910156 451.5625 577.351562 475.445312 543.050781 C 477.34375 540.328125 476.664062 536.574219 473.929688 534.667969 C 471.203125 532.765625 467.433594 533.457031 465.539062 536.175781 C 446.683594 563.332031 396.535156 584.449219 346.542969 591.078125 C 295.984375 597.746094 244.992188 590.023438 227.542969 555.324219 C 219.515625 539.394531 225.726562 526.066406 237.203125 515.308594 C 238.257812 514.320312 239.367188 513.320312 240.492188 512.40625 C 263.324219 511.765625 285.328125 508.898438 304.289062 503.902344 C 332.644531 496.425781 354.066406 484.210938 362.9375 469.816406 C 365.378906 466.398438 364.535156 463.636719 362.1875 461.417969 C 361.316406 460.621094 357.996094 459.085938 352.515625 459.535156 C 342.835938 460.316406 321.429688 464.496094 301.074219 470.472656 C 290.3125 473.597656 274.46875 479.042969 259.195312 486.742188 C 226.328125 487.429688 190.425781 483.359375 159.417969 473.832031 C 116.113281 460.496094 81.023438 437.902344 92.847656 397.957031 C 103.964844 358.855469 141.082031 348.027344 183.15625 346.601562 C 252.652344 344.304688 337.191406 369.960938 377.421875 382.527344 C 383.328125 384.339844 404.160156 390.410156 425.429688 397.601562 L 425.554688 397.621094 C 433.527344 403.046875 441.625 408.257812 449.84375 413.226562 C 456.269531 417.113281 468.488281 426.910156 475.050781 429.339844 C 481.332031 431.667969 486.667969 430.65625 490.449219 429.324219 C 497.550781 426.859375 504.136719 421.0625 503.433594 407.539062 C 502.957031 398.585938 494.777344 386.433594 478.671875 376.734375 C 459.632812 365.261719 427.828125 354.289062 407.445312 347.746094 C 398.445312 341.839844 389.566406 335.796875 380.789062 329.6875 C 369.304688 321.6875 352.914062 310.671875 335.128906 296.859375 C 303.738281 272.550781 267.578125 240.1875 243.285156 206.25 C 217.8125 170.71875 205.242188 133.230469 230.964844 101.328125 C 239.035156 91.472656 249.433594 85.691406 260.777344 82.417969 C 272.875 78.894531 286.027344 78.121094 298.839844 78.289062 C 354.851562 79.089844 405.609375 101.605469 449.585938 135.734375 C 515.585938 186.980469 566.355469 264.28125 597 334.820312 C 598.792969 338.949219 603.617188 340.816406 607.734375 339.035156 C 611.875 337.222656 613.757812 332.4375 611.960938 328.308594 C 580.269531 255.519531 527.609375 175.914062 459.484375 123.007812 C 412.722656 86.644531 358.679688 62.835938 299.078125 61.933594 C 281.597656 61.6875 263.601562 63.25 247.746094 69.527344 C 236.566406 73.984375 226.433594 80.691406 218.105469 90.726562 C 193.25 120.222656 194.871094 154.425781 210.875 188.777344 C 230.960938 231.964844 275.058594 275.109375 313.210938 308.574219 C 319.976562 314.488281 326.523438 320.109375 332.71875 325.375 Z M 334.058594 474.566406 C 325.0625 476.363281 314.578125 478.859375 304.375 481.796875 C 302.785156 482.261719 301.074219 482.785156 299.277344 483.34375 C 306.492188 482.1875 313.273438 480.792969 319.554688 479.085938 C 324.773438 477.710938 329.65625 476.214844 334.058594 474.566406 Z M 334.058594 474.566406 " fill-opacity="1" fill-rule="evenodd"/></svg>