<svg xmlns="http://www.w3.org/2000/svg" xmlns:xlink="http://www.w3.org/1999/xlink" width="1000" zoomAndPan="magnify" viewBox="0 0 750 374.999991" height="500" preserveAspectRatio="xMidYMid meet" version="1.0"><defs><g/></defs><g fill="#3385ff" fill-opacity="1"><g transform="translate(0.000009, 262.252274)"><g><path d="M 94.5625 -60.765625 L 47.765625 -60.765625 L 47.765625 -21.265625 L 92.390625 -21.265625 L 93.625 -37.796875 L 114.703125 -37.796875 L 114.703125 0 L 5.3125 0 L 5.3125 -16.609375 L 20.03125 -19.46875 L 20.03125 -118.6875 L 5.3125 -121.53125 L 5.3125 -138.25 L 114.5 -138.25 L 114.5 -100.359375 L 93.234375 -100.359375 L 92 -116.875 L 47.765625 -116.875 L 47.765625 -82.125 L 94.5625 -82.125 Z M 94.5625 -60.765625 "/></g></g><g transform="translate(124.196135, 262.252274)"><g><path d="M 71.40625 0 C 70.644531 -1.707031 69.976562 -3.460938 69.40625 -5.265625 C 68.832031 -7.066406 68.390625 -8.890625 68.078125 -10.734375 C 64.785156 -6.929688 60.78125 -3.859375 56.0625 -1.515625 C 51.351562 0.828125 45.957031 2 39.875 2 C 29.8125 2 21.820312 -0.738281 15.90625 -6.21875 C 9.988281 -11.695312 7.03125 -19.148438 7.03125 -28.578125 C 7.03125 -38.203125 10.890625 -45.640625 18.609375 -50.890625 C 26.328125 -56.140625 37.65625 -58.765625 52.59375 -58.765625 L 66.75 -58.765625 L 66.75 -68.84375 C 66.75 -73.78125 65.320312 -77.609375 62.46875 -80.328125 C 59.625 -83.046875 55.414062 -84.40625 49.84375 -84.40625 C 46.675781 -84.40625 43.859375 -84.039062 41.390625 -83.3125 C 38.921875 -82.582031 36.929688 -81.710938 35.421875 -80.703125 L 33.609375 -69.6875 L 12.71875 -69.6875 L 12.8125 -92.484375 C 17.875 -95.898438 23.679688 -98.773438 30.234375 -101.109375 C 36.785156 -103.453125 43.925781 -104.625 51.65625 -104.625 C 64.375 -104.625 74.703125 -101.503906 82.640625 -95.265625 C 90.585938 -89.035156 94.5625 -80.160156 94.5625 -68.640625 L 94.5625 -26.203125 C 94.5625 -24.617188 94.578125 -23.128906 94.609375 -21.734375 C 94.640625 -20.347656 94.753906 -19.019531 94.953125 -17.75 L 103.390625 -16.609375 L 103.390625 0 Z M 47.375 -18.515625 C 51.550781 -18.515625 55.347656 -19.414062 58.765625 -21.21875 C 62.191406 -23.019531 64.851562 -25.285156 66.75 -28.015625 L 66.75 -43.671875 L 52.59375 -43.671875 C 46.707031 -43.671875 42.242188 -42.296875 39.203125 -39.546875 C 36.171875 -36.796875 34.65625 -33.488281 34.65625 -29.625 C 34.65625 -26.144531 35.773438 -23.421875 38.015625 -21.453125 C 40.265625 -19.492188 43.382812 -18.515625 47.375 -18.515625 Z M 47.375 -18.515625 "/></g></g><g transform="translate(231.016197, 262.252274)"><g><path d="M 89.828125 -67.40625 L 71.203125 -67.40625 L 68.265625 -80.234375 C 66.367188 -81.753906 63.976562 -83.019531 61.09375 -84.03125 C 58.21875 -85.039062 55.039062 -85.546875 51.5625 -85.546875 C 46.6875 -85.546875 42.820312 -84.453125 39.96875 -82.265625 C 37.125 -80.085938 35.703125 -77.351562 35.703125 -74.0625 C 35.703125 -70.957031 37.0625 -68.375 39.78125 -66.3125 C 42.5 -64.257812 47.941406 -62.441406 56.109375 -60.859375 C 68.835938 -58.328125 78.269531 -54.609375 84.40625 -49.703125 C 90.550781 -44.796875 93.625 -38.039062 93.625 -29.4375 C 93.625 -20.195312 89.648438 -12.644531 81.703125 -6.78125 C 73.753906 -0.925781 63.296875 2 50.328125 2 C 42.410156 2 35.144531 0.84375 28.53125 -1.46875 C 21.914062 -3.78125 16.046875 -7.085938 10.921875 -11.390625 L 10.640625 -34.46875 L 30 -34.46875 L 33.796875 -21.078125 C 35.441406 -19.679688 37.6875 -18.648438 40.53125 -17.984375 C 43.382812 -17.328125 46.363281 -17 49.46875 -17 C 55.101562 -17 59.390625 -18.007812 62.328125 -20.03125 C 65.273438 -22.0625 66.75 -24.816406 66.75 -28.296875 C 66.75 -31.335938 65.257812 -33.960938 62.28125 -36.171875 C 59.3125 -38.390625 53.835938 -40.351562 45.859375 -42.0625 C 33.765625 -44.53125 24.628906 -48.1875 18.453125 -53.03125 C 12.285156 -57.875 9.203125 -64.472656 9.203125 -72.828125 C 9.203125 -81.429688 12.75 -88.847656 19.84375 -95.078125 C 26.9375 -101.316406 37.03125 -104.4375 50.125 -104.4375 C 58.101562 -104.4375 65.648438 -103.359375 72.765625 -101.203125 C 79.890625 -99.054688 85.476562 -96.304688 89.53125 -92.953125 Z M 89.828125 -67.40625 "/></g></g><g transform="translate(331.094726, 262.252274)"><g><path d="M 112.328125 -86.015625 L 102.734375 -84.59375 L 64.9375 15.375 C 61.96875 22.78125 58 28.984375 53.03125 33.984375 C 48.0625 38.992188 40.578125 41.5 30.578125 41.5 C 28.234375 41.5 26.03125 41.304688 23.96875 40.921875 C 21.914062 40.546875 19.492188 40.007812 16.703125 39.3125 L 19.9375 19.078125 C 20.820312 19.210938 21.738281 19.34375 22.6875 19.46875 C 23.632812 19.59375 24.457031 19.65625 25.15625 19.65625 C 29.78125 19.65625 33.328125 18.53125 35.796875 16.28125 C 38.265625 14.03125 40.164062 11.226562 41.5 7.875 L 44.625 0.09375 L 12.0625 -84.5 L 2.46875 -86.015625 L 2.46875 -102.734375 L 52.796875 -102.734375 L 52.796875 -86.015625 L 41.296875 -84.125 L 55.359375 -43.109375 L 56.78125 -35.703125 L 57.34375 -35.609375 L 73.578125 -84.125 L 62 -86.015625 L 62 -102.734375 L 112.328125 -102.734375 Z M 112.328125 -86.015625 "/></g></g><g transform="translate(446.17554, 262.252274)"><g><path d="M 119.921875 -15.375 C 115.421875 -10.945312 108.867188 -6.941406 100.265625 -3.359375 C 91.660156 0.210938 80.773438 2 67.609375 2 C 48.929688 2 33.738281 -4.25 22.03125 -16.75 C 10.320312 -29.257812 4.46875 -45.515625 4.46875 -65.515625 L 4.46875 -70.265625 C 4.46875 -90.960938 10.242188 -107.796875 21.796875 -120.765625 C 33.347656 -133.742188 48.425781 -140.234375 67.03125 -140.234375 C 77.851562 -140.234375 87.742188 -138.507812 96.703125 -135.0625 C 105.660156 -131.613281 113.113281 -126.945312 119.0625 -121.0625 L 119.0625 -93.234375 L 98.5625 -93.234375 L 94.65625 -111.75 C 92.125 -113.90625 88.785156 -115.628906 84.640625 -116.921875 C 80.492188 -118.222656 75.734375 -118.875 70.359375 -118.875 C 58.265625 -118.875 48.863281 -114.410156 42.15625 -105.484375 C 35.445312 -96.554688 32.09375 -84.878906 32.09375 -70.453125 L 32.09375 -65.515625 C 32.09375 -51.460938 35.382812 -40.242188 41.96875 -31.859375 C 48.550781 -23.472656 58.046875 -19.28125 70.453125 -19.28125 C 76.023438 -19.28125 80.535156 -19.753906 83.984375 -20.703125 C 87.429688 -21.648438 90.132812 -22.753906 92.09375 -24.015625 L 92.09375 -47.46875 L 72.34375 -49 L 72.34375 -68.453125 L 119.921875 -68.453125 Z M 119.921875 -15.375 "/></g></g><g transform="translate(574.644466, 262.252274)"><g><path d="M 5.125 -16.609375 L 18.515625 -19.46875 L 18.515625 -83.171875 L 3.703125 -86.015625 L 3.703125 -102.734375 L 46.234375 -102.734375 L 46.234375 -19.46875 L 59.53125 -16.609375 L 59.53125 0 L 5.125 0 Z M 46.234375 -127.328125 L 18.515625 -127.328125 L 18.515625 -148.125 L 46.234375 -148.125 Z M 46.234375 -127.328125 "/></g></g><g transform="translate(637.312237, 262.252274)"><g><path d="M 7.6875 -50.515625 C 7.6875 -66.710938 11.210938 -79.78125 18.265625 -89.71875 C 25.328125 -99.65625 35.222656 -104.625 47.953125 -104.625 C 53.710938 -104.625 58.773438 -103.34375 63.140625 -100.78125 C 67.503906 -98.21875 71.238281 -94.566406 74.34375 -89.828125 L 76.34375 -102.734375 L 100.453125 -102.734375 L 100.453125 -3.03125 C 100.453125 10.507812 96.191406 21.316406 87.671875 29.390625 C 79.160156 37.460938 67.46875 41.5 52.59375 41.5 C 47.40625 41.5 41.898438 40.785156 36.078125 39.359375 C 30.253906 37.929688 24.875 35.984375 19.9375 33.515625 L 25.0625 14.046875 C 29.5 15.953125 33.929688 17.457031 38.359375 18.5625 C 42.785156 19.664062 47.46875 20.21875 52.40625 20.21875 C 59.1875 20.21875 64.253906 18.160156 67.609375 14.046875 C 70.960938 9.929688 72.640625 4.203125 72.640625 -3.140625 L 72.640625 -9.875 C 69.597656 -6.007812 66.019531 -3.0625 61.90625 -1.03125 C 57.789062 0.988281 53.078125 2 47.765625 2 C 35.160156 2 25.328125 -2.632812 18.265625 -11.90625 C 11.210938 -21.1875 7.6875 -33.390625 7.6875 -48.515625 Z M 35.421875 -48.515625 C 35.421875 -39.523438 36.9375 -32.453125 39.96875 -27.296875 C 43.007812 -22.140625 47.945312 -19.5625 54.78125 -19.5625 C 59.019531 -19.5625 62.609375 -20.335938 65.546875 -21.890625 C 68.492188 -23.441406 70.859375 -25.703125 72.640625 -28.671875 L 72.640625 -73.296875 C 70.859375 -76.398438 68.492188 -78.804688 65.546875 -80.515625 C 62.609375 -82.222656 59.082031 -83.078125 54.96875 -83.078125 C 48.195312 -83.078125 43.242188 -80.070312 40.109375 -74.0625 C 36.984375 -68.050781 35.421875 -60.203125 35.421875 -50.515625 Z M 35.421875 -48.515625 "/></g></g></g></svg>