<svg xmlns="http://www.w3.org/2000/svg" xmlns:xlink="http://www.w3.org/1999/xlink" width="1377" zoomAndPan="magnify" viewBox="0 0 1032.75 693.000001" height="924" preserveAspectRatio="xMidYMid meet" version="1.0"><defs><clipPath id="9ba5decec0"><path d="M 303 0 L 1013 0 L 1013 267 L 303 267 Z M 303 0 " clip-rule="nonzero"/></clipPath><clipPath id="345f04204d"><path d="M 721.285156 -299.59375 L 1091.515625 42.414062 L 636.183594 535.316406 L 265.953125 193.308594 Z M 721.285156 -299.59375 " clip-rule="nonzero"/></clipPath><clipPath id="6da6f3092d"><path d="M 721.285156 -299.59375 L 1091.515625 42.414062 L 636.183594 535.316406 L 265.953125 193.308594 Z M 721.285156 -299.59375 " clip-rule="nonzero"/></clipPath><clipPath id="d5ca7bffb6"><path d="M 0.621094 275 L 673 275 L 673 692 L 0.621094 692 Z M 0.621094 275 " clip-rule="nonzero"/></clipPath><clipPath id="86d591c683"><path d="M -16.957031 716.6875 L 250.644531 94.792969 L 699.863281 288.09375 L 432.261719 909.988281 Z M -16.957031 716.6875 " clip-rule="nonzero"/></clipPath><clipPath id="9edded6e64"><path d="M -16.957031 716.6875 L 250.644531 94.792969 L 699.863281 288.09375 L 432.261719 909.988281 Z M -16.957031 716.6875 " clip-rule="nonzero"/></clipPath></defs><g clip-path="url(#9ba5decec0)"><g clip-path="url(#345f04204d)"><g clip-path="url(#6da6f3092d)"><path fill="#737373" d="M 312.128906 234.386719 C 312.085938 234.308594 312.050781 234.234375 312.011719 234.15625 C 303.347656 215.96875 301.246094 194.976562 305.9375 173.445312 C 307.054688 168.355469 308.519531 163.371094 310.332031 158.488281 C 312.140625 153.605469 314.28125 148.867188 316.75 144.28125 C 319.21875 139.695312 321.996094 135.304688 325.074219 131.101562 C 328.15625 126.902344 331.511719 122.933594 335.144531 119.203125 C 361.933594 91.960938 402.742188 77.027344 447.109375 78.238281 C 472.417969 78.925781 494.050781 85.902344 509.203125 97.71875 C 526.371094 92.617188 545.402344 92.378906 563.648438 97.144531 C 584.691406 102.636719 603.394531 114.445312 616.3125 130.394531 C 620.203125 135.246094 623.59375 140.425781 626.480469 145.929688 C 629.371094 151.433594 631.710938 157.164062 633.496094 163.121094 C 640.992188 161.601562 648.558594 161.003906 656.199219 161.339844 C 663.839844 161.671875 671.328125 162.921875 678.664062 165.085938 C 700.839844 171.71875 719.070312 186.101562 736.699219 200.007812 C 743.289062 205.207031 750.105469 210.585938 756.953125 215.402344 C 776.578125 229.203125 807.296875 245.570312 842.191406 245.140625 C 873.976562 244.753906 903.601562 228.914062 917.660156 204.78125 C 924.683594 192.730469 928.753906 177.902344 930.46875 158.125 C 931.773438 143.09375 931.253906 129.550781 928.914062 117.484375 C 906.347656 125.511719 882.066406 125.628906 861.542969 116.382812 C 848.683594 110.585938 838.015625 99.09375 834.371094 87.113281 C 831.875 78.921875 832.78125 71.023438 836.988281 64.269531 C 841.570312 56.90625 849.882812 51.699219 860.390625 49.597656 C 885.453125 44.589844 913.382812 58.667969 928.304688 83.835938 C 931.691406 89.589844 934.414062 95.640625 936.472656 101.988281 C 942.125 99.113281 947.464844 95.738281 952.488281 91.863281 C 957.515625 87.988281 962.136719 83.683594 966.355469 78.945312 C 994.472656 46.972656 1001.082031 3.46875 1001.671875 -27.398438 C 1001.679688 -27.765625 1001.722656 -28.128906 1001.800781 -28.488281 C 1001.878906 -28.847656 1001.992188 -29.199219 1002.136719 -29.535156 C 1002.285156 -29.875 1002.464844 -30.191406 1002.675781 -30.496094 C 1002.886719 -30.796875 1003.125 -31.078125 1003.386719 -31.332031 C 1003.652344 -31.585938 1003.941406 -31.816406 1004.25 -32.011719 C 1004.5625 -32.210938 1004.886719 -32.378906 1005.230469 -32.511719 C 1005.574219 -32.648438 1005.925781 -32.746094 1006.289062 -32.8125 C 1006.652344 -32.878906 1007.015625 -32.90625 1007.386719 -32.898438 C 1007.753906 -32.890625 1008.117188 -32.847656 1008.476562 -32.769531 C 1008.835938 -32.691406 1009.183594 -32.578125 1009.523438 -32.429688 C 1009.859375 -32.285156 1010.179688 -32.105469 1010.480469 -31.894531 C 1010.785156 -31.683594 1011.0625 -31.445312 1011.320312 -31.179688 C 1011.574219 -30.914062 1011.800781 -30.628906 1012 -30.316406 C 1012.199219 -30.007812 1012.363281 -29.679688 1012.5 -29.335938 C 1012.632812 -28.996094 1012.734375 -28.640625 1012.796875 -28.28125 C 1012.863281 -27.917969 1012.890625 -27.550781 1012.882812 -27.183594 C 1012.257812 5.554688 1005.136719 51.828125 974.78125 86.351562 C 969.851562 91.949219 964.414062 97 958.46875 101.503906 C 952.519531 106.003906 946.183594 109.867188 939.460938 113.09375 C 942.382812 126.726562 943.109375 142.0625 941.644531 159.089844 C 939.78125 180.578125 935.238281 196.894531 927.351562 210.429688 C 911.347656 237.890625 877.976562 255.917969 842.328125 256.355469 C 804.4375 256.816406 771.476562 239.328125 750.5 224.570312 C 743.398438 219.578125 736.460938 214.101562 729.75 208.808594 C 712.175781 194.945312 695.574219 181.847656 675.449219 175.828125 C 669.074219 173.945312 662.566406 172.847656 655.921875 172.542969 C 649.28125 172.234375 642.699219 172.722656 636.179688 174.011719 C 637.105469 178.902344 637.6875 183.835938 637.917969 188.8125 C 638.925781 210.535156 633.207031 231.902344 621.820312 248.980469 C 614.574219 259.847656 601.28125 270.605469 587.675781 265.15625 C 581.625 262.734375 576.753906 257.308594 573.582031 249.464844 C 561.128906 218.644531 583.03125 184.75 610.460938 171.015625 C 614.382812 169.054688 618.429688 167.382812 622.59375 166.007812 C 619.445312 155.519531 614.445312 146 607.601562 137.453125 C 587.011719 112.039062 550.773438 100.101562 518.789062 106.847656 C 522.085938 110.691406 524.820312 114.902344 526.996094 119.472656 C 544.375 156.109375 518.808594 198.246094 485.757812 223.753906 C 478.785156 229.136719 470.359375 234.433594 460.746094 232.898438 C 446.089844 230.554688 439.695312 214.339844 438.671875 201.164062 C 437.085938 180.699219 442.542969 159.261719 454.042969 140.804688 C 464.554688 123.933594 479.527344 110.492188 496.589844 102.503906 C 478.375 91.421875 455.535156 89.679688 446.800781 89.441406 C 405.539062 88.320312 367.753906 102.03125 343.140625 127.0625 C 315.921875 154.738281 307.085938 197.75 322.136719 229.332031 C 322.289062 229.65625 322.414062 229.996094 322.503906 230.347656 C 322.59375 230.699219 322.648438 231.054688 322.667969 231.417969 C 322.691406 231.78125 322.675781 232.140625 322.625 232.5 C 322.578125 232.859375 322.496094 233.210938 322.375 233.554688 C 322.257812 233.898438 322.109375 234.226562 321.929688 234.539062 C 321.746094 234.855469 321.539062 235.148438 321.300781 235.421875 C 321.0625 235.695312 320.800781 235.945312 320.511719 236.167969 C 320.226562 236.390625 319.921875 236.582031 319.597656 236.746094 C 319.273438 236.910156 318.9375 237.039062 318.589844 237.136719 C 318.238281 237.234375 317.882812 237.300781 317.523438 237.328125 C 317.160156 237.359375 316.800781 237.351562 316.441406 237.3125 C 316.078125 237.269531 315.726562 237.195312 315.378906 237.085938 C 315.035156 236.976562 314.703125 236.835938 314.382812 236.660156 C 314.066406 236.488281 313.765625 236.285156 313.488281 236.054688 C 313.210938 235.820312 312.953125 235.566406 312.726562 235.285156 C 312.496094 235.003906 312.296875 234.703125 312.125 234.382812 Z M 506.820312 110.347656 C 506.414062 110.503906 506.007812 110.660156 505.597656 110.824219 C 470.9375 124.632812 446.972656 163.097656 449.855469 200.300781 C 450.617188 210.128906 454.824219 220.597656 462.515625 221.824219 C 467.910156 222.6875 473.828125 218.796875 478.910156 214.875 C 507.441406 192.851562 531.492188 155.109375 516.863281 124.277344 C 514.359375 119.027344 511.011719 114.382812 506.820312 110.347656 Z M 625.230469 176.953125 C 621.890625 178.101562 618.640625 179.464844 615.480469 181.046875 C 592.402344 192.597656 574.242188 221.15625 583.984375 245.261719 C 585.121094 248.085938 587.660156 253.070312 591.84375 254.746094 C 599.726562 257.902344 608.53125 248.699219 612.492188 242.761719 C 625.125 223.8125 629.265625 199.5625 625.230469 176.953125 Z M 920.320312 92.511719 C 919.785156 91.507812 919.230469 90.523438 918.65625 89.554688 C 908.074219 71.710938 885.417969 56.03125 862.585938 60.589844 C 858.277344 61.453125 850.457031 63.84375 846.507812 70.195312 C 844.027344 74.175781 843.554688 78.769531 845.097656 83.847656 C 847.761719 92.589844 856.414062 101.769531 866.148438 106.152344 C 885.765625 114.992188 907.128906 113.730469 926.164062 106.554688 C 924.648438 101.695312 922.703125 97.011719 920.320312 92.511719 Z M 920.320312 92.511719 " fill-opacity="1" fill-rule="nonzero"/></g></g></g><g clip-path="url(#d5ca7bffb6)"><g clip-path="url(#86d591c683)"><g clip-path="url(#9edded6e64)"><path fill="#737373" d="M 655.957031 384.480469 C 646.554688 406.335938 633.3125 425.65625 617.074219 441.066406 C 595.757812 461.300781 567.621094 475.191406 537.855469 480.175781 C 507.179688 485.316406 476.59375 480.53125 451.738281 466.699219 C 446.929688 464.058594 442.394531 461.011719 438.132812 457.558594 C 428.5625 465.71875 418.214844 472.730469 407.089844 478.59375 C 387.332031 488.992188 365.417969 495.46875 343.722656 497.320312 C 332.183594 498.304688 321.617188 497.640625 312.351562 495.425781 C 308.027344 503.046875 301.449219 510.386719 292.679688 517.367188 C 262.828125 541.121094 225.0625 550.273438 188.535156 559.121094 C 168.675781 563.933594 148.136719 568.914062 129.109375 576.179688 C 65.828125 600.34375 14.636719 652.921875 -7.832031 716.828125 C -7.96875 717.210938 -8.171875 717.554688 -8.441406 717.855469 C -8.714844 718.160156 -9.035156 718.398438 -9.398438 718.574219 C -9.765625 718.75 -10.152344 718.851562 -10.558594 718.871094 C -10.964844 718.894531 -11.359375 718.839844 -11.742188 718.703125 C -12.128906 718.566406 -12.46875 718.363281 -12.773438 718.09375 C -13.074219 717.824219 -13.316406 717.503906 -13.492188 717.136719 C -13.667969 716.769531 -13.765625 716.382812 -13.789062 715.976562 C -13.8125 715.570312 -13.753906 715.175781 -13.621094 714.792969 C -2.339844 682.707031 16.546875 652.476562 40.988281 627.371094 C 65.429688 602.265625 95.144531 582.582031 126.921875 570.449219 C 146.316406 563.042969 167.046875 558.019531 187.09375 553.164062 C 224.621094 544.070312 260.070312 535.480469 288.863281 512.566406 C 296.515625 506.480469 302.332031 500.164062 306.265625 493.6875 C 297.085938 490.601562 289.453125 485.800781 283.753906 479.398438 C 277.515625 472.390625 275 460.742188 277.902344 452.304688 C 279.828125 446.699219 283.894531 443.066406 289.347656 442.074219 C 292.621094 441.472656 296.304688 441.960938 299.996094 443.484375 C 314.949219 449.648438 320.65625 467.988281 317.539062 482.164062 C 316.960938 484.769531 316.15625 487.304688 315.128906 489.769531 C 325.53125 492.007812 335.929688 491.828125 343.203125 491.207031 C 375.976562 488.414062 408.160156 474.71875 433.507812 453.414062 C 428.226562 448.238281 424.292969 442.613281 421.746094 436.585938 C 420.28125 433.09375 419.339844 429.464844 418.921875 425.699219 C 418.503906 421.933594 418.625 418.183594 419.289062 414.453125 C 420.714844 406.558594 424.644531 399.785156 430.351562 395.378906 C 436.824219 390.382812 446.082031 389.039062 454.515625 391.875 C 461.855469 394.34375 467.101562 399.566406 468.898438 406.203125 C 471.359375 415.28125 467.921875 425.339844 458.398438 436.957031 C 453.582031 442.816406 448.378906 448.3125 442.789062 453.4375 C 446.550781 456.402344 450.527344 459.035156 454.722656 461.339844 C 502.96875 488.1875 569.472656 477.789062 612.855469 436.617188 C 652.058594 399.410156 671.878906 338.914062 664.585938 278.738281 C 664.539062 278.335938 664.570312 277.941406 664.679688 277.550781 C 664.789062 277.160156 664.96875 276.804688 665.21875 276.484375 C 665.46875 276.164062 665.773438 275.90625 666.125 275.707031 C 666.480469 275.507812 666.859375 275.386719 667.261719 275.335938 C 667.664062 275.289062 668.058594 275.316406 668.453125 275.425781 C 668.84375 275.535156 669.199219 275.714844 669.515625 275.964844 C 669.835938 276.214844 670.097656 276.515625 670.296875 276.867188 C 670.496094 277.222656 670.621094 277.597656 670.671875 278 C 674.277344 307.714844 671.53125 338.210938 662.742188 366.1875 C 660.792969 372.402344 658.53125 378.496094 655.957031 384.480469 Z M 438.136719 449.367188 C 443.707031 444.3125 448.882812 438.878906 453.65625 433.066406 C 461.832031 423.09375 464.882812 414.832031 462.980469 407.804688 C 461.726562 403.179688 457.929688 399.492188 452.558594 397.6875 C 446.144531 395.53125 438.898438 396.527344 434.097656 400.234375 C 423.78125 408.195312 422.945312 423.675781 427.390625 434.199219 C 429.675781 439.597656 433.269531 444.667969 438.136719 449.367188 Z M 309.136719 488.1875 C 310.179688 485.816406 310.984375 483.371094 311.546875 480.84375 C 314.121094 469.140625 309.632812 454.085938 297.660156 449.152344 C 295.058594 448.078125 292.5625 447.71875 290.445312 448.101562 C 287.179688 448.699219 284.910156 450.78125 283.695312 454.296875 C 281.496094 460.695312 283.53125 469.929688 288.328125 475.316406 C 294.046875 481.742188 301.421875 485.753906 309.136719 488.1875 Z M 309.136719 488.1875 " fill-opacity="1" fill-rule="nonzero"/></g></g></g></svg>